<svg width="360" height="608" viewBox="0 0 360 608" fill="none" xmlns="http://www.w3.org/2000/svg">
<path d="M162.806 0V286.964C113.928 261.878 58.6054 247.554 0 247.154V0H162.806Z" fill="#F5F5FD"/>
<path d="M181.737 522.539C173.003 540.428 166.592 559.761 162.946 580.097C161.464 588.199 160.462 596.461 159.902 604.844H0V498.478C24.5 462 29 455.5 58.5758 413.642C101.165 427.118 137.665 454.273 162.946 489.97C170.158 500.198 176.449 511.068 181.737 522.539Z" fill="#E5E5FA"/>
<path d="M359.688 580.821V604.844L200.411 607.844C200.09 578.486 193.549 550.653 182.031 525.546C176.734 514.076 170.434 503.207 163.21 492.98C137.888 457.286 101.329 430.134 58.6706 416.658C40.0902 410.843 20.4263 407.554 0 407.313V244.209C58.7508 244.611 114.211 258.969 163.21 284.115C169.818 287.484 176.293 291.067 182.633 294.864C232.234 324.261 274.211 365.17 304.95 413.899C335.811 462.868 355.314 519.739 359.688 580.821Z" fill="#ECECFA"/>
</svg>
