<svg width="15" height="13" viewBox="0 0 15 13" fill="none" xmlns="http://www.w3.org/2000/svg">
<path d="M13.1643 11.775H1.18514C0.548827 11.775 0.161338 11.0813 0.491456 10.5359L6.48103 0.762203C6.79676 0.240724 7.55268 0.240724 7.8684 0.762203L13.858 10.5359C14.188 11.0813 13.8005 11.775 13.1643 11.775Z" fill="white"/>
<path d="M1.18708 12.1492H13.1652C14.0915 12.1492 14.6602 11.1361 14.1756 10.343L8.18874 0.568772C7.72472 -0.190098 6.62687 -0.188955 6.16362 0.56839L0.176428 10.3434C-0.307027 11.135 0.25991 12.1492 1.18708 12.1492ZM0.811504 10.732L6.7986 0.957117C6.97262 0.673029 7.37974 0.673029 7.55385 0.957498L13.5406 10.7317C13.7212 11.0269 13.5108 11.4048 13.1652 11.4048H1.18708C0.840666 11.4047 0.631865 11.026 0.811504 10.732Z" fill="#EF0064"/>
<path d="M7.17693 8.10742C7.38249 8.10742 7.54917 7.94074 7.54917 7.73518V4.04289C7.54917 3.83733 7.38249 3.67065 7.17693 3.67065C6.97137 3.67065 6.80469 3.83733 6.80469 4.04289V7.73518C6.80469 7.94074 6.97137 8.10742 7.17693 8.10742Z" fill="#EF0064"/>
<path d="M7.17693 10.3924C7.38249 10.3924 7.54917 10.2258 7.54917 10.0202V9.60051C7.54917 9.39495 7.38249 9.22827 7.17693 9.22827C6.97137 9.22827 6.80469 9.39495 6.80469 9.60051V10.0202C6.80469 10.2258 6.97137 10.3924 7.17693 10.3924Z" fill="#EF0064"/>
</svg>
