<svg width="20" height="20" viewBox="0 0 20 20" fill="none" xmlns="http://www.w3.org/2000/svg">
<g id="bell 1">
<g id="28">
<path id="Vector" d="M17.5433 14.1625L16.4746 12.625C16.3287 12.416 16.2502 12.1674 16.2496 11.9125V7.5C16.2496 5.8424 15.5911 4.25268 14.419 3.08058C13.2469 1.90848 11.6572 1.25 9.99959 1.25C8.34199 1.25 6.75228 1.90848 5.58017 3.08058C4.40807 4.25268 3.74959 5.8424 3.74959 7.5V11.9125C3.74899 12.1674 3.67048 12.416 3.52459 12.625L2.45584 14.1625C2.29402 14.3418 2.1876 14.5641 2.14947 14.8026C2.11133 15.0411 2.14311 15.2856 2.24096 15.5064C2.33881 15.7272 2.49854 15.915 2.70083 16.0469C2.90312 16.1789 3.13931 16.2494 3.38084 16.25H6.93709C7.08054 16.9564 7.4638 17.5915 8.02193 18.0477C8.58006 18.5039 9.27874 18.7531 9.99959 18.7531C10.7204 18.7531 11.4191 18.5039 11.9773 18.0477C12.5354 17.5915 12.9186 16.9564 13.0621 16.25H16.6183C16.8599 16.2494 17.0961 16.1789 17.2984 16.0469C17.5006 15.915 17.6604 15.7272 17.7582 15.5064C17.8561 15.2856 17.8878 15.0411 17.8497 14.8026C17.8116 14.5641 17.7052 14.3418 17.5433 14.1625ZM9.99959 17.5C9.61275 17.4989 9.23572 17.3782 8.92018 17.1544C8.60464 16.9306 8.36604 16.6147 8.23709 16.25H11.7621C11.6331 16.6147 11.3945 16.9306 11.079 17.1544C10.7635 17.3782 10.3864 17.4989 9.99959 17.5ZM3.38084 15C3.40909 14.9738 3.43425 14.9444 3.45584 14.9125L4.54959 13.3375C4.84137 12.9195 4.99838 12.4223 4.99959 11.9125V7.5C4.99959 6.17392 5.52638 4.90215 6.46406 3.96447C7.40174 3.02678 8.67351 2.5 9.99959 2.5C11.3257 2.5 12.5974 3.02678 13.5351 3.96447C14.4728 4.90215 14.9996 6.17392 14.9996 7.5V11.9125C15.0008 12.4223 15.1578 12.9195 15.4496 13.3375L16.5433 14.9125C16.5649 14.9444 16.5901 14.9738 16.6183 15H3.38084Z" fill="#9CB1C5"/>
</g>
</g>
</svg>
