<svg width="24" height="24" viewBox="0 0 24 24" fill="none" xmlns="http://www.w3.org/2000/svg">
<path d="M18.6353 21.4629C22.4995 18.2236 22.9535 12.2713 22.9535 9.85481" stroke="#2676FF" stroke-miterlimit="10" stroke-linecap="round" stroke-linejoin="round"/>
<path d="M22.9325 4.77685C22.9325 1.31653 16.1521 -0.0625282 14.0572 0.492753C12.487 0.908956 11.9896 1.74071 11.9896 1.74071C11.9896 1.74071 11.4923 0.908206 9.92194 0.492753C7.56268 -0.131388 1.04663 1.31653 1.04663 4.77685L1.05947 9.85477C1.05947 12.5739 2.00827 23.6484 12.0317 23.6484C14.0519 23.6484 15.7014 23.2262 17.0476 22.5241" stroke="#2676FF" stroke-miterlimit="10" stroke-linecap="round" stroke-linejoin="round"/>
<path d="M2.61352 3.58516C1.75022 3.58516 1.05244 4.2865 1.05956 5.14689L1.05952 9.85459C1.107 15.5882 6.03586 20.7217 11.8966 20.7285C17.8661 20.6943 22.9038 15.8408 22.9534 9.85459L22.9534 5.14689C22.9605 4.2865 22.2627 3.58516 21.3994 3.58516" stroke="#2676FF" stroke-miterlimit="10" stroke-linecap="round" stroke-linejoin="round"/>
<path d="M18.1563 8.97362C18.4524 8.98145 18.937 8.98145 19.2331 8.97362C19.9357 8.95506 20.5259 8.88353 20.5412 8.18045L20.5422 3.59167H16.8474L16.8482 8.18045C16.8636 8.88348 17.4537 8.95506 18.1563 8.97362Z" stroke="#2676FF" stroke-miterlimit="10" stroke-linecap="round" stroke-linejoin="round"/>
<path d="M1.05951 8.97359C1.35665 8.98146 1.84293 8.98146 2.14007 8.97359C2.84184 8.95498 3.43092 8.88288 3.44629 8.18046L3.44723 3.59168H2.61351C1.75527 3.59168 1.05951 4.28515 1.05951 5.14062V8.97359Z" stroke="#2676FF" stroke-miterlimit="10" stroke-linecap="round" stroke-linejoin="round"/>
<path d="M22.9299 8.97359C22.6328 8.98146 22.1465 8.98146 21.8493 8.97359C21.1476 8.95498 20.5585 8.88288 20.5431 8.18046L20.5422 3.59168H21.3759C22.2341 3.59168 22.9299 4.28515 22.9299 5.14062V8.97359Z" stroke="#2676FF" stroke-miterlimit="10" stroke-linecap="round" stroke-linejoin="round"/>
<path d="M6.05594 3.59119H7.17803C7.17803 3.59119 7.18459 7.14061 7.16176 8.18002C7.14639 8.88244 6.55731 8.95449 5.85555 8.9731C5.5584 8.98097 5.07212 8.98097 4.77498 8.9731C4.07322 8.95449 3.48414 8.88244 3.46876 8.18002C3.44594 7.14061 3.46876 3.59119 3.46876 3.59119H4.15956" stroke="#2676FF" stroke-miterlimit="10" stroke-linecap="round" stroke-linejoin="round"/>
<path d="M12.0272 8.19619V3.59443C12.0272 3.59278 12.0285 3.59147 12.0301 3.59147H16.8443C16.846 3.59147 16.8473 3.59278 16.8473 3.59443L16.8546 8.17149C16.8553 8.59913 16.5093 8.94703 16.0803 8.95013L12.8128 8.97361C12.3798 8.97671 12.0272 8.62777 12.0272 8.19619Z" stroke="#2676FF" stroke-miterlimit="10" stroke-linecap="round" stroke-linejoin="round"/>
<path d="M7.21686 8.19619V3.59443C7.21686 3.59278 7.21817 3.59147 7.21981 3.59147H12.034C12.0357 3.59147 12.037 3.59278 12.037 3.59443L12.0443 8.17149C12.045 8.59913 11.699 8.94703 11.27 8.95013L8.00248 8.97361C7.5695 8.97671 7.21686 8.62777 7.21686 8.19619Z" stroke="#2676FF" stroke-miterlimit="10" stroke-linecap="round" stroke-linejoin="round"/>
<path d="M4.62933 6.4165H2.09442" stroke="#2676FF" stroke-miterlimit="10" stroke-linecap="round" stroke-linejoin="round"/>
<path d="M18.9546 7.29053H18.4349C18.1844 7.29053 17.9814 7.08751 17.9814 6.83706V5.99589C17.9814 5.74543 18.1844 5.54242 18.4349 5.54242H18.9546C19.205 5.54242 19.408 5.74543 19.408 5.99589V6.83706C19.408 7.08751 19.205 7.29053 18.9546 7.29053Z" stroke="#2676FF" stroke-miterlimit="10" stroke-linecap="round" stroke-linejoin="round"/>
<path d="M14.6966 7.29053H14.1769C13.9265 7.29053 13.7234 7.08751 13.7234 6.83706V5.99589C13.7234 5.74543 13.9265 5.54242 14.1769 5.54242H14.6966C14.947 5.54242 15.15 5.74543 15.15 5.99589V6.83706C15.15 7.08751 14.947 7.29053 14.6966 7.29053Z" stroke="#2676FF" stroke-miterlimit="10" stroke-linecap="round" stroke-linejoin="round"/>
<path d="M9.85312 7.29053H9.33341C9.08296 7.29053 8.87994 7.08751 8.87994 6.83706V5.99589C8.87994 5.74543 9.08296 5.54242 9.33341 5.54242H9.85312C10.1035 5.54242 10.3065 5.74543 10.3065 5.99589V6.83706C10.3065 7.08751 10.1035 7.29053 9.85312 7.29053Z" stroke="#2676FF" stroke-miterlimit="10" stroke-linecap="round" stroke-linejoin="round"/>
<path d="M5.60246 7.29053H5.08276C4.8323 7.29053 4.62933 7.08751 4.62933 6.83706V5.99589C4.62933 5.74543 4.8323 5.54242 5.08276 5.54242H5.60246C5.85291 5.54242 6.05588 5.74543 6.05588 5.99589V6.83706C6.05588 7.08751 5.85291 7.29053 5.60246 7.29053Z" stroke="#2676FF" stroke-miterlimit="10" stroke-linecap="round" stroke-linejoin="round"/>
<path d="M1.12201 5.54242H1.64026C1.89109 5.54242 2.09443 5.74511 2.09443 5.99514V6.83781C2.09443 7.08784 1.89109 7.29053 1.64026 7.29053H1.12201V5.54242Z" stroke="#2676FF" stroke-miterlimit="10" stroke-linecap="round" stroke-linejoin="round"/>
<path d="M22.9325 7.29053H22.4143C22.1634 7.29053 21.9601 7.08784 21.9601 6.83781V5.99514C21.9601 5.74511 22.1634 5.54242 22.4143 5.54242H22.9325V7.29053Z" stroke="#2676FF" stroke-miterlimit="10" stroke-linecap="round" stroke-linejoin="round"/>
<path d="M8.72558 6.4165H6.19067" stroke="#2676FF" stroke-miterlimit="10" stroke-linecap="round" stroke-linejoin="round"/>
<path d="M17.7697 6.4165H15.2348" stroke="#2676FF" stroke-miterlimit="10" stroke-linecap="round" stroke-linejoin="round"/>
<path d="M21.866 6.4165H19.4248" stroke="#2676FF" stroke-miterlimit="10" stroke-linecap="round" stroke-linejoin="round"/>
<path d="M13.7235 6.4165H10.4078" stroke="#2676FF" stroke-miterlimit="10" stroke-linecap="round" stroke-linejoin="round"/>
<path d="M11.9034 14.885C8.04591 13.8199 4.69524 15.1815 3.13861 16.0147C5.1083 18.8098 8.3191 20.7244 11.8966 20.7285C15.6143 20.7072 18.9502 18.8165 20.9501 15.9474C16.4386 13.4515 11.9034 14.885 11.9034 14.885Z" stroke="#2676FF" stroke-miterlimit="10" stroke-linecap="round" stroke-linejoin="round"/>
<path d="M11.9034 14.8852V17.6021" stroke="#2676FF" stroke-miterlimit="10" stroke-linecap="round" stroke-linejoin="round"/>
</svg>
