<svg width="50" height="50" viewBox="0 0 50 50" fill="none" xmlns="http://www.w3.org/2000/svg">
<g clip-path="url(#clip0_1127_1153)">
<path d="M48.5696 6.83546C47.834 6.09865 46.6406 6.09738 45.905 6.83234L23.2983 29.3794L15.1418 20.5207C14.437 19.7557 13.2454 19.7061 12.4791 20.4108C11.7134 21.1155 11.6644 22.3077 12.3692 23.0735L21.8541 33.3743C22.2015 33.7519 22.6876 33.9711 23.2002 33.9817C23.214 33.9823 23.2273 33.9823 23.2405 33.9823C23.7386 33.9823 24.2178 33.7845 24.5708 33.4327L48.5658 9.5006C49.3032 8.76574 49.3045 7.57228 48.5696 6.83546Z" fill="#05C882"/>
<path d="M48.1155 23.1155C47.0747 23.1155 46.2312 23.9591 46.2312 25C46.2312 36.7073 36.7073 46.2312 25 46.2312C13.2934 46.2312 3.76885 36.7073 3.76885 25C3.76885 13.2934 13.2934 3.76885 25 3.76885C26.0408 3.76885 26.8845 2.92529 26.8845 1.88447C26.8845 0.843555 26.0408 0 25 0C11.2148 0 0 11.2148 0 25C0 38.7846 11.2148 50 25 50C38.7846 50 50 38.7846 50 25C50 23.9592 49.1564 23.1155 48.1155 23.1155Z" fill="#05C882"/>
</g>
<defs>
<clipPath id="clip0_1127_1153">
<rect width="50" height="50" fill="white"/>
</clipPath>
</defs>
</svg>
