<svg width="19" height="19" viewBox="0 0 19 19" fill="none" xmlns="http://www.w3.org/2000/svg">
<g id="clock 2" clip-path="url(#clip0_3935_10732)">
<path id="Vector" d="M9.50006 18.9902C1.06741 18.9818 -3.17418 8.74084 2.7826 2.77274C6.31871 -0.912255 12.6815 -0.912848 16.2175 2.77288C22.1743 8.74151 17.9322 18.9823 9.50006 18.9902ZM9.50006 1.47465C5.08023 1.47465 1.48445 5.07043 1.48445 9.49026C1.92475 20.124 17.077 20.121 17.5157 9.49019C17.5157 5.07047 13.9198 1.47465 9.50006 1.47465ZM12.9565 11.8971L10.6116 9.55223C10.6323 9.20593 10.4846 8.87495 10.2419 8.66016C10.2421 8.65241 10.2422 8.64462 10.2422 8.63679V4.295C10.2031 3.31026 8.79672 3.31101 8.75787 4.295V8.63679C8.75787 8.64462 8.75802 8.65241 8.75824 8.66016C7.9821 9.35493 8.50861 10.6561 9.56199 10.6019L11.9069 12.9467C12.1967 13.2366 12.6666 13.2366 12.9565 12.9467C13.2463 12.6569 13.2463 12.187 12.9565 11.8971Z" fill="white"/>
</g>
<defs>
<clipPath id="clip0_3935_10732">
<rect width="19" height="19" fill="white"/>
</clipPath>
</defs>
</svg>
