<svg width="16" height="16" viewBox="0 0 16 16" fill="none" xmlns="http://www.w3.org/2000/svg">
<path d="M13.2946 2.50083H12.5246V0.96089C12.5246 0.756681 12.4435 0.560835 12.2991 0.416438C12.1547 0.27204 11.9589 0.190918 11.7547 0.190918C11.5504 0.190918 11.3546 0.27204 11.2102 0.416438C11.0658 0.560835 10.9847 0.756681 10.9847 0.96089V2.50083H4.82491V0.96089C4.82491 0.756681 4.74379 0.560835 4.59939 0.416438C4.45499 0.27204 4.25915 0.190918 4.05494 0.190918C3.85073 0.190918 3.65488 0.27204 3.51049 0.416438C3.36609 0.560835 3.28497 0.756681 3.28497 0.96089V2.50083H2.51499C1.90237 2.50083 1.31483 2.7442 0.881637 3.17739C0.448444 3.61059 0.205078 4.19812 0.205078 4.81075V5.58072H15.6045V4.81075C15.6045 4.19812 15.3612 3.61059 14.928 3.17739C14.4948 2.7442 13.9072 2.50083 13.2946 2.50083Z" fill="#D8D8F1"/>
<path d="M0.205078 13.2804C0.205078 13.893 0.448444 14.4805 0.881637 14.9137C1.31483 15.3469 1.90237 15.5903 2.51499 15.5903H13.2946C13.9072 15.5903 14.4948 15.3469 14.928 14.9137C15.3612 14.4805 15.6045 13.893 15.6045 13.2804V7.12061H0.205078V13.2804Z" fill="#D8D8F1"/>
</svg>
