<svg width="16" height="18" viewBox="0 0 16 18" fill="none" xmlns="http://www.w3.org/2000/svg">
<path d="M10.1875 13.4375C10.5326 13.4375 10.8125 13.1576 10.8125 12.8125V6.5625C10.8125 6.21737 10.5326 5.9375 10.1875 5.9375C9.84237 5.9375 9.5625 6.21737 9.5625 6.5625V12.8125C9.5625 13.1576 9.84237 13.4375 10.1875 13.4375Z" fill="#8D8DA3"/>
<path d="M5.8125 13.4375C6.15763 13.4375 6.4375 13.1576 6.4375 12.8125V6.5625C6.4375 6.21737 6.15763 5.9375 5.8125 5.9375C5.46737 5.9375 5.1875 6.21737 5.1875 6.5625V12.8125C5.1875 13.1576 5.46737 13.4375 5.8125 13.4375Z" fill="#8D8DA3"/>
<path d="M10.5 1.25C10.8451 1.25 11.125 0.970125 11.125 0.625C11.125 0.279875 10.8451 0 10.5 0H5.5C5.15487 0 4.875 0.279875 4.875 0.625C4.875 0.970125 5.15487 1.25 5.5 1.25H10.5Z" fill="#8D8DA3"/>
<path d="M1.125 1.875C0.779875 1.875 0.5 2.15487 0.5 2.5C0.5 2.84513 0.779875 3.125 1.125 3.125H1.75V14.625C1.75 16.0374 2.9 17.1875 4.3125 17.1875H11.6875C13.0999 17.1875 14.25 16.0375 14.25 14.625V3.125H14.875C15.2201 3.125 15.5 2.84513 15.5 2.5C15.5 2.15487 15.2201 1.875 14.875 1.875H13.625H2.375H1.125ZM13 3.125V14.625C13 15.35 12.4125 15.9375 11.6875 15.9375H4.3125C3.5875 15.9375 3 15.35 3 14.625V3.125H13Z" fill="#8D8DA3"/>
</svg>
