<svg width="26" height="26" viewBox="0 0 26 26" fill="none" xmlns="http://www.w3.org/2000/svg">
<g id="schedule_FILL0_wght400_GRAD0_opsz48 1">
<path id="Vector" d="M16.9826 18.2269L18.2013 17.0082L13.8951 12.6748V7.23109H12.2701V13.3248L16.9826 18.2269ZM13.0013 23.8332C11.5207 23.8332 10.1214 23.5488 8.80339 22.98C7.48533 22.4113 6.33429 21.6349 5.35026 20.6509C4.36623 19.6669 3.58984 18.5158 3.02109 17.1978C2.45234 15.8797 2.16797 14.4804 2.16797 12.9998C2.16797 11.5193 2.45234 10.12 3.02109 8.80192C3.58984 7.48387 4.36623 6.33282 5.35026 5.3488C6.33429 4.36477 7.48533 3.58838 8.80339 3.01963C10.1214 2.45088 11.5207 2.1665 13.0013 2.1665C14.4819 2.1665 15.8812 2.45088 17.1992 3.01963C18.5173 3.58838 19.6683 4.36477 20.6523 5.3488C21.6364 6.33282 22.4128 7.48387 22.9815 8.80192C23.5503 10.12 23.8346 11.5193 23.8346 12.9998C23.8346 14.4804 23.5503 15.8797 22.9815 17.1978C22.4128 18.5158 21.6364 19.6669 20.6523 20.6509C19.6683 21.6349 18.5173 22.4113 17.1992 22.98C15.8812 23.5488 14.4819 23.8332 13.0013 23.8332ZM13.0013 22.2082C15.5291 22.2082 17.6957 21.3054 19.5013 19.4998C21.3069 17.6943 22.2096 15.5276 22.2096 12.9998C22.2096 10.4721 21.3069 8.30539 19.5013 6.49984C17.6957 4.69428 15.5291 3.7915 13.0013 3.7915C10.4735 3.7915 8.30686 4.69428 6.5013 6.49984C4.69575 8.30539 3.79297 10.4721 3.79297 12.9998C3.79297 15.5276 4.69575 17.6943 6.5013 19.4998C8.30686 21.3054 10.4735 22.2082 13.0013 22.2082Z" fill="#3E3E46"/>
</g>
</svg>
