<svg width="22" height="22" viewBox="0 0 22 22" fill="none" xmlns="http://www.w3.org/2000/svg">
<path d="M21.2736 4.90806C21.184 4.30916 20.8828 3.76218 20.4246 3.36626C19.9664 2.97035 19.3815 2.75172 18.7759 2.75H3.22327C2.61771 2.75172 2.03281 2.97035 1.57459 3.36626C1.11637 3.76218 0.815169 4.30916 0.725586 4.90806L10.9996 11.5562L21.2736 4.90806Z" fill="#090F32"/>
<path d="M11.3733 12.9526C11.2621 13.0245 11.1325 13.0627 11 13.0627C10.8675 13.0627 10.7379 13.0245 10.6267 12.9526L0.6875 6.52168V16.7139C0.688228 17.3863 0.955666 18.031 1.43114 18.5064C1.90661 18.9819 2.55127 19.2493 3.22369 19.2501H18.7763C19.4487 19.2493 20.0934 18.9819 20.5689 18.5064C21.0443 18.031 21.3118 17.3863 21.3125 16.7139V6.521L11.3733 12.9526Z" fill="#090F32"/>
</svg>
