<svg width="20" height="20" viewBox="0 0 20 20" fill="none" xmlns="http://www.w3.org/2000/svg">
<path d="M14.9987 16.6668H4.9987C4.08203 16.6668 3.33203 15.9168 3.33203 15.0002V5.00016C3.33203 4.0835 4.08203 3.3335 4.9987 3.3335H8.33203C8.83203 3.3335 9.16536 3.66683 9.16536 4.16683C9.16536 4.66683 8.83203 5.00016 8.33203 5.00016H4.9987V15.0002H14.9987V11.6668C14.9987 11.1668 15.332 10.8335 15.832 10.8335C16.332 10.8335 16.6654 11.1668 16.6654 11.6668V15.0002C16.6654 15.9168 15.9154 16.6668 14.9987 16.6668Z" fill="currentColor"/>
<path d="M16.668 8.33333C16.168 8.33333 15.8346 8 15.8346 7.5V4.16667H12.5013C12.0013 4.16667 11.668 3.83333 11.668 3.33333C11.668 2.83333 12.0013 2.5 12.5013 2.5H16.668C17.168 2.5 17.5013 2.83333 17.5013 3.33333V7.5C17.5013 8 17.168 8.33333 16.668 8.33333Z" fill="currentColor"/>
<path d="M10.8333 10C10.5833 10 10.4167 9.91667 10.25 9.75C9.91667 9.41667 9.91667 8.91667 10.25 8.58333L16.0833 2.75C16.4167 2.41667 16.9167 2.41667 17.25 2.75C17.5833 3.08333 17.5833 3.58333 17.25 3.91667L11.4167 9.75C11.25 9.91667 11.0833 10 10.8333 10Z" fill="currentColor"/>
</svg>
