<svg width="16" height="16" viewBox="0 0 16 16" fill="none" xmlns="http://www.w3.org/2000/svg">
<path d="M14.1375 1.60653C11.9954 -0.535511 8.53522 -0.535511 6.39318 1.60653C4.51477 3.48494 4.28409 6.45085 5.73408 8.55993L4.21818 10.0758L2.5375 8.39516C2.14204 7.99971 1.48295 7.99971 1.0875 8.39516C0.692045 8.79062 0.692045 9.44971 1.0875 9.84516L2.76818 11.5258L0.296591 13.9974C-0.0988635 14.3929 -0.0988635 15.052 0.296591 15.4474C0.692045 15.8429 1.35114 15.8429 1.74659 15.4474L4.21818 12.9758L5.89886 14.6565C6.29431 15.052 6.9534 15.052 7.34886 14.6565C7.74431 14.2611 7.74431 13.602 7.34886 13.2065L5.66818 11.5258L7.18408 10.0099C9.32613 11.4599 12.2591 11.2622 14.1375 9.35084C16.2795 7.2088 16.2795 3.74858 14.1375 1.60653ZM12.6875 7.90084C11.3364 9.25198 9.16135 9.25198 7.81022 7.90084C6.45908 6.54971 6.45908 4.37471 7.81022 3.02358C9.16135 1.67244 11.3364 1.67244 12.6875 3.02358C14.0386 4.37471 14.0386 6.58266 12.6875 7.90084Z" fill="#05C882"/>
</svg>
