<svg width="93" height="78" viewBox="0 0 93 78" fill="none" xmlns="http://www.w3.org/2000/svg">
<path d="M7.62126 78H84.5229C90.4699 78 94.1214 71.4955 91.0102 66.4038L52.5732 3.65162C49.5941 -1.22047 42.5457 -1.21313 39.5716 3.64917L1.1327 66.4062C-1.97117 71.4888 1.66867 78 7.62126 78ZM5.21 68.9013L43.6483 6.14486C44.7655 4.32097 47.3793 4.32097 48.4971 6.14731L86.9329 68.8995C88.0923 70.795 86.742 73.2209 84.5229 73.2209H7.62126C5.39722 73.2203 4.05668 70.7888 5.21 68.9013Z" fill="#EF0064"/>
<path d="M46.0715 52.05C47.3912 52.05 48.4613 50.9799 48.4613 49.6602V25.955C48.4613 24.6353 47.3912 23.5652 46.0715 23.5652C44.7517 23.5652 43.6816 24.6353 43.6816 25.955V49.6602C43.6816 50.9799 44.7517 52.05 46.0715 52.05Z" fill="#EF0064"/>
<path d="M46.0715 66.7213C47.3912 66.7213 48.4613 65.6512 48.4613 64.3315V61.6369C48.4613 60.3172 47.3912 59.2471 46.0715 59.2471C44.7517 59.2471 43.6816 60.3172 43.6816 61.6369V64.3315C43.6816 65.6512 44.7517 66.7213 46.0715 66.7213Z" fill="#EF0064"/>
</svg>
