<svg width="28" height="28" viewBox="0 0 28 28" fill="none" xmlns="http://www.w3.org/2000/svg">
<path d="M3.0799 12.096L6.27657 13.496C6.33723 13.524 6.40257 13.5333 6.46323 13.5333C6.5659 13.5333 6.67323 13.496 6.75723 13.4307C6.89257 13.3233 6.9579 13.146 6.92057 12.9733L6.61257 11.4287L8.6519 12.11C8.89923 12.194 9.16057 12.0587 9.24457 11.816C9.3239 11.5733 9.19323 11.3073 8.95057 11.2233L6.15057 10.29C5.9919 10.2387 5.81923 10.2713 5.69323 10.3833C5.56723 10.4953 5.51123 10.6633 5.5439 10.8267L5.83323 12.2827L3.45323 11.242C3.2199 11.1393 2.9399 11.2467 2.83723 11.48C2.73456 11.718 2.8419 11.9933 3.0799 12.096Z" fill="#5D35E9"/>
<path d="M6.46331 18.9C6.56598 18.9 6.67331 18.8627 6.75731 18.7973C6.89264 18.69 6.95798 18.5127 6.92064 18.34L6.60798 16.8L8.64731 17.4813C8.89464 17.5653 9.15598 17.43 9.23998 17.1873C9.31931 16.9447 9.18864 16.6787 8.94598 16.5947L6.14598 15.6613C5.98731 15.61 5.81464 15.6427 5.68864 15.7547C5.56264 15.8667 5.50664 16.0347 5.53931 16.198L5.82864 17.654L3.45331 16.6087C3.21998 16.506 2.93998 16.6133 2.83731 16.8467C2.73464 17.0847 2.84198 17.36 3.07531 17.4627L6.27198 18.8627C6.33264 18.8907 6.39798 18.9 6.46331 18.9Z" fill="#5D35E9"/>
<path d="M17.3879 2.8C13.7153 2.884 11.7226 4.69467 10.6913 6.19733C10.5093 6.46333 10.3413 6.748 10.1919 7.042C9.47792 8.45133 9.26325 10.15 9.58059 11.8207C10.0426 14.2473 9.73925 17.9713 9.33325 22.2273V22.274C9.33325 24.1967 11.2093 24.864 11.3026 24.892C11.9606 25.0927 12.6139 25.1953 13.2486 25.1953C14.0326 25.1953 14.7933 25.0413 15.4979 24.7333C16.4826 24.304 17.2899 23.52 17.7706 22.5213L18.9606 20.0527C19.3806 19.1847 20.0246 18.4287 20.8226 17.8687L21.6579 17.2807C23.2119 16.1887 24.3506 14.672 24.8546 13.0013C25.6946 10.2293 24.7426 7.97067 24.7099 7.896C22.7453 2.73933 17.4393 2.79533 17.3879 2.8ZM23.9633 12.7353C23.5153 14.2053 22.5073 15.5493 21.1213 16.52L20.2859 17.108C19.3573 17.7613 18.6106 18.6387 18.1206 19.6513L16.9306 22.12C16.5479 22.918 15.9086 23.5433 15.1246 23.8793C14.0373 24.3507 12.8473 24.3927 11.5919 24.0053C11.5359 23.9867 10.2759 23.5293 10.2619 22.2927C10.6773 17.9713 10.9759 14.1867 10.4953 11.6433C10.2153 10.1733 10.4066 8.68933 11.0273 7.462C11.1579 7.20533 11.3026 6.958 11.4613 6.72467C12.7773 4.79733 14.7793 3.78933 17.4066 3.73333C17.4579 3.738 22.1013 3.682 23.8419 8.25067C23.8559 8.26933 24.7006 10.2993 23.9633 12.7353Z" fill="#5D35E9"/>
<path d="M19.0633 5.90333C14.8773 4.56867 13.1926 8.05467 12.7773 9.15133C12.5579 9.73467 12.5393 10.346 12.7259 10.8733L12.7399 10.906C13.0246 11.6807 13.7806 12.1613 14.6159 12.1053C16.6553 11.97 16.8139 13.1787 16.8279 13.356C17.1406 15.4327 13.8273 16.506 13.7946 16.52C13.7713 16.5293 13.7479 16.534 13.7293 16.548C13.4773 16.674 13.2486 16.828 13.0526 17.0007C12.1799 17.7847 11.9793 18.984 12.5346 20.0527C12.9966 20.9393 13.8599 21.462 14.8073 21.462C15.0079 21.462 15.2133 21.4387 15.4139 21.392C15.8059 21.2987 16.1419 21.0327 16.3379 20.664L17.8313 17.8593C18.1439 17.2667 18.5966 16.7487 19.1333 16.3613C21.8726 14.378 22.1946 12.264 22.2273 11.9187C22.6986 9.80467 22.0873 8.39066 21.4853 7.56933C20.9299 6.804 20.0899 6.23 19.0633 5.90333ZM21.3126 11.7413C21.3079 11.7647 21.3033 11.7927 21.3033 11.816C21.2986 11.8953 21.1306 13.762 18.5873 15.6053C17.9339 16.0767 17.3879 16.7067 17.0099 17.4207L15.5166 20.2253C15.4466 20.356 15.3299 20.4493 15.1759 20.4867C14.2846 20.6967 13.6453 20.1507 13.3653 19.6187C13.0946 19.1007 13.0153 18.2887 13.6779 17.6913C13.8039 17.5793 13.9486 17.4813 14.1119 17.3973C14.5506 17.2527 18.1673 15.9693 17.7566 13.2627C17.7519 13.1787 17.6913 12.432 17.0193 11.8393C16.4406 11.3307 15.6146 11.1113 14.5553 11.1767C14.1353 11.2 13.7573 10.9667 13.6173 10.5887L13.6079 10.5607C13.4959 10.2433 13.5099 9.86066 13.6546 9.48266C14.2006 8.04066 15.5959 5.77267 18.7879 6.79C19.6233 7.056 20.2999 7.518 20.7433 8.12C21.4479 9.09066 21.6393 10.3087 21.3126 11.7413Z" fill="#5D35E9"/>
</svg>
