<svg width="24" height="18" viewBox="0 0 24 18" fill="none" xmlns="http://www.w3.org/2000/svg">
<path d="M9.04102 14.6975C10.683 15.8862 12.0079 16.7789 12.0079 16.7789C12.0079 16.7789 13.3238 15.8926 14.9577 14.709" stroke="#EF0064" stroke-miterlimit="10" stroke-linecap="round" stroke-linejoin="round"/>
<path d="M20.7449 9.07979C21.1503 8.18359 21.3975 7.23423 21.3393 6.01745C21.2016 3.14021 19.0988 0.764072 16.5232 0.764072C13.9891 0.764072 12.0009 2.87579 12.0009 2.87579C12.0009 2.87579 10.1264 0.764072 7.47854 0.764072C4.90309 0.764072 2.80009 3.14021 2.66246 6.01745C2.60438 7.23338 2.85193 8.18499 3.25665 9.08002" stroke="#EF0064" stroke-miterlimit="10" stroke-linecap="round" stroke-linejoin="round"/>
<path d="M15.0056 11.2462H8.99512V13.9821H15.0056V11.2462Z" stroke="#EF0064" stroke-miterlimit="10" stroke-linecap="round" stroke-linejoin="round"/>
<path d="M2.832 11.2462H1.8308C1.07855 11.2462 0.46875 11.8587 0.46875 12.6142C0.46875 13.3697 1.07855 13.9821 1.8308 13.9821H2.832V11.2462Z" stroke="#EF0064" stroke-miterlimit="10" stroke-linecap="round" stroke-linejoin="round"/>
<path d="M22.1694 11.2458H21.1682V13.9817H22.1694C22.9217 13.9817 23.5315 13.3693 23.5315 12.6138C23.5315 11.8583 22.9217 11.2458 22.1694 11.2458Z" stroke="#EF0064" stroke-miterlimit="10" stroke-linecap="round" stroke-linejoin="round"/>
<path d="M4.37247 16.5833C3.52155 16.5833 2.83179 15.8905 2.83179 15.0359V10.1921C2.83179 9.33751 3.52155 8.64474 4.37247 8.64474C5.22335 8.64474 5.91316 9.33751 5.91316 10.1921V15.0359C5.91316 15.8905 5.22335 16.5833 4.37247 16.5833Z" stroke="#EF0064" stroke-miterlimit="10" stroke-linecap="round" stroke-linejoin="round"/>
<path d="M7.45524 17.2359C6.60432 17.2359 5.91455 16.5431 5.91455 15.6885V9.54014C5.91455 8.68556 6.60432 7.99279 7.45524 7.99279C8.30611 7.99279 8.99593 8.68556 8.99593 9.54014V15.6885C8.99593 16.5431 8.30611 17.2359 7.45524 17.2359Z" stroke="#EF0064" stroke-miterlimit="10" stroke-linecap="round" stroke-linejoin="round"/>
<path d="M19.6261 8.64498C20.4771 8.64498 21.1668 9.33775 21.1668 10.1923V15.0362C21.1668 15.8907 20.4771 16.5835 19.6261 16.5835C18.7753 16.5835 18.0854 15.8907 18.0854 15.0362V10.1923C18.0854 9.33775 18.7753 8.64498 19.6261 8.64498Z" stroke="#EF0064" stroke-miterlimit="10" stroke-linecap="round" stroke-linejoin="round"/>
<path d="M16.5465 7.99279C17.3975 7.99279 18.0872 8.68556 18.0872 9.54014V15.6885C18.0872 16.5431 17.3975 17.2359 16.5465 17.2359C15.6956 17.2359 15.0059 16.5431 15.0059 15.6885V9.54014C15.0059 8.68556 15.6956 7.99279 16.5465 7.99279Z" stroke="#EF0064" stroke-miterlimit="10" stroke-linecap="round" stroke-linejoin="round"/>
</svg>
