<svg width="14" height="18" viewBox="0 0 14 18" fill="none" xmlns="http://www.w3.org/2000/svg">
<path d="M7 0C3.20049 0 0.109375 3.09111 0.109375 6.89062C0.109375 8.10682 0.430703 9.30252 1.03859 10.3484C1.1803 10.5923 1.33872 10.8299 1.50951 11.0547L6.70061 18H7.29936L12.4905 11.0547C12.6612 10.8299 12.8197 10.5923 12.9614 10.3485C13.5693 9.30252 13.8906 8.10682 13.8906 6.89062C13.8906 3.09111 10.7995 0 7 0ZM7 9.17578C5.73996 9.17578 4.71484 8.15066 4.71484 6.89062C4.71484 5.63059 5.73996 4.60547 7 4.60547C8.26004 4.60547 9.28516 5.63059 9.28516 6.89062C9.28516 8.15066 8.26004 9.17578 7 9.17578Z" fill="#060030"/>
</svg>
