<svg width="62" height="62" viewBox="0 0 62 62" fill="none" xmlns="http://www.w3.org/2000/svg">
<g id="8679875_logout_circle_line_icon 1" clip-path="url(#clip0_4822_9375)">
<g id="Group">
<path id="Vector" d="M12.9167 28.416H33.5833V33.5827H12.9167V41.3327L0 30.9994L12.9167 20.666V28.416ZM10.3333 46.4994H17.329C20.3119 49.1301 23.9906 50.8442 27.9236 51.436C31.8566 52.0278 35.8767 51.4721 39.5018 49.8357C43.1268 48.1993 46.2026 45.5517 48.3602 42.2105C50.5177 38.8694 51.6654 34.9766 51.6654 30.9994C51.6654 27.0221 50.5177 23.1293 48.3602 19.7882C46.2026 16.447 43.1268 13.7994 39.5018 12.163C35.8767 10.5266 31.8566 9.97095 27.9236 10.5628C23.9906 11.1546 20.3119 12.8687 17.329 15.4994H10.3333C12.7375 12.2887 15.8574 9.68301 19.4449 7.88922C23.0325 6.09544 26.989 5.16301 31 5.16602C45.2677 5.16602 56.8333 16.7316 56.8333 30.9994C56.8333 45.2671 45.2677 56.8327 31 56.8327C26.989 56.8357 23.0325 55.9033 19.4449 54.1095C15.8574 52.3157 12.7375 49.71 10.3333 46.4994Z" fill="#FC000F"/>
</g>
</g>
<defs>
<clipPath id="clip0_4822_9375">
<rect width="62" height="62" fill="white"/>
</clipPath>
</defs>
</svg>
