<svg width="24" height="24" viewBox="0 0 24 24" fill="none" xmlns="http://www.w3.org/2000/svg">
<g id="mail 1" clip-path="url(#clip0_3700_10416)">
<g id="Group">
<g id="Group_2">
<path id="Vector" d="M21.1046 0.744141H2.73598C2.53497 0.744141 2.34479 0.783359 2.16211 0.839858L11.9638 8.41587L21.6785 0.839858C21.4958 0.783359 21.3056 0.744141 21.1046 0.744141Z" fill="white"/>
</g>
</g>
<g id="Group_3">
<g id="Group_4">
<path id="Vector_2" d="M22.7539 1.65527L12.3554 9.75418C12.2394 9.84154 12.1016 9.88489 11.9639 9.88489C11.8262 9.88489 11.6885 9.84154 11.5724 9.75418L1.08691 1.65527C0.893301 1.95892 0.777344 2.31676 0.777344 2.70285V13.2365C0.777344 14.3166 1.65599 15.1953 2.73608 15.1953H11.8645C12.8748 12.8935 15.1697 11.2778 17.8401 11.2778C19.9289 11.2778 21.7709 12.2818 22.9669 13.8129C23.0239 13.6294 23.0634 13.4385 23.0634 13.2365V2.70285C23.0634 2.31676 22.9475 1.95892 22.7539 1.65527Z" fill="white"/>
</g>
</g>
<g id="Group_5">
<g id="Group_6">
<path id="Vector_3" d="M17.8395 12.5835C14.9547 12.5835 12.6162 14.922 12.6162 17.8068C12.6162 20.6916 14.9547 23.0301 17.8395 23.0301C20.7243 23.0301 23.0628 20.6916 23.0628 17.8068C23.0628 14.922 20.7243 12.5835 17.8395 12.5835ZM20.912 18.2692L18.954 20.2272C18.699 20.4822 18.2858 20.4822 18.0308 20.2272C17.7757 19.9722 17.7757 19.559 18.0308 19.3039L18.875 18.4597H15.2279C14.867 18.4597 14.5749 18.1677 14.5749 17.8068C14.5749 17.4459 14.867 17.1539 15.2279 17.1539H18.875L18.0308 16.3097C17.7757 16.0546 17.7757 15.6414 18.0308 15.3864C18.2858 15.1314 18.699 15.1314 18.954 15.3864L20.912 17.3444C21.1647 17.5964 21.1686 18.0132 20.912 18.2692Z" fill="white"/>
</g>
</g>
</g>
<defs>
<clipPath id="clip0_3700_10416">
<rect width="22.2861" height="22.2861" fill="white" transform="translate(0.776367 0.744141)"/>
</clipPath>
</defs>
</svg>
