<svg width="20" height="20" viewBox="0 0 20 20" fill="none" xmlns="http://www.w3.org/2000/svg">
<path d="M3.91494 15.4998H1.79469C2.00022 14.1456 2.68961 12.9118 3.73513 12.0269C4.78065 11.1421 6.11146 10.6661 7.481 10.6873H13.1873C14.2432 10.6748 15.2821 10.9544 16.1892 11.4952C17.0962 12.0361 17.8361 12.8172 18.327 13.7522C18.4106 13.9143 18.5552 14.0365 18.7289 14.092C18.8149 14.1195 18.9055 14.1298 18.9955 14.1223C19.0855 14.1147 19.1731 14.0896 19.2534 14.0482C19.3337 14.0068 19.405 13.95 19.4633 13.881C19.5216 13.812 19.5658 13.7323 19.5933 13.6462C19.6207 13.5602 19.631 13.4696 19.6235 13.3796C19.616 13.2896 19.5908 13.202 19.5494 13.1217C18.943 11.9619 18.0279 10.9923 16.905 10.32C15.7821 9.64777 14.4952 9.29901 13.1866 9.31231H7.48031C5.62721 9.28453 3.83868 9.99261 2.50678 11.2813C1.17488 12.5701 0.408277 14.3343 0.375 16.1873C0.375 16.3696 0.447433 16.5445 0.576364 16.6734C0.705295 16.8024 0.880164 16.8748 1.0625 16.8748H3.91494C4.09727 16.8748 4.27214 16.8024 4.40107 16.6734C4.53 16.5445 4.60244 16.3696 4.60244 16.1873C4.60244 16.005 4.53 15.8301 4.40107 15.7012C4.27214 15.5722 4.09727 15.4998 3.91494 15.4998Z" fill="black"/>
<path d="M18.9375 15.5004H16.5553L14.0116 11.6813C13.9448 11.581 13.8528 11.5001 13.7448 11.4466C13.6369 11.393 13.5168 11.3688 13.3965 11.3763C13.2763 11.3839 13.1601 11.4229 13.0597 11.4894C12.9592 11.556 12.878 11.6477 12.8242 11.7556L9.8845 17.6351L8.4875 15.7754C8.42346 15.69 8.34042 15.6207 8.24496 15.5729C8.1495 15.5252 8.04423 15.5004 7.9375 15.5004H6.5625C6.38016 15.5004 6.2053 15.5728 6.07636 15.7017C5.94743 15.8307 5.875 16.0055 5.875 16.1879C5.875 16.3702 5.94743 16.5451 6.07636 16.674C6.2053 16.8029 6.38016 16.8754 6.5625 16.8754H7.59375L9.45 19.3504C9.51404 19.4358 9.59708 19.5051 9.69254 19.5528C9.788 19.6005 9.89327 19.6254 10 19.6254H10.0619C10.178 19.6143 10.2895 19.5739 10.3857 19.5078C10.4819 19.4418 10.5598 19.3523 10.6119 19.2479L13.5193 13.4324L15.6121 16.5722C15.6755 16.6663 15.7613 16.7432 15.8617 16.7961C15.9621 16.849 16.074 16.8763 16.1875 16.8754H18.9375C19.1198 16.8754 19.2947 16.8029 19.4236 16.674C19.5526 16.5451 19.625 16.3702 19.625 16.1879C19.625 16.0055 19.5526 15.8307 19.4236 15.7017C19.2947 15.5728 19.1198 15.5004 18.9375 15.5004Z" fill="black"/>
<path d="M10 8.625C10.8158 8.625 11.6134 8.38307 12.2917 7.92981C12.9701 7.47655 13.4988 6.83232 13.811 6.07857C14.1232 5.32483 14.2049 4.49543 14.0457 3.69525C13.8866 2.89508 13.4937 2.16008 12.9168 1.58319C12.3399 1.00629 11.6049 0.613427 10.8047 0.454263C10.0046 0.295099 9.17518 0.376787 8.42143 0.688999C7.66769 1.00121 7.02345 1.52992 6.57019 2.20827C6.11693 2.88663 5.875 3.68415 5.875 4.5C5.87609 5.59368 6.31104 6.64226 7.08439 7.41561C7.85774 8.18896 8.90632 8.62391 10 8.625ZM10 1.75C10.5439 1.75 11.0756 1.91129 11.5278 2.21346C11.9801 2.51563 12.3325 2.94513 12.5407 3.44762C12.7488 3.95012 12.8033 4.50305 12.6972 5.0365C12.5911 5.56995 12.3291 6.05995 11.9445 6.44455C11.5599 6.82914 11.0699 7.09105 10.5365 7.19716C10.0031 7.30327 9.45012 7.24881 8.94762 7.04067C8.44512 6.83253 8.01563 6.48005 7.71346 6.02782C7.41128 5.57558 7.25 5.0439 7.25 4.5C7.25 3.77066 7.53973 3.07118 8.05546 2.55546C8.57118 2.03973 9.27065 1.75 10 1.75Z" fill="black"/>
</svg>
