<svg width="22" height="16" viewBox="0 0 22 16" fill="none" xmlns="http://www.w3.org/2000/svg">
<path d="M19.5938 0.4375H2.40625C1.07946 0.4375 0 1.51696 0 2.84375V13.1562C0 14.483 1.07946 15.5625 2.40625 15.5625H19.5938C20.9205 15.5625 22 14.483 22 13.1562V2.84375C22 1.51696 20.9205 0.4375 19.5938 0.4375ZM2.40625 1.8125H19.5938C20.1624 1.8125 20.625 2.27514 20.625 2.84375V4.21875H1.375V2.84375C1.375 2.27514 1.83764 1.8125 2.40625 1.8125ZM19.5938 14.1875H2.40625C1.83764 14.1875 1.375 13.7249 1.375 13.1562V5.59375H20.625V13.1562C20.625 13.7249 20.1624 14.1875 19.5938 14.1875Z" fill="black"/>
</svg>
