<svg width="15" height="19" viewBox="0 0 15 19" fill="none" xmlns="http://www.w3.org/2000/svg">
<path d="M11.7575 0.879883H2.58803C1.1765 0.879883 0.0322266 2.02416 0.0322266 3.43568V15.6485C0.0322266 17.06 1.1765 18.2043 2.58803 18.2043H11.7575C13.169 18.2043 14.3133 17.06 14.3133 15.6485V3.43568C14.3133 2.02416 13.169 0.879883 11.7575 0.879883ZM5.06123 5.71428H9.28421C9.60994 5.71401 9.8742 5.97789 9.87447 6.30362C9.87474 6.62936 9.61087 6.89365 9.28513 6.89388C9.28483 6.89388 9.28452 6.89388 9.28421 6.89388H5.06123C4.7355 6.89388 4.47143 6.62982 4.47143 6.30408C4.47143 5.97835 4.7355 5.71428 5.06123 5.71428ZM10.8039 13.3699H3.54153C3.2158 13.3699 2.95174 13.1058 2.95174 12.7801C2.95174 12.4544 3.2158 12.1903 3.54153 12.1903H10.8039C11.1297 12.1903 11.3937 12.4544 11.3937 12.7801C11.3937 13.1058 11.1297 13.3699 10.8039 13.3699ZM10.8039 10.1319H3.54153C3.2158 10.1319 2.95174 9.8678 2.95174 9.54207C2.95174 9.21634 3.2158 8.95227 3.54153 8.95227H10.8039C11.1297 8.95227 11.3937 9.21634 11.3937 9.54207C11.3937 9.8678 11.1297 10.1319 10.8039 10.1319Z" fill="#D8D8F1"/>
</svg>
