<svg width="16" height="16" viewBox="0 0 16 16" fill="none" xmlns="http://www.w3.org/2000/svg">
<path d="M9.04336 4.52168C9.04336 2.02422 7.01913 0 4.52168 0C2.02422 0 0 2.02422 0 4.52168C0 6.74741 1.61816 8.6434 3.81946 8.9884V12.0812H2.13108V13.4887H3.81641V15.2656H5.2239V13.4887H6.90922V12.0812H5.2239V8.9884C7.42215 8.64034 9.04336 6.74741 9.04336 4.52168ZM1.40749 4.52168C1.40749 2.80277 2.80277 1.40749 4.52168 1.40749C6.24059 1.40749 7.63587 2.80277 7.63587 4.52168C7.63587 6.24059 6.24059 7.63586 4.52168 7.63586C2.80277 7.63281 1.40749 6.24059 1.40749 4.52168Z" fill="#05C882"/>
<path d="M15.632 4.52168C15.632 2.02422 13.6077 0 11.1103 0C10.173 0 9.26009 0.290047 8.49681 0.83045C8.81739 1.17545 9.09217 1.56015 9.312 1.97537C10.7164 0.983106 12.6613 1.3159 13.6535 2.72033C14.6458 4.12477 14.313 6.06961 12.9086 7.06188C11.8339 7.82211 10.3989 7.82211 9.32115 7.06798C9.10133 7.48321 8.8296 7.87096 8.50902 8.21596C9.07385 8.61592 9.72417 8.87849 10.4081 8.98535V12.0812H8.72274V13.4887H10.4111V15.2656H11.8186V13.4887H13.5039V12.0812H11.8186V8.9884C14.0108 8.64034 15.632 6.74741 15.632 4.52168Z" fill="#05C882"/>
</svg>
