<svg width="20" height="20" viewBox="0 0 20 20" fill="none" xmlns="http://www.w3.org/2000/svg">
<g id="privacy-policy 1">
<g id="Layer 2">
<path id="Vector" d="M10 18.9302C9.70918 18.9305 9.42223 18.8632 9.16183 18.7337L5.9058 17.1056C4.69168 16.5037 3.67049 15.5737 2.95806 14.421C2.24562 13.2682 1.87043 11.9389 1.87504 10.5838V5.83976C1.87406 5.31143 2.05629 4.7991 2.39069 4.39006C2.72509 3.98103 3.19096 3.70058 3.70894 3.59651C4.4963 3.44211 5.26446 3.20225 5.99978 2.88118C6.92754 2.47555 7.79484 1.94373 8.57708 1.30078C8.97851 0.972385 9.48118 0.792969 9.99981 0.792969C10.5185 0.792969 11.0211 0.972385 11.4225 1.30078C12.2052 1.94365 13.0728 2.4756 14.0007 2.88161C14.736 3.20254 15.5042 3.44226 16.2915 3.59654C16.8093 3.70082 17.275 3.98132 17.6093 4.39032C17.9436 4.79931 18.1259 5.31152 18.125 5.83976V10.5838C18.1296 11.9389 17.7544 13.2682 17.042 14.4209C16.3295 15.5736 15.3084 16.5037 14.0943 17.1056L10.8383 18.7337C10.5779 18.8633 10.2909 18.9305 10 18.9302ZM10 2.04216C9.77041 2.04183 9.54778 2.12122 9.37016 2.26676C8.49903 2.98258 7.5333 3.57478 6.50028 4.02661C5.6814 4.38417 4.8259 4.65119 3.94902 4.82291C3.7153 4.87102 3.50547 4.99863 3.35524 5.18403C3.20501 5.36942 3.12366 5.60114 3.12504 5.83976V10.5838C3.12118 11.7066 3.43204 12.8081 4.02236 13.7632C4.61269 14.7183 5.45885 15.4888 6.46488 15.9875L9.7205 17.6155C9.8075 17.6584 9.90322 17.6808 10.0002 17.6808C10.0973 17.6808 10.193 17.6584 10.28 17.6155L13.536 15.9875C14.5419 15.4887 15.3878 14.7181 15.978 13.763C16.5682 12.8079 16.8789 11.7065 16.875 10.5838V5.83976C16.8764 5.60108 16.795 5.36931 16.6447 5.18391C16.4944 4.9985 16.2845 4.87093 16.0507 4.82291C15.1741 4.65113 14.3189 4.38424 13.5002 4.02699C12.467 3.57496 11.501 2.98264 10.6295 2.26674C10.4521 2.12115 10.2296 2.04176 10 2.04216Z" fill="#9CB1C5"/>
<path id="Vector_2" d="M10.8346 13.4378H10.0013C9.83556 13.4378 9.67661 13.3719 9.55941 13.2547C9.44221 13.1375 9.37635 12.9786 9.3763 12.8128V10.1045H9.16797C9.00221 10.1045 8.84324 10.0386 8.72603 9.92143C8.60882 9.80422 8.54297 9.64525 8.54297 9.47949C8.54297 9.31373 8.60882 9.15476 8.72603 9.03755C8.84324 8.92034 9.00221 8.85449 9.16797 8.85449H10.0013C10.167 8.85454 10.326 8.9204 10.4432 9.0376C10.5604 9.1548 10.6263 9.31375 10.6263 9.47949V12.1878H10.8346C11.0004 12.1878 11.1594 12.2537 11.2766 12.3709C11.3938 12.4881 11.4596 12.6471 11.4596 12.8128C11.4596 12.9786 11.3938 13.1376 11.2766 13.2548C11.1594 13.372 11.0004 13.4378 10.8346 13.4378Z" fill="#9CB1C5"/>
<path id="Vector_3" d="M10 7.60449C10.5178 7.60449 10.9375 7.18476 10.9375 6.66699C10.9375 6.14923 10.5178 5.72949 10 5.72949C9.48223 5.72949 9.0625 6.14923 9.0625 6.66699C9.0625 7.18476 9.48223 7.60449 10 7.60449Z" fill="#9CB1C5"/>
</g>
</g>
</svg>
