<svg width="24" height="24" viewBox="0 0 24 24" fill="none" xmlns="http://www.w3.org/2000/svg">
<g id="resume 1">
<path id="Vector" d="M16.854 4.147C16.8076 4.10042 16.7524 4.06346 16.6916 4.03823C16.6309 4.01301 16.5658 4.00001 16.5 4H8.5C7.83696 4 7.20107 4.26339 6.73223 4.73223C6.26339 5.20107 6 5.83696 6 6.5V18.5C6 19.163 6.26339 19.7989 6.73223 20.2678C7.20107 20.7366 7.83696 21 8.5 21H18.5C19.163 21 19.7989 20.7366 20.2678 20.2678C20.7366 19.7989 21 19.163 21 18.5V8.5C21 8.43423 20.987 8.3691 20.9618 8.30835C20.9365 8.24761 20.8996 8.19244 20.853 8.146L16.854 4.147ZM17 5.707L19.293 8H18.5C18.1022 8 17.7206 7.84196 17.4393 7.56066C17.158 7.27936 17 6.89782 17 6.5V5.707ZM20 18.5C20 18.8978 19.842 19.2794 19.5607 19.5607C19.2794 19.842 18.8978 20 18.5 20H8.5C8.10218 20 7.72064 19.842 7.43934 19.5607C7.15804 19.2794 7 18.8978 7 18.5V6.5C7 6.10218 7.15804 5.72064 7.43934 5.43934C7.72064 5.15804 8.10218 5 8.5 5H16V6.5C16 7.16304 16.2634 7.79893 16.7322 8.26777C17.2011 8.73661 17.837 9 18.5 9H20V18.5ZM9 11C9.13261 11 9.25979 10.9473 9.35355 10.8536C9.44732 10.7598 9.5 10.6326 9.5 10.5C9.5 10.2348 9.60536 9.98043 9.79289 9.79289C9.98043 9.60536 10.2348 9.5 10.5 9.5C10.7652 9.5 11.0196 9.60536 11.2071 9.79289C11.3946 9.98043 11.5 10.2348 11.5 10.5C11.5 10.6326 11.5527 10.7598 11.6464 10.8536C11.7402 10.9473 11.8674 11 12 11C12.1326 11 12.2598 10.9473 12.3536 10.8536C12.4473 10.7598 12.5 10.6326 12.5 10.5C12.499 10.2043 12.432 9.91252 12.304 9.64595C12.176 9.37937 11.9901 9.14469 11.76 8.959C11.9983 8.71177 12.1586 8.3999 12.2209 8.06223C12.2833 7.72456 12.2449 7.37601 12.1106 7.06C11.9762 6.74399 11.7519 6.47447 11.4655 6.28502C11.1792 6.09556 10.8434 5.99455 10.5 5.99455C10.1566 5.99455 9.82084 6.09556 9.53446 6.28502C9.24808 6.47447 9.02376 6.74399 8.88944 7.06C8.75512 7.37601 8.71674 7.72456 8.77908 8.06223C8.84141 8.3999 9.00171 8.71177 9.24 8.959C9.00986 9.14469 8.82402 9.37937 8.696 9.64595C8.56799 9.91252 8.50103 10.2043 8.5 10.5C8.5 10.6326 8.55268 10.7598 8.64645 10.8536C8.74021 10.9473 8.86739 11 9 11ZM10.5 7C10.6483 7 10.7933 7.04399 10.9167 7.1264C11.04 7.20881 11.1361 7.32594 11.1929 7.46299C11.2497 7.60003 11.2645 7.75083 11.2356 7.89632C11.2067 8.0418 11.1352 8.17544 11.0303 8.28033C10.9254 8.38522 10.7918 8.45665 10.6463 8.48559C10.5008 8.51453 10.35 8.49967 10.213 8.44291C10.0759 8.38614 9.95881 8.29001 9.8764 8.16668C9.79399 8.04334 9.75 7.89834 9.75 7.75C9.75 7.55109 9.82902 7.36032 9.96967 7.21967C10.1103 7.07902 10.3011 7 10.5 7ZM18.5 10.5C18.5 10.6326 18.4473 10.7598 18.3536 10.8536C18.2598 10.9473 18.1326 11 18 11H14.5C14.3674 11 14.2402 10.9473 14.1464 10.8536C14.0527 10.7598 14 10.6326 14 10.5C14 10.3674 14.0527 10.2402 14.1464 10.1464C14.2402 10.0527 14.3674 10 14.5 10H18C18.1326 10 18.2598 10.0527 18.3536 10.1464C18.4473 10.2402 18.5 10.3674 18.5 10.5ZM18.5 13C18.5 13.1326 18.4473 13.2598 18.3536 13.3536C18.2598 13.4473 18.1326 13.5 18 13.5H9C8.86739 13.5 8.74021 13.4473 8.64645 13.3536C8.55268 13.2598 8.5 13.1326 8.5 13C8.5 12.8674 8.55268 12.7402 8.64645 12.6464C8.74021 12.5527 8.86739 12.5 9 12.5H18C18.1326 12.5 18.2598 12.5527 18.3536 12.6464C18.4473 12.7402 18.5 12.8674 18.5 13ZM18.5 15.5C18.5 15.6326 18.4473 15.7598 18.3536 15.8536C18.2598 15.9473 18.1326 16 18 16H9C8.86739 16 8.74021 15.9473 8.64645 15.8536C8.55268 15.7598 8.5 15.6326 8.5 15.5C8.5 15.3674 8.55268 15.2402 8.64645 15.1464C8.74021 15.0527 8.86739 15 9 15H18C18.1326 15 18.2598 15.0527 18.3536 15.1464C18.4473 15.2402 18.5 15.3674 18.5 15.5ZM18.5 18C18.5 18.1326 18.4473 18.2598 18.3536 18.3536C18.2598 18.4473 18.1326 18.5 18 18.5H9C8.86739 18.5 8.74021 18.4473 8.64645 18.3536C8.55268 18.2598 8.5 18.1326 8.5 18C8.5 17.8674 8.55268 17.7402 8.64645 17.6464C8.74021 17.5527 8.86739 17.5 9 17.5H18C18.1326 17.5 18.2598 17.5527 18.3536 17.6464C18.4473 17.7402 18.5 17.8674 18.5 18Z" fill="#F3F9FF"/>
</g>
</svg>
