<svg width="20" height="20" viewBox="0 0 20 20" fill="none" xmlns="http://www.w3.org/2000/svg">
<g id="right-arrow 12" clip-path="url(#clip0_3935_10174)">
<g id="Group">
<g id="Group_2">
<path id="Vector" d="M0.673229 9.57643L0.672947 9.57671C0.561289 9.68819 0.49964 9.8363 0.500004 9.999L0.499998 10.0015C0.499552 10.1624 0.560858 10.3106 0.673061 10.423C0.673107 10.423 0.673155 10.4231 0.673201 10.4231L7.89577 17.6457C8.00793 17.7578 8.15544 17.8192 8.31619 17.8192C8.47899 17.8192 8.62583 17.7581 8.73678 17.6471L8.73731 17.6466L9.39255 16.9933C9.39261 16.9933 9.39267 16.9932 9.39273 16.9931C9.50551 16.8803 9.56561 16.7359 9.56561 16.5766C9.56561 16.419 9.50689 16.278 9.39274 16.1636C9.39263 16.1635 9.39252 16.1633 9.39241 16.1632L5.1319 11.9175L4.27475 11.0633H5.48483H18.9195C19.2218 11.0633 19.5 10.7929 19.5 10.4395V9.51215C19.5 9.18716 19.2496 8.93589 18.9195 8.93589H5.53264H4.3274L5.1787 8.08273L9.39232 3.85984L9.39285 3.85931C9.50122 3.75102 9.56577 3.5957 9.56577 3.42992C9.56577 3.26841 9.5043 3.12099 9.39285 3.00963L9.39266 3.00945L8.73708 2.3537C8.62528 2.24199 8.47802 2.18066 8.31635 2.18066C8.15484 2.18066 8.00755 2.24194 7.89594 2.35356L0.673229 9.57643Z" fill="#4C505F" stroke="#F5F5FD"/>
</g>
</g>
</g>
<defs>
<clipPath id="clip0_3935_10174">
<rect width="20" height="20" fill="white" transform="matrix(-1 0 0 1 20 0)"/>
</clipPath>
</defs>
</svg>
