<svg width="1440" height="845" viewBox="0 0 1440 845" fill="none" xmlns="http://www.w3.org/2000/svg">
<g clip-path="url(#clip0_1206_748)">
<circle cx="1018" cy="296" r="96" fill="#E9E7FF"/>
<circle cx="422" cy="1006" r="197" stroke="#E9E7FF" stroke-width="120"/>
<path d="M1180 823.314V845H1323.88C1324.17 818.543 1330.12 793.424 1340.52 770.834C1345.27 760.497 1351 750.666 1357.53 741.486C1380.37 709.318 1413.44 684.813 1451.99 672.705C1468.74 667.428 1486.54 664.501 1505 664.284V520C1451.88 520.325 1401.77 533.265 1357.53 555.926C1351.56 558.986 1345.7 562.215 1339.94 565.613C1295.13 592.142 1257.2 629.008 1229.46 672.886C1201.54 717.053 1183.95 768.304 1180 823.314Z" fill="#887DFF"/>
<circle cx="1211.36" cy="695.116" r="23.3638" fill="#EAFFEC"/>
<circle cx="1211.36" cy="695.116" r="23.3638" fill="#FFEAFE"/>
<g filter="url(#filter0_d_1206_748)">
<path d="M1143 674C1143 664.059 1151.06 656 1161 656H1263C1272.94 656 1281 664.059 1281 674V751C1281 760.941 1272.94 769 1263 769H1161C1151.06 769 1143 760.941 1143 751V674Z" fill="white"/>
</g>
<circle cx="1211.36" cy="695.116" r="23.3638" fill="#F6F3FF"/>
<path d="M1200.08 692.096L1203.28 693.496C1203.34 693.524 1203.4 693.533 1203.46 693.533C1203.57 693.533 1203.67 693.496 1203.76 693.431C1203.89 693.323 1203.96 693.146 1203.92 692.973L1203.61 691.429L1205.65 692.11C1205.9 692.194 1206.16 692.059 1206.25 691.816C1206.32 691.573 1206.19 691.307 1205.95 691.223L1203.15 690.29C1202.99 690.239 1202.82 690.271 1202.69 690.383C1202.57 690.495 1202.51 690.663 1202.54 690.827L1202.83 692.283L1200.45 691.242C1200.22 691.139 1199.94 691.247 1199.84 691.48C1199.74 691.718 1199.84 691.993 1200.08 692.096Z" fill="#5D35E9"/>
<path d="M1203.46 698.9C1203.57 698.9 1203.67 698.863 1203.76 698.797C1203.89 698.69 1203.96 698.513 1203.92 698.34L1203.61 696.8L1205.65 697.481C1205.9 697.565 1206.16 697.43 1206.24 697.187C1206.32 696.945 1206.19 696.679 1205.95 696.595L1203.15 695.661C1202.99 695.61 1202.82 695.643 1202.69 695.755C1202.56 695.867 1202.51 696.035 1202.54 696.198L1202.83 697.654L1200.45 696.609C1200.22 696.506 1199.94 696.613 1199.84 696.847C1199.74 697.085 1199.84 697.36 1200.08 697.463L1203.27 698.863C1203.33 698.891 1203.4 698.9 1203.46 698.9Z" fill="#5D35E9"/>
<path d="M1214.39 682.8C1210.72 682.884 1208.72 684.695 1207.69 686.197C1207.51 686.463 1207.34 686.748 1207.19 687.042C1206.48 688.451 1206.26 690.15 1206.58 691.821C1207.04 694.247 1206.74 697.971 1206.33 702.227V702.274C1206.33 704.197 1208.21 704.864 1208.3 704.892C1208.96 705.093 1209.61 705.195 1210.25 705.195C1211.03 705.195 1211.79 705.041 1212.5 704.733C1213.48 704.304 1214.29 703.52 1214.77 702.521L1215.96 700.053C1216.38 699.185 1217.03 698.429 1217.82 697.869L1218.66 697.281C1220.21 696.189 1221.35 694.672 1221.86 693.001C1222.7 690.229 1221.74 687.971 1221.71 687.896C1219.75 682.739 1214.44 682.795 1214.39 682.8ZM1220.96 692.735C1220.52 694.205 1219.51 695.549 1218.12 696.52L1217.29 697.108C1216.36 697.761 1215.61 698.639 1215.12 699.651L1213.93 702.12C1213.55 702.918 1212.91 703.543 1212.13 703.879C1211.04 704.351 1209.85 704.393 1208.59 704.005C1208.54 703.987 1207.28 703.529 1207.26 702.293C1207.68 697.971 1207.98 694.187 1207.5 691.643C1207.22 690.173 1207.41 688.689 1208.03 687.462C1208.16 687.205 1208.3 686.958 1208.46 686.725C1209.78 684.797 1211.78 683.789 1214.41 683.733C1214.46 683.738 1219.1 683.682 1220.84 688.251C1220.86 688.269 1221.7 690.299 1220.96 692.735Z" fill="#5D35E9"/>
<path d="M1216.06 685.903C1211.88 684.569 1210.19 688.055 1209.78 689.151C1209.56 689.735 1209.54 690.346 1209.73 690.873L1209.74 690.906C1210.02 691.681 1210.78 692.161 1211.62 692.105C1213.66 691.97 1213.81 693.179 1213.83 693.356C1214.14 695.433 1210.83 696.506 1210.79 696.52C1210.77 696.529 1210.75 696.534 1210.73 696.548C1210.48 696.674 1210.25 696.828 1210.05 697.001C1209.18 697.785 1208.98 698.984 1209.53 700.053C1210 700.939 1210.86 701.462 1211.81 701.462C1212.01 701.462 1212.21 701.439 1212.41 701.392C1212.81 701.299 1213.14 701.033 1213.34 700.664L1214.83 697.859C1215.14 697.267 1215.6 696.749 1216.13 696.361C1218.87 694.378 1219.19 692.264 1219.23 691.919C1219.7 689.805 1219.09 688.391 1218.49 687.569C1217.93 686.804 1217.09 686.23 1216.06 685.903ZM1218.31 691.741C1218.31 691.765 1218.3 691.793 1218.3 691.816C1218.3 691.895 1218.13 693.762 1215.59 695.605C1214.93 696.077 1214.39 696.707 1214.01 697.421L1212.52 700.225C1212.45 700.356 1212.33 700.449 1212.18 700.487C1211.28 700.697 1210.65 700.151 1210.37 699.619C1210.09 699.101 1210.02 698.289 1210.68 697.691C1210.8 697.579 1210.95 697.481 1211.11 697.397C1211.55 697.253 1215.17 695.969 1214.76 693.263C1214.75 693.179 1214.69 692.432 1214.02 691.839C1213.44 691.331 1212.61 691.111 1211.56 691.177C1211.14 691.2 1210.76 690.967 1210.62 690.589L1210.61 690.561C1210.5 690.243 1210.51 689.861 1210.65 689.483C1211.2 688.041 1212.6 685.773 1215.79 686.79C1216.62 687.056 1217.3 687.518 1217.74 688.12C1218.45 689.091 1218.64 690.309 1218.31 691.741Z" fill="#5D35E9"/>
<path d="M1188.2 732.093V736.909H1181.77V732.093H1180.17V743.293H1181.77V738.301H1188.2V743.293H1189.8V732.093H1188.2ZM1200.6 739.101C1200.6 736.493 1198.85 734.733 1196.4 734.733C1193.96 734.733 1192.15 736.541 1192.15 739.053C1192.15 741.581 1193.97 743.389 1196.71 743.389C1198.12 743.389 1199.28 742.909 1200.05 742.013L1199.2 741.021C1198.58 741.709 1197.75 742.045 1196.76 742.045C1195.08 742.045 1193.88 741.053 1193.68 739.565H1200.56C1200.58 739.421 1200.6 739.229 1200.6 739.101ZM1196.4 736.029C1197.89 736.029 1198.96 737.037 1199.12 738.461H1193.68C1193.84 737.021 1194.93 736.029 1196.4 736.029ZM1205.58 734.733C1204.22 734.733 1202.96 735.117 1202.08 735.821L1202.72 736.973C1203.38 736.413 1204.4 736.061 1205.41 736.061C1206.93 736.061 1207.68 736.813 1207.68 738.109V738.413H1205.25C1202.72 738.413 1201.84 739.533 1201.84 740.893C1201.84 742.365 1203.06 743.389 1204.98 743.389C1206.3 743.389 1207.25 742.941 1207.76 742.173V743.293H1209.22V738.173C1209.22 735.853 1207.9 734.733 1205.58 734.733ZM1205.23 742.205C1204.06 742.205 1203.36 741.677 1203.36 740.829C1203.36 740.109 1203.79 739.517 1205.31 739.517H1207.68V740.701C1207.3 741.677 1206.38 742.205 1205.23 742.205ZM1213.53 736.237V734.813H1212.06V743.293H1213.59V739.069C1213.59 737.213 1214.62 736.205 1216.27 736.205C1216.38 736.205 1216.49 736.205 1216.62 736.221V734.733C1215.13 734.733 1214.07 735.245 1213.53 736.237ZM1219.28 733.181C1219.89 733.181 1220.32 732.733 1220.32 732.157C1220.32 731.613 1219.87 731.181 1219.28 731.181C1218.69 731.181 1218.24 731.629 1218.24 732.189C1218.24 732.749 1218.69 733.181 1219.28 733.181ZM1218.51 743.293H1220.05V734.813H1218.51V743.293ZM1227.51 734.733C1226.16 734.733 1225.08 735.229 1224.45 736.093V734.813H1222.98V743.293H1224.52V738.925C1224.52 737.085 1225.57 736.109 1227.2 736.109C1228.66 736.109 1229.49 736.925 1229.49 738.589V743.293H1231.03V738.413C1231.03 735.917 1229.57 734.733 1227.51 734.733ZM1240.57 734.813V736.125C1239.85 735.197 1238.7 734.733 1237.44 734.733C1234.99 734.733 1233.13 736.381 1233.13 738.829C1233.13 741.277 1234.99 742.941 1237.44 742.941C1238.65 742.941 1239.76 742.509 1240.49 741.629V742.301C1240.49 744.221 1239.58 745.149 1237.58 745.149C1236.33 745.149 1235.1 744.717 1234.32 744.045L1233.58 745.229C1234.51 746.061 1236.08 746.493 1237.63 746.493C1240.51 746.493 1242.03 745.133 1242.03 742.141V734.813H1240.57ZM1237.61 741.597C1235.9 741.597 1234.68 740.461 1234.68 738.829C1234.68 737.181 1235.9 736.077 1237.61 736.077C1239.31 736.077 1240.52 737.181 1240.52 738.829C1240.52 740.461 1239.31 741.597 1237.61 741.597Z" fill="#060030"/>
<circle cx="1278.35" cy="576.323" r="19.3059" fill="#EAFFEC"/>
<g filter="url(#filter1_d_1206_748)">
<path d="M1245 558.874C1245 550.659 1251.66 544 1259.87 544H1371.13C1379.34 544 1386 550.659 1386 558.874V597.126C1386 605.341 1379.34 612 1371.13 612H1259.87C1251.66 612 1245 605.341 1245 597.126V558.874Z" fill="white"/>
</g>
<circle cx="1278.35" cy="576.323" r="19.3059" fill="#FFEAFE"/>
<path d="M1315.02 580.137H1321.35V578.986H1316.34V570.882H1315.02V580.137ZM1323.31 571.781C1323.82 571.781 1324.17 571.411 1324.17 570.935C1324.17 570.485 1323.8 570.128 1323.31 570.128C1322.83 570.128 1322.46 570.499 1322.46 570.961C1322.46 571.424 1322.83 571.781 1323.31 571.781ZM1322.68 580.137H1323.95V573.13H1322.68V580.137ZM1328.94 571.292C1329.31 571.292 1329.65 571.424 1329.92 571.622L1330.3 570.657C1329.94 570.38 1329.41 570.247 1328.87 570.247C1327.38 570.247 1326.56 571.146 1326.56 572.508V573.13H1325.37V574.174H1326.56V580.137H1327.83V574.174H1329.84V573.13H1327.8V572.521C1327.8 571.715 1328.18 571.292 1328.94 571.292ZM1337.26 576.673C1337.26 574.518 1335.82 573.063 1333.8 573.063C1331.78 573.063 1330.28 574.557 1330.28 576.633C1330.28 578.722 1331.79 580.216 1334.05 580.216C1335.21 580.216 1336.18 579.819 1336.81 579.079L1336.11 578.259C1335.6 578.828 1334.91 579.105 1334.09 579.105C1332.7 579.105 1331.71 578.286 1331.55 577.056H1337.24C1337.25 576.937 1337.26 576.779 1337.26 576.673ZM1333.8 574.134C1335.03 574.134 1335.91 574.967 1336.05 576.144H1331.55C1331.68 574.954 1332.58 574.134 1333.8 574.134ZM1341.04 580.216C1342.9 580.216 1344.06 579.41 1344.06 578.14C1344.06 575.417 1339.62 576.765 1339.62 575.113C1339.62 574.557 1340.16 574.148 1341.27 574.148C1341.96 574.148 1342.66 574.293 1343.3 574.703L1343.84 573.698C1343.23 573.301 1342.2 573.063 1341.29 573.063C1339.49 573.063 1338.36 573.91 1338.36 575.166C1338.36 577.955 1342.79 576.593 1342.79 578.167C1342.79 578.762 1342.3 579.119 1341.13 579.119C1340.22 579.119 1339.26 578.815 1338.67 578.392L1338.14 579.396C1338.72 579.859 1339.87 580.216 1341.04 580.216ZM1349.19 578.815C1348.93 579.026 1348.57 579.145 1348.2 579.145C1347.5 579.145 1347.1 578.722 1347.1 577.968V574.174H1349.11V573.13H1347.1V571.596H1345.83V573.13H1344.64V574.174H1345.83V578.021C1345.83 579.436 1346.64 580.216 1348.06 580.216C1348.62 580.216 1349.21 580.057 1349.59 579.727L1349.19 578.815ZM1355.95 573.13L1353.53 578.735L1351.09 573.13H1349.76L1352.86 580.123L1352.63 580.613C1352.29 581.419 1351.91 581.697 1351.3 581.697C1350.82 581.697 1350.39 581.512 1350.04 581.181L1349.5 582.133C1349.94 582.556 1350.62 582.781 1351.3 582.781C1352.37 582.781 1353.18 582.318 1353.8 580.837L1357.19 573.13H1355.95ZM1358.38 580.137H1359.65V570.327H1358.38V580.137ZM1368.4 576.673C1368.4 574.518 1366.96 573.063 1364.94 573.063C1362.92 573.063 1361.42 574.557 1361.42 576.633C1361.42 578.722 1362.93 580.216 1365.19 580.216C1366.36 580.216 1367.32 579.819 1367.96 579.079L1367.25 578.259C1366.74 578.828 1366.05 579.105 1365.23 579.105C1363.84 579.105 1362.85 578.286 1362.69 577.056H1368.38C1368.39 576.937 1368.4 576.779 1368.4 576.673ZM1364.94 574.134C1366.17 574.134 1367.06 574.967 1367.19 576.144H1362.69C1362.83 574.954 1363.72 574.134 1364.94 574.134Z" fill="#060030"/>
<mask id="mask0_1206_748" style="mask-type:luminance" maskUnits="userSpaceOnUse" x="1267" y="564" width="24" height="24">
<path d="M1267 564H1291V588H1267V564Z" fill="white"/>
</mask>
<g mask="url(#mask0_1206_748)">
<path d="M1276.04 581.697C1277.68 582.886 1279.01 583.779 1279.01 583.779C1279.01 583.779 1280.32 582.893 1281.96 581.709" stroke="#EF0064" stroke-miterlimit="10" stroke-linecap="round" stroke-linejoin="round"/>
<path d="M1287.75 576.08C1288.15 575.184 1288.4 574.234 1288.34 573.017C1288.2 570.14 1286.1 567.764 1283.52 567.764C1280.99 567.764 1279 569.876 1279 569.876C1279 569.876 1277.13 567.764 1274.48 567.764C1271.9 567.764 1269.8 570.14 1269.66 573.017C1269.6 574.233 1269.85 575.185 1270.26 576.08" stroke="#EF0064" stroke-miterlimit="10" stroke-linecap="round" stroke-linejoin="round"/>
<path d="M1282.01 578.246H1276V580.982H1282.01V578.246Z" stroke="#EF0064" stroke-miterlimit="10" stroke-linecap="round" stroke-linejoin="round"/>
<path d="M1269.83 578.246H1268.83C1268.08 578.246 1267.47 578.859 1267.47 579.614C1267.47 580.37 1268.08 580.982 1268.83 580.982H1269.83V578.246Z" stroke="#EF0064" stroke-miterlimit="10" stroke-linecap="round" stroke-linejoin="round"/>
<path d="M1289.17 578.246H1288.17V580.982H1289.17C1289.92 580.982 1290.53 580.369 1290.53 579.614C1290.53 578.858 1289.92 578.246 1289.17 578.246Z" stroke="#EF0064" stroke-miterlimit="10" stroke-linecap="round" stroke-linejoin="round"/>
<path d="M1271.37 583.583C1270.52 583.583 1269.83 582.89 1269.83 582.036V577.192C1269.83 576.338 1270.52 575.645 1271.37 575.645C1272.22 575.645 1272.91 576.338 1272.91 577.192V582.036C1272.91 582.89 1272.22 583.583 1271.37 583.583Z" stroke="#EF0064" stroke-miterlimit="10" stroke-linecap="round" stroke-linejoin="round"/>
<path d="M1274.45 584.236C1273.6 584.236 1272.91 583.543 1272.91 582.688V576.54C1272.91 575.686 1273.6 574.993 1274.45 574.993C1275.31 574.993 1276 575.686 1276 576.54V582.688C1276 583.543 1275.31 584.236 1274.45 584.236Z" stroke="#EF0064" stroke-miterlimit="10" stroke-linecap="round" stroke-linejoin="round"/>
<path d="M1286.63 575.645C1287.48 575.645 1288.17 576.338 1288.17 577.192V582.036C1288.17 582.891 1287.48 583.583 1286.63 583.583C1285.78 583.583 1285.09 582.891 1285.09 582.036V577.192C1285.09 576.338 1285.78 575.645 1286.63 575.645Z" stroke="#EF0064" stroke-miterlimit="10" stroke-linecap="round" stroke-linejoin="round"/>
<path d="M1283.55 574.993C1284.4 574.993 1285.09 575.686 1285.09 576.54V582.689C1285.09 583.543 1284.4 584.236 1283.55 584.236C1282.7 584.236 1282.01 583.543 1282.01 582.689V576.54C1282.01 575.686 1282.7 574.993 1283.55 574.993Z" stroke="#EF0064" stroke-miterlimit="10" stroke-linecap="round" stroke-linejoin="round"/>
</g>
<circle cx="-27" cy="364" r="197" stroke="#E9E7FF" stroke-width="120"/>
<g filter="url(#filter2_d_1206_748)">
<rect x="126" y="261" width="174" height="73" rx="18" fill="white"/>
</g>
<circle cx="163.364" cy="296.116" r="23.3638" fill="#EAFFEC"/>
<g clip-path="url(#clip1_1206_748)">
<path d="M165 307.734C163.9 307.734 163 306.834 163 305.734V301.56L160.219 298.784C159.757 298.322 159.5 297.703 159.5 297.047C159.5 296.397 159.763 295.766 160.219 295.303L163.788 291.734H161.969L160.482 293.222C160.15 293.553 159.713 293.734 159.244 293.734C158.281 293.734 157.494 292.947 157.494 291.984C157.494 291.516 157.675 291.078 158.006 290.747L160.007 288.747C160.338 288.416 160.775 288.234 161.244 288.234H166.875C167.4 288.234 167.919 288.447 168.288 288.822L169.906 290.441C170.281 290.816 170.494 291.328 170.494 291.853V295.234H172.744C173.706 295.234 174.494 296.022 174.494 296.984C174.494 297.947 173.706 298.734 172.744 298.734H168.994C167.894 298.734 166.994 297.834 166.994 296.734V295.441L164.769 297.672L166.413 299.316C166.788 299.691 167 300.197 167 300.728V305.728C167 306.834 166.1 307.734 165 307.734ZM161.563 290.734H166.206L160.925 296.016C160.65 296.291 160.5 296.666 160.5 297.053C160.5 297.435 160.657 297.81 160.925 298.084L163.994 301.153V305.734C163.994 306.284 164.444 306.734 164.994 306.734C165.544 306.734 165.994 306.284 165.994 305.734V300.734C165.994 300.466 165.888 300.216 165.7 300.028L163.357 297.672L168 293.028V296.734C168 297.284 168.45 297.734 169 297.734H172.75C173.163 297.734 173.5 297.397 173.5 296.984C173.5 296.572 173.163 296.234 172.75 296.234H169.5V291.853C169.5 291.591 169.394 291.334 169.206 291.147L167.588 289.528C167.4 289.341 167.144 289.234 166.882 289.234H161.25C161.05 289.234 160.863 289.316 160.719 289.453L158.719 291.453C158.575 291.597 158.5 291.784 158.5 291.984C158.5 292.397 158.838 292.734 159.25 292.734C159.45 292.734 159.638 292.653 159.781 292.516L161.563 290.734Z" fill="#05C882"/>
<path d="M157.5 303.734C156.969 303.734 156.463 303.528 156.088 303.147L153.088 300.147C152.713 299.772 152.5 299.266 152.5 298.734C152.5 297.634 153.4 296.734 154.5 296.734C155.031 296.734 155.538 296.941 155.913 297.322L157.5 298.909L158.438 297.972L159.144 298.678L157.5 300.322L155.206 298.028C155.019 297.841 154.769 297.734 154.5 297.734C153.95 297.734 153.5 298.184 153.5 298.734C153.5 299.003 153.606 299.253 153.794 299.441L156.794 302.441C157.175 302.822 157.831 302.822 158.206 302.441L160.456 300.191L161.163 300.897L158.913 303.147C158.538 303.528 158.031 303.734 157.5 303.734Z" fill="#05C882"/>
<path d="M172 290.234C170.344 290.234 169 288.891 169 287.234C169 285.578 170.344 284.234 172 284.234C173.656 284.234 175 285.578 175 287.234C175 288.891 173.656 290.234 172 290.234ZM172 285.234C170.9 285.234 170 286.134 170 287.234C170 288.334 170.9 289.234 172 289.234C173.1 289.234 174 288.334 174 287.234C174 286.134 173.1 285.234 172 285.234Z" fill="#05C882"/>
<path d="M151 291.734H155.5V292.734H151V291.734Z" fill="#05C882"/>
<path d="M152.5 288.234H157.5V289.234H152.5V288.234Z" fill="#05C882"/>
</g>
<path d="M217.068 301L214.412 297.24C215.98 296.68 216.876 295.432 216.876 293.704C216.876 291.272 215.116 289.8 212.204 289.8H207.836V301H209.436V297.592H212.204C212.444 297.592 212.684 297.576 212.908 297.56L215.324 301H217.068ZM212.156 296.232H209.436V291.192H212.156C214.204 291.192 215.276 292.104 215.276 293.704C215.276 295.304 214.204 296.232 212.156 296.232ZM225.605 292.52V296.904C225.605 298.728 224.581 299.72 222.981 299.72C221.525 299.72 220.693 298.888 220.693 297.224V292.52H219.157V297.4C219.157 299.896 220.613 301.096 222.805 301.096C224.005 301.096 225.061 300.6 225.685 299.72V301H227.141V292.52H225.605ZM234.593 292.44C233.249 292.44 232.161 292.936 231.537 293.8V292.52H230.065V301H231.601V296.632C231.601 294.792 232.657 293.816 234.289 293.816C235.745 293.816 236.577 294.632 236.577 296.296V301H238.113V296.12C238.113 293.624 236.657 292.44 234.593 292.44ZM245.484 292.44C244.14 292.44 243.052 292.936 242.428 293.8V292.52H240.956V301H242.492V296.632C242.492 294.792 243.548 293.816 245.18 293.816C246.636 293.816 247.468 294.632 247.468 296.296V301H249.004V296.12C249.004 293.624 247.548 292.44 245.484 292.44ZM252.615 290.888C253.223 290.888 253.655 290.44 253.655 289.864C253.655 289.32 253.207 288.888 252.615 288.888C252.023 288.888 251.575 289.336 251.575 289.896C251.575 290.456 252.023 290.888 252.615 290.888ZM251.847 301H253.383V292.52H251.847V301ZM260.843 292.44C259.499 292.44 258.411 292.936 257.787 293.8V292.52H256.315V301H257.851V296.632C257.851 294.792 258.907 293.816 260.539 293.816C261.995 293.816 262.827 294.632 262.827 296.296V301H264.363V296.12C264.363 293.624 262.907 292.44 260.843 292.44ZM273.909 292.52V293.832C273.189 292.904 272.037 292.44 270.773 292.44C268.325 292.44 266.469 294.088 266.469 296.536C266.469 298.984 268.325 300.648 270.773 300.648C271.989 300.648 273.093 300.216 273.829 299.336V300.008C273.829 301.928 272.917 302.856 270.917 302.856C269.669 302.856 268.437 302.424 267.653 301.752L266.917 302.936C267.845 303.768 269.413 304.2 270.965 304.2C273.845 304.2 275.365 302.84 275.365 299.848V292.52H273.909ZM270.949 299.304C269.237 299.304 268.021 298.168 268.021 296.536C268.021 294.888 269.237 293.784 270.949 293.784C272.645 293.784 273.861 294.888 273.861 296.536C273.861 298.168 272.645 299.304 270.949 299.304Z" fill="#060030"/>
<circle cx="152.364" cy="525.116" r="23.3638" fill="#EAFFEC"/>
<circle cx="152.364" cy="525.116" r="23.3638" fill="#FFEAFE"/>
<g filter="url(#filter3_d_1206_748)">
<path d="M84 504C84 494.059 92.0589 486 102 486H204C213.941 486 222 494.059 222 504V581C222 590.941 213.941 599 204 599H102C92.0589 599 84 590.941 84 581V504Z" fill="white"/>
</g>
<circle cx="152.364" cy="525.116" r="23.3638" fill="#EAF9FF"/>
<mask id="mask1_1206_748" style="mask-type:luminance" maskUnits="userSpaceOnUse" x="141" y="512" width="27" height="26">
<path d="M141.5 512H167.5V538H141.5V512Z" fill="white"/>
</mask>
<g mask="url(#mask1_1206_748)">
<path d="M158.453 516.406C154.988 510.755 145.346 511.297 143.718 517.714C142.547 522.332 144.737 531.93 145.581 534.475C147.028 538.84 153.121 538.451 153.884 532.938C153.884 532.938 153.951 530.151 156.282 527.986C158.47 525.954 159.694 524.257 159.694 521.121C159.694 520.985 159.691 520.849 159.686 520.717" stroke="#2676FF" stroke-miterlimit="10" stroke-linecap="round" stroke-linejoin="round"/>
<path d="M147.197 528.209C147.614 531.091 150.175 532.06 151.753 529.181C152.433 527.941 153.164 526.729 154.21 525.758C155.774 524.305 156.649 523.322 156.649 521.121C156.649 518.792 155.649 516.894 153.437 515.998C151.723 515.303 149.416 515.371 147.915 516.54C147.276 517.036 146.859 517.678 146.668 518.463C146.514 519.096 146.55 519.644 146.8 520.206C147.263 521.249 148.22 520.973 149.131 520.895C149.759 520.842 150.399 521.101 150.809 521.638C151.446 522.474 151.283 523.668 150.448 524.304" stroke="#2676FF" stroke-miterlimit="10" stroke-linecap="round" stroke-linejoin="round"/>
<path d="M165.622 528.057C160.406 528.057 156.178 532.281 156.178 537.492" stroke="#2676FF" stroke-miterlimit="10" stroke-linecap="round" stroke-linejoin="round"/>
<path d="M165.621 530.741C161.887 530.741 158.863 533.764 158.863 537.492" stroke="#2676FF" stroke-miterlimit="10" stroke-linecap="round" stroke-linejoin="round"/>
<path d="M165.622 533.426C163.373 533.426 161.551 535.247 161.551 537.492" stroke="#2676FF" stroke-miterlimit="10" stroke-linecap="round" stroke-linejoin="round"/>
<path d="M159.349 518.476L159.348 518.474" stroke="#2676FF" stroke-miterlimit="10" stroke-linecap="round" stroke-linejoin="round"/>
</g>
<path d="M137.017 562.093V566.909H130.585V562.093H128.985V573.293H130.585V568.301H137.017V573.293H138.617V562.093H137.017ZM149.409 569.101C149.409 566.493 147.665 564.733 145.217 564.733C142.769 564.733 140.961 566.541 140.961 569.053C140.961 571.581 142.785 573.389 145.521 573.389C146.929 573.389 148.097 572.909 148.865 572.013L148.017 571.021C147.393 571.709 146.561 572.045 145.569 572.045C143.889 572.045 142.689 571.053 142.497 569.565H149.377C149.393 569.421 149.409 569.229 149.409 569.101ZM145.217 566.029C146.705 566.029 147.777 567.037 147.937 568.461H142.497C142.657 567.021 143.745 566.029 145.217 566.029ZM154.396 564.733C153.036 564.733 151.772 565.117 150.892 565.821L151.532 566.973C152.188 566.413 153.212 566.061 154.22 566.061C155.74 566.061 156.492 566.813 156.492 568.109V568.413H154.06C151.532 568.413 150.652 569.533 150.652 570.893C150.652 572.365 151.868 573.389 153.788 573.389C155.116 573.389 156.06 572.941 156.572 572.173V573.293H158.028V568.173C158.028 565.853 156.716 564.733 154.396 564.733ZM154.044 572.205C152.876 572.205 152.172 571.677 152.172 570.829C152.172 570.109 152.604 569.517 154.124 569.517H156.492V570.701C156.108 571.677 155.196 572.205 154.044 572.205ZM162.342 566.237V564.813H160.87V573.293H162.406V569.069C162.406 567.213 163.43 566.205 165.078 566.205C165.19 566.205 165.302 566.205 165.43 566.221V564.733C163.942 564.733 162.886 565.245 162.342 566.237ZM173.709 561.421V566.093C173.005 565.181 171.949 564.733 170.749 564.733C168.269 564.733 166.461 566.461 166.461 569.053C166.461 571.645 168.269 573.389 170.749 573.389C171.997 573.389 173.085 572.909 173.773 571.949V573.293H175.245V561.421H173.709ZM170.877 572.045C169.245 572.045 168.013 570.861 168.013 569.053C168.013 567.245 169.245 566.077 170.877 566.077C172.493 566.077 173.725 567.245 173.725 569.053C173.725 570.861 172.493 572.045 170.877 572.045Z" fill="#060030"/>
<circle cx="222.353" cy="408.323" r="19.3059" fill="#EAFFEC"/>
<g filter="url(#filter4_d_1206_748)">
<path d="M189 390.874C189 382.659 195.659 376 203.874 376H298.126C306.341 376 313 382.659 313 390.874V429.126C313 437.341 306.341 444 298.126 444H203.874C195.659 444 189 437.341 189 429.126V390.874Z" fill="white"/>
</g>
<circle cx="222.353" cy="408.323" r="19.3059" fill="#FFEAFE"/>
<path d="M213.972 407.406C213.962 407.353 213.941 407.302 213.912 407.257C213.882 407.211 213.843 407.172 213.799 407.142C213.708 407.08 213.596 407.057 213.489 407.077C213.381 407.098 213.286 407.16 213.224 407.251C213.162 407.341 213.139 407.453 213.16 407.561C213.18 407.668 213.243 407.763 213.333 407.825C213.424 407.887 213.535 407.91 213.643 407.89C213.751 407.869 213.846 407.807 213.908 407.716C213.969 407.625 213.993 407.514 213.972 407.406Z" fill="#EF0064"/>
<path d="M223.552 414.625L223.39 413.967C223.314 413.656 223.136 413.379 222.884 413.181C222.632 412.983 222.321 412.876 222.001 412.876C221.68 412.876 221.369 412.983 221.117 413.181C220.865 413.379 220.687 413.656 220.611 413.967L219.876 416.978C219.806 417.264 219.64 417.518 219.406 417.697C219.173 417.877 218.885 417.972 218.591 417.967C218.296 417.962 218.012 417.857 217.785 417.669C217.558 417.481 217.401 417.221 217.341 416.933C217.101 415.779 216.756 414.089 216.48 412.74C215.976 410.344 214.972 409.6 214.505 408.779C214.451 408.686 214.362 408.617 214.258 408.589C214.154 408.561 214.042 408.575 213.949 408.629C213.855 408.683 213.786 408.772 213.758 408.876C213.73 408.981 213.744 409.092 213.798 409.186C214.314 410.084 215.22 410.697 215.683 412.907C215.96 414.26 216.313 415.938 216.545 417.095C216.644 417.564 216.899 417.985 217.269 418.289C217.639 418.593 218.101 418.763 218.58 418.77C219.059 418.777 219.526 418.621 219.904 418.328C220.283 418.035 220.551 417.622 220.664 417.156L221.399 414.146C221.431 414.012 221.509 413.894 221.618 413.811C221.728 413.728 221.863 413.685 222.001 413.691C222.594 413.691 222.622 414.244 222.764 414.82C222.793 414.921 222.861 415.007 222.951 415.059C223.042 415.112 223.15 415.127 223.252 415.102C223.354 415.077 223.442 415.013 223.498 414.924C223.554 414.835 223.574 414.728 223.552 414.625Z" fill="#EF0064"/>
<path d="M230.799 405.233C231.188 404.932 231.664 404.768 232.156 404.766C232.263 404.766 232.367 404.723 232.443 404.647C232.519 404.571 232.562 404.467 232.562 404.359C232.562 404.252 232.519 404.148 232.443 404.072C232.367 403.996 232.263 403.953 232.156 403.953C231.862 403.954 231.571 403.896 231.3 403.784C231.029 403.672 230.782 403.508 230.575 403.3C230.367 403.092 230.202 402.846 230.09 402.575C229.978 402.303 229.921 402.012 229.921 401.719C229.921 401.611 229.879 401.508 229.802 401.432C229.726 401.355 229.623 401.313 229.515 401.313C229.407 401.313 229.304 401.355 229.228 401.432C229.152 401.508 229.109 401.611 229.109 401.719C229.108 401.908 229.085 402.096 229.04 402.279C228.167 401.506 227.069 401.031 225.908 400.927C223.47 400.715 222.946 402.093 220.379 401.207C219.603 400.943 218.778 400.855 217.964 400.949C217.15 401.043 216.367 401.316 215.671 401.749C214.976 402.182 214.385 402.764 213.941 403.452C213.498 404.141 213.213 404.92 213.107 405.733C213.093 405.84 213.123 405.949 213.19 406.035C213.256 406.12 213.354 406.176 213.462 406.19C213.57 406.203 213.679 406.173 213.764 406.107C213.85 406.04 213.906 405.942 213.919 405.834C214.01 405.141 214.252 404.477 214.631 403.89C215.009 403.302 215.512 402.806 216.105 402.437C216.698 402.068 217.366 401.835 218.06 401.755C218.754 401.675 219.457 401.75 220.119 401.975C221.342 402.399 222.673 402.399 223.897 401.975C224.716 401.694 225.596 401.645 226.441 401.835C227.286 402.024 228.062 402.444 228.682 403.047C228.474 403.331 228.202 403.56 227.887 403.718C227.573 403.875 227.226 403.956 226.874 403.953C226.767 403.953 226.663 403.996 226.587 404.072C226.511 404.148 226.468 404.252 226.468 404.359C226.468 404.467 226.511 404.571 226.587 404.647C226.663 404.723 226.767 404.766 226.874 404.766C227.467 404.767 228.034 405.003 228.453 405.421C228.872 405.84 229.108 406.408 229.109 407C229.109 407.108 229.152 407.211 229.228 407.287C229.304 407.364 229.407 407.406 229.515 407.406C229.623 407.406 229.726 407.364 229.802 407.287C229.879 407.211 229.921 407.108 229.921 407C229.923 406.701 229.983 406.406 230.1 406.131C230.198 407.328 229.822 408.515 229.052 409.438C228.277 410.405 227.751 411.547 227.52 412.765C226.594 417.307 226.675 417.319 226.208 417.697C226.038 417.835 225.836 417.929 225.62 417.968C225.404 418.007 225.182 417.991 224.974 417.922C224.766 417.852 224.579 417.731 224.43 417.569C224.282 417.408 224.176 417.211 224.124 416.998L223.929 416.185C223.9 416.085 223.833 415.999 223.742 415.946C223.651 415.894 223.543 415.879 223.441 415.904C223.339 415.929 223.251 415.993 223.195 416.082C223.139 416.17 223.12 416.278 223.141 416.38L223.336 417.193C223.422 417.538 223.593 417.857 223.834 418.118C224.075 418.38 224.379 418.577 224.716 418.69C225.053 418.803 225.414 418.83 225.764 418.767C226.114 418.704 226.443 418.554 226.72 418.33C227.488 417.709 227.419 417.319 228.317 412.927C228.52 411.841 228.988 410.821 229.678 409.958C230.216 409.31 230.597 408.546 230.792 407.727C230.986 406.907 230.989 406.054 230.799 405.233ZM229.515 405.481C229.246 405.015 228.86 404.628 228.394 404.359C228.623 404.221 228.836 404.059 229.032 403.876C229.844 403.064 229.162 403.031 230.003 403.876C230.844 404.721 230.815 404.014 230.003 404.847C229.812 405.035 229.648 405.248 229.515 405.481Z" fill="#EF0064"/>
<path d="M222 404.449C223.391 404.423 224.754 404.05 225.965 403.364C226.039 403.302 226.088 403.216 226.104 403.122C226.121 403.027 226.103 402.93 226.054 402.847C226.005 402.764 225.929 402.701 225.838 402.67C225.748 402.638 225.649 402.639 225.559 402.673C224.468 403.277 223.247 403.607 222 403.636C220.759 403.605 219.544 403.275 218.458 402.673C218.368 402.639 218.269 402.638 218.178 402.67C218.088 402.701 218.011 402.764 217.962 402.847C217.914 402.93 217.896 403.027 217.912 403.122C217.928 403.216 217.978 403.302 218.051 403.364C219.257 404.047 220.614 404.42 222 404.449Z" fill="#EF0064"/>
<path d="M211.438 406.594H210.219C210.111 406.594 210.008 406.637 209.931 406.713C209.855 406.789 209.812 406.892 209.812 407C209.812 407.108 209.855 407.211 209.931 407.287C210.008 407.363 210.111 407.406 210.219 407.406H211.438C211.545 407.406 211.649 407.363 211.725 407.287C211.801 407.211 211.844 407.108 211.844 407C211.844 406.892 211.801 406.789 211.725 406.713C211.649 406.637 211.545 406.594 211.438 406.594Z" fill="#EF0064"/>
<path d="M233.781 406.594H232.562C232.455 406.594 232.351 406.637 232.275 406.713C232.199 406.789 232.156 406.892 232.156 407C232.156 407.108 232.199 407.211 232.275 407.287C232.351 407.363 232.455 407.406 232.562 407.406H233.781C233.889 407.406 233.992 407.363 234.069 407.287C234.145 407.211 234.188 407.108 234.188 407C234.188 406.892 234.145 406.789 234.069 406.713C233.992 406.637 233.889 406.594 233.781 406.594Z" fill="#EF0064"/>
<path d="M222.406 396.438V395.219C222.406 395.111 222.363 395.008 222.287 394.931C222.211 394.855 222.108 394.812 222 394.812C221.892 394.812 221.789 394.855 221.713 394.931C221.637 395.008 221.594 395.111 221.594 395.219V396.438C221.594 396.545 221.637 396.649 221.713 396.725C221.789 396.801 221.892 396.844 222 396.844C222.108 396.844 222.211 396.801 222.287 396.725C222.363 396.649 222.406 396.545 222.406 396.438Z" fill="#EF0064"/>
<path d="M212.657 411.928L211.605 412.537C211.511 412.591 211.443 412.68 211.414 412.784C211.386 412.889 211.401 413 211.455 413.094C211.508 413.187 211.597 413.256 211.702 413.284C211.806 413.312 211.917 413.298 212.011 413.244L213.063 412.635C213.157 412.581 213.226 412.492 213.254 412.387C213.282 412.283 213.268 412.172 213.214 412.078C213.16 411.984 213.071 411.916 212.967 411.888C212.862 411.859 212.751 411.874 212.657 411.928Z" fill="#EF0064"/>
<path d="M231.148 402.125C231.294 402.125 231.245 402.125 232.403 401.463C232.497 401.409 232.565 401.32 232.594 401.216C232.622 401.111 232.607 401 232.554 400.906C232.527 400.86 232.491 400.819 232.449 400.786C232.407 400.754 232.358 400.73 232.306 400.716C232.202 400.688 232.091 400.702 231.997 400.756L230.937 401.365C230.858 401.41 230.796 401.48 230.761 401.563C230.727 401.647 230.721 401.74 230.745 401.828C230.77 401.915 230.822 401.992 230.895 402.046C230.968 402.1 231.057 402.127 231.148 402.125Z" fill="#EF0064"/>
<path d="M216.365 398.063C216.419 398.156 216.508 398.225 216.612 398.253C216.716 398.281 216.828 398.267 216.921 398.213C217.015 398.159 217.084 398.07 217.112 397.966C217.14 397.861 217.126 397.75 217.072 397.656L216.462 396.604C216.436 396.558 216.4 396.517 216.358 396.484C216.315 396.452 216.267 396.428 216.215 396.414C216.111 396.386 215.999 396.4 215.906 396.454C215.812 396.508 215.743 396.597 215.715 396.701C215.687 396.805 215.702 396.917 215.755 397.01L216.365 398.063Z" fill="#EF0064"/>
<path d="M227.634 398.063L228.244 397.01C228.27 396.964 228.287 396.913 228.294 396.86C228.301 396.807 228.298 396.753 228.284 396.701C228.27 396.649 228.246 396.601 228.213 396.559C228.18 396.516 228.14 396.481 228.093 396.454C228.047 396.427 227.996 396.41 227.942 396.403C227.889 396.396 227.835 396.4 227.784 396.414C227.732 396.428 227.684 396.452 227.641 396.484C227.599 396.517 227.563 396.558 227.537 396.604L226.927 397.656C226.901 397.703 226.883 397.754 226.876 397.807C226.87 397.86 226.873 397.914 226.887 397.966C226.901 398.017 226.925 398.066 226.958 398.108C226.99 398.151 227.031 398.186 227.078 398.213C227.124 398.24 227.175 398.257 227.228 398.264C227.281 398.271 227.335 398.267 227.387 398.253C227.439 398.239 227.487 398.215 227.529 398.182C227.572 398.15 227.607 398.109 227.634 398.063Z" fill="#EF0064"/>
<path d="M211.595 401.463C212.753 402.125 212.708 402.125 212.85 402.125C212.94 402.126 213.028 402.096 213.1 402.042C213.171 401.987 213.223 401.911 213.246 401.824C213.269 401.737 213.263 401.645 213.228 401.562C213.193 401.479 213.132 401.41 213.054 401.365L212.001 400.756C211.908 400.702 211.796 400.688 211.692 400.716C211.588 400.744 211.499 400.812 211.445 400.906C211.391 401 211.377 401.111 211.405 401.216C211.433 401.32 211.501 401.409 211.595 401.463Z" fill="#EF0064"/>
<path d="M232.404 412.537L231.343 411.928C231.249 411.874 231.138 411.859 231.034 411.888C230.929 411.916 230.841 411.984 230.787 412.078C230.733 412.172 230.718 412.283 230.747 412.387C230.775 412.492 230.843 412.581 230.937 412.635L231.989 413.244C232.083 413.299 232.195 413.314 232.3 413.287C232.405 413.26 232.495 413.191 232.55 413.098C232.605 413.004 232.62 412.892 232.593 412.787C232.565 412.682 232.497 412.592 232.404 412.537Z" fill="#EF0064"/>
<path d="M260.853 412.137H262.162V404.032H265.335V402.882H257.68V404.032H260.853V412.137ZM272.2 408.673C272.2 406.518 270.758 405.064 268.736 405.064C266.713 405.064 265.219 406.558 265.219 408.633C265.219 410.722 266.726 412.216 268.987 412.216C270.15 412.216 271.115 411.82 271.75 411.079L271.049 410.26C270.534 410.828 269.846 411.106 269.026 411.106C267.638 411.106 266.647 410.286 266.488 409.056H272.173C272.186 408.937 272.2 408.779 272.2 408.673ZM268.736 406.135C269.965 406.135 270.851 406.968 270.983 408.144H266.488C266.62 406.954 267.519 406.135 268.736 406.135ZM280.295 408.673C280.295 406.518 278.854 405.064 276.831 405.064C274.808 405.064 273.314 406.558 273.314 408.633C273.314 410.722 274.821 412.216 277.082 412.216C278.246 412.216 279.211 411.82 279.845 411.079L279.145 410.26C278.629 410.828 277.942 411.106 277.122 411.106C275.734 411.106 274.742 410.286 274.583 409.056H280.268C280.282 408.937 280.295 408.779 280.295 408.673ZM276.831 406.135C278.061 406.135 278.946 406.968 279.079 408.144H274.583C274.716 406.954 275.615 406.135 276.831 406.135ZM285.601 410.815C285.336 411.026 284.979 411.145 284.609 411.145C283.908 411.145 283.512 410.722 283.512 409.969V406.174H285.521V405.13H283.512V403.596H282.242V405.13H281.052V406.174H282.242V410.022C282.242 411.436 283.049 412.216 284.464 412.216C285.032 412.216 285.614 412.058 285.997 411.727L285.601 410.815ZM291.273 405.064C290.202 405.064 289.33 405.447 288.801 406.121V402.327H287.532V412.137H288.801V408.528C288.801 407.007 289.673 406.201 291.022 406.201C292.225 406.201 292.913 406.875 292.913 408.25V412.137H294.182V408.105C294.182 406.042 292.979 405.064 291.273 405.064Z" fill="#060030"/>
</g>
<defs>
<filter id="filter0_d_1206_748" x="1137" y="652" width="150" height="125" filterUnits="userSpaceOnUse" color-interpolation-filters="sRGB">
<feFlood flood-opacity="0" result="BackgroundImageFix"/>
<feColorMatrix in="SourceAlpha" type="matrix" values="0 0 0 0 0 0 0 0 0 0 0 0 0 0 0 0 0 0 127 0" result="hardAlpha"/>
<feOffset dy="2"/>
<feGaussianBlur stdDeviation="3"/>
<feComposite in2="hardAlpha" operator="out"/>
<feColorMatrix type="matrix" values="0 0 0 0 0.469583 0 0 0 0 0.520275 0 0 0 0 0.7 0 0 0 0.15 0"/>
<feBlend mode="normal" in2="BackgroundImageFix" result="effect1_dropShadow_1206_748"/>
<feBlend mode="normal" in="SourceGraphic" in2="effect1_dropShadow_1206_748" result="shape"/>
</filter>
<filter id="filter1_d_1206_748" x="1240.04" y="540.695" width="150.916" height="77.9158" filterUnits="userSpaceOnUse" color-interpolation-filters="sRGB">
<feFlood flood-opacity="0" result="BackgroundImageFix"/>
<feColorMatrix in="SourceAlpha" type="matrix" values="0 0 0 0 0 0 0 0 0 0 0 0 0 0 0 0 0 0 127 0" result="hardAlpha"/>
<feOffset dy="1.65263"/>
<feGaussianBlur stdDeviation="2.47895"/>
<feComposite in2="hardAlpha" operator="out"/>
<feColorMatrix type="matrix" values="0 0 0 0 0.469583 0 0 0 0 0.520275 0 0 0 0 0.7 0 0 0 0.15 0"/>
<feBlend mode="normal" in2="BackgroundImageFix" result="effect1_dropShadow_1206_748"/>
<feBlend mode="normal" in="SourceGraphic" in2="effect1_dropShadow_1206_748" result="shape"/>
</filter>
<filter id="filter2_d_1206_748" x="120" y="257" width="186" height="85" filterUnits="userSpaceOnUse" color-interpolation-filters="sRGB">
<feFlood flood-opacity="0" result="BackgroundImageFix"/>
<feColorMatrix in="SourceAlpha" type="matrix" values="0 0 0 0 0 0 0 0 0 0 0 0 0 0 0 0 0 0 127 0" result="hardAlpha"/>
<feOffset dy="2"/>
<feGaussianBlur stdDeviation="3"/>
<feComposite in2="hardAlpha" operator="out"/>
<feColorMatrix type="matrix" values="0 0 0 0 0.469583 0 0 0 0 0.520275 0 0 0 0 0.7 0 0 0 0.15 0"/>
<feBlend mode="normal" in2="BackgroundImageFix" result="effect1_dropShadow_1206_748"/>
<feBlend mode="normal" in="SourceGraphic" in2="effect1_dropShadow_1206_748" result="shape"/>
</filter>
<filter id="filter3_d_1206_748" x="78" y="482" width="150" height="125" filterUnits="userSpaceOnUse" color-interpolation-filters="sRGB">
<feFlood flood-opacity="0" result="BackgroundImageFix"/>
<feColorMatrix in="SourceAlpha" type="matrix" values="0 0 0 0 0 0 0 0 0 0 0 0 0 0 0 0 0 0 127 0" result="hardAlpha"/>
<feOffset dy="2"/>
<feGaussianBlur stdDeviation="3"/>
<feComposite in2="hardAlpha" operator="out"/>
<feColorMatrix type="matrix" values="0 0 0 0 0.469583 0 0 0 0 0.520275 0 0 0 0 0.7 0 0 0 0.15 0"/>
<feBlend mode="normal" in2="BackgroundImageFix" result="effect1_dropShadow_1206_748"/>
<feBlend mode="normal" in="SourceGraphic" in2="effect1_dropShadow_1206_748" result="shape"/>
</filter>
<filter id="filter4_d_1206_748" x="184.042" y="372.695" width="133.916" height="77.9158" filterUnits="userSpaceOnUse" color-interpolation-filters="sRGB">
<feFlood flood-opacity="0" result="BackgroundImageFix"/>
<feColorMatrix in="SourceAlpha" type="matrix" values="0 0 0 0 0 0 0 0 0 0 0 0 0 0 0 0 0 0 127 0" result="hardAlpha"/>
<feOffset dy="1.65263"/>
<feGaussianBlur stdDeviation="2.47895"/>
<feComposite in2="hardAlpha" operator="out"/>
<feColorMatrix type="matrix" values="0 0 0 0 0.469583 0 0 0 0 0.520275 0 0 0 0 0.7 0 0 0 0.15 0"/>
<feBlend mode="normal" in2="BackgroundImageFix" result="effect1_dropShadow_1206_748"/>
<feBlend mode="normal" in="SourceGraphic" in2="effect1_dropShadow_1206_748" result="shape"/>
</filter>
<clipPath id="clip0_1206_748">
<rect width="1440" height="845" fill="white"/>
</clipPath>
<clipPath id="clip1_1206_748">
<rect width="24" height="24" fill="white" transform="translate(151 284)"/>
</clipPath>
</defs>
</svg>
