<svg width="505" height="620" viewBox="0 0 505 620" fill="none" xmlns="http://www.w3.org/2000/svg">
<path d="M2.5 574.364V574.274L2.50647 574.184C9.95514 470.681 43.0996 374.249 95.7186 291.147L97.8307 292.485L95.7186 291.147C147.994 208.592 219.47 139.232 303.93 89.319L303.932 89.3177C314.774 82.926 325.82 76.8517 337.071 71.0949L337.071 71.0947C420.441 28.4562 514.881 4.11203 614.985 3.50005L617.5 3.48467V6V276.366V278.837L615.029 278.865C580.634 279.269 547.46 284.716 516.25 294.531L516.248 294.531C444.432 317.054 382.812 362.639 340.247 422.479L340.246 422.48C328.084 439.56 317.41 457.846 308.562 477.07L308.561 477.072C289.173 519.089 278.093 565.812 277.552 615.027L277.525 617.5H275.053H5H2.5V615V574.364Z" fill="#4F2BCC" stroke="#4F2BCC" stroke-width="5"/>
</svg>
