<svg width="17" height="16" viewBox="0 0 17 16" fill="none" xmlns="http://www.w3.org/2000/svg">
<path d="M8.17276 0.0644531C6.60231 0.0644531 5.06713 0.530146 3.76135 1.40264C2.45557 2.27514 1.43783 3.51525 0.836848 4.96615C0.235862 6.41706 0.0786172 8.0136 0.384997 9.55387C0.691376 11.0941 1.44762 12.509 2.5581 13.6195C3.66857 14.7299 5.0834 15.4862 6.62368 15.7926C8.16395 16.0989 9.76049 15.9417 11.2114 15.3407C12.6623 14.7397 13.9024 13.722 14.7749 12.4162C15.6474 11.1104 16.1131 9.57524 16.1131 8.00479C16.1106 5.89964 15.2732 3.88143 13.7847 2.39287C12.2961 0.904303 10.2779 0.0669366 8.17276 0.0644531ZM10.8487 10.6807C10.7133 10.816 10.5297 10.892 10.3383 10.892C10.1469 10.892 9.96333 10.816 9.82796 10.6807L7.66241 8.51514C7.52703 8.37979 7.45095 8.19622 7.45091 8.00479V3.6737C7.45091 3.48225 7.52696 3.29865 7.66234 3.16327C7.79771 3.0279 7.98132 2.95185 8.17276 2.95185C8.36421 2.95185 8.54781 3.0279 8.68319 3.16327C8.81856 3.29865 8.89461 3.48225 8.89461 3.6737V7.70594L10.8487 9.65999C10.984 9.79535 11.06 9.97893 11.06 10.1703C11.06 10.3617 10.984 10.5453 10.8487 10.6807Z" fill="#D8D8F1"/>
</svg>
