<svg width="25" height="25" viewBox="0 0 25 25" fill="none" xmlns="http://www.w3.org/2000/svg">
<g id="wallet 1">
<g id="Icon">
<g id="Group">
<path id="Vector" fill-rule="evenodd" clip-rule="evenodd" d="M22.5217 19.4395H17.6688C16.1172 19.4395 14.8598 18.1821 14.8598 16.6305V14.5876C14.8598 13.0361 16.1172 11.7787 17.6688 11.7787H22.5217V10.5018C22.5217 9.75721 22.2255 9.0422 21.6994 8.51514C21.1724 7.98909 20.4574 7.69287 19.7127 7.69287C16.1755 7.69287 8.94976 7.69287 5.41249 7.69287C4.66786 7.69287 3.95285 7.98909 3.42578 8.51514C2.89974 9.0422 2.60352 9.75721 2.60352 10.5018V20.7163C2.60352 21.4609 2.89974 22.176 3.42578 22.703C3.95285 23.2291 4.66786 23.5253 5.41249 23.5253H19.7127C20.4574 23.5253 21.1724 23.2291 21.6994 22.703C22.2255 22.176 22.5217 21.4609 22.5217 20.7163V19.4395ZM22.5217 13.3108V17.9073H17.6688C16.964 17.9073 16.392 17.3353 16.392 16.6305V14.5876C16.392 13.8828 16.964 13.3108 17.6688 13.3108H22.5217ZM18.1806 14.5876C18.7444 14.5876 19.202 15.0452 19.202 15.6091C19.202 16.1729 18.7444 16.6305 18.1806 16.6305C17.6167 16.6305 17.1591 16.1729 17.1591 15.6091C17.1591 15.0452 17.6167 14.5876 18.1806 14.5876Z" fill="white"/>
<path id="Vector_2" fill-rule="evenodd" clip-rule="evenodd" d="M16.7373 6.67103H19.7117C19.9068 6.67103 20.1009 6.68635 20.2919 6.71495L20.7761 5.67512C20.9548 5.29208 20.7894 4.83651 20.4063 4.65776L13.9253 1.6353C13.5422 1.45655 13.0866 1.62304 12.9079 2.00609L12.3594 3.18177L15.7301 4.75275C16.4758 5.10107 16.8691 5.8978 16.7373 6.67103Z" fill="white"/>
<path id="Vector_3" fill-rule="evenodd" clip-rule="evenodd" d="M6.10156 6.67107H15.6817C15.841 6.29313 15.6746 5.85391 15.2997 5.67924L8.81861 2.65679C8.43557 2.47803 7.98 2.64453 7.80125 3.02757L6.10156 6.67107Z" fill="white"/>
</g>
</g>
</g>
</svg>
