<svg width="50" height="50" viewBox="0 0 50 50" fill="none" xmlns="http://www.w3.org/2000/svg">
<g id="sensor-alert 1" clip-path="url(#clip0_4589_9367)">
<path id="Vector" d="M45.8292 50H39.5833C38.4313 50 37.5 49.0667 37.5 47.9167C37.5 46.7667 38.4313 45.8333 39.5833 45.8333H45.8292L33.3479 24.9896L20.825 45.8542L27.0833 45.8333C28.2354 45.8333 29.1667 46.7667 29.1667 47.9167C29.1667 49.0667 28.2354 50 27.0833 50H20.8354C19.325 50 17.975 49.2188 17.2229 47.9083C16.4708 46.6 16.475 45.0396 17.2354 43.7333L29.7417 22.8479C30.4875 21.5729 31.8333 20.8021 33.3313 20.8021C34.8292 20.8021 36.1729 21.575 36.9313 22.8688L49.4146 43.7146C50.1896 45.0396 50.1938 46.6 49.4417 47.9104C48.6896 49.2208 47.3375 50 45.8292 50ZM35.4167 41.6667V35.4167C35.4167 34.2667 34.4854 33.3333 33.3333 33.3333C32.1813 33.3333 31.25 34.2667 31.25 35.4167V41.6667C31.25 42.8167 32.1813 43.75 33.3333 43.75C34.4854 43.75 35.4167 42.8167 35.4167 41.6667ZM12.5 47.9167C12.5 46.7667 11.5667 45.8333 10.4167 45.8333C6.97083 45.8333 4.16667 43.0292 4.16667 39.5833V10.4167C4.16667 6.97083 6.97083 4.16667 10.4167 4.16667H39.5833C43.0292 4.16667 45.8333 6.97083 45.8333 10.4167V29.1667C45.8333 30.3167 46.7646 31.25 47.9167 31.25C49.0688 31.25 50 30.3167 50 29.1667V10.4167C50 4.67292 45.3271 0 39.5833 0H10.4167C4.67292 0 0 4.67292 0 10.4167V39.5833C0 45.3271 4.67292 50 10.4167 50C11.5667 50 12.5 49.0667 12.5 47.9167ZM10.4167 8.33333C9.26667 8.33333 8.33333 9.26667 8.33333 10.4167C8.33333 11.5667 9.26667 12.5 10.4167 12.5C11.5667 12.5 12.5 11.5667 12.5 10.4167C12.5 9.26667 11.5667 8.33333 10.4167 8.33333ZM18.75 8.33333C17.6 8.33333 16.6667 9.26667 16.6667 10.4167C16.6667 11.5667 17.6 12.5 18.75 12.5C19.9 12.5 20.8333 11.5667 20.8333 10.4167C20.8333 9.26667 19.9 8.33333 18.75 8.33333ZM33.3333 45.8333C32.1833 45.8333 31.25 46.7667 31.25 47.9167C31.25 49.0667 32.1833 50 33.3333 50C34.4833 50 35.4167 49.0667 35.4167 47.9167C35.4167 46.7667 34.4833 45.8333 33.3333 45.8333Z" fill="#FB4845"/>
</g>
<defs>
<clipPath id="clip0_4589_9367">
<rect width="50" height="50" fill="white"/>
</clipPath>
</defs>
</svg>
