<svg width="151" height="50" viewBox="0 0 151 50" fill="none" xmlns="http://www.w3.org/2000/svg">
<circle cx="24.5247" cy="24.5247" r="24.5247" fill="#D1FFEF"/>
<path d="M15.9688 14.2585H23.3832V34.7909H15.9688V14.2585Z" fill="#79DFBC"/>
<path d="M23.6299 21.2018H9.125V27.9468H23.6299C35.2338 27.9468 37.8014 18.8213 37.6347 14.2585H30.7323C30.7323 19.8925 25.9974 21.2349 23.6299 21.2018Z" fill="#8FDEC3"/>
<g style="mix-blend-mode:multiply">
<path d="M23.6299 27.8476H9.125V21.1027H23.6299C35.2338 21.1027 37.8014 30.2282 37.6347 34.7909H30.7323C30.7323 29.1569 25.9974 27.8145 23.6299 27.8476Z" fill="#8CE3C4"/>
</g>
<path d="M64.9344 24.1303L60.905 28.2624V32.9849H59.596V15.0191H60.905V26.5685L72.1207 15.0191H73.712L65.807 23.1807L74.251 32.9849H72.6597L64.9344 24.1303ZM76.9807 19.5875H78.264V32.9849H76.9807V19.5875ZM77.6224 16.328C77.3315 16.328 77.0834 16.2339 76.8781 16.0457C76.6727 15.8404 76.5701 15.5923 76.5701 15.3014C76.5701 15.0105 76.6727 14.7624 76.8781 14.5571C77.0834 14.3518 77.3315 14.2491 77.6224 14.2491C77.9132 14.2491 78.1613 14.3518 78.3667 14.5571C78.572 14.7453 78.6746 14.9849 78.6746 15.2757C78.6746 15.5666 78.572 15.8147 78.3667 16.02C78.1613 16.2254 77.9132 16.328 77.6224 16.328ZM90.2174 19.4849C91.8943 19.4849 93.2203 19.9725 94.1956 20.9478C95.1709 21.9231 95.6585 23.3261 95.6585 25.1569V32.9849H94.3752V25.2596C94.3752 23.7539 93.9903 22.6075 93.2203 21.8204C92.4674 21.0333 91.4066 20.6398 90.0378 20.6398C88.4636 20.6398 87.2232 21.1103 86.3163 22.0514C85.4095 22.9925 84.956 24.2586 84.956 25.8499V32.9849H83.6728V19.5875H84.9047V22.4877C85.3667 21.5467 86.0511 20.8109 86.9579 20.2805C87.8819 19.7501 88.9684 19.4849 90.2174 19.4849ZM112.285 26.5942H100.762C100.796 27.6379 101.061 28.5704 101.557 29.3917C102.053 30.1959 102.721 30.8204 103.559 31.2653C104.415 31.7101 105.373 31.9326 106.434 31.9326C107.306 31.9326 108.11 31.7786 108.846 31.4706C109.599 31.1455 110.223 30.675 110.72 30.059L111.464 30.906C110.882 31.6075 110.146 32.1465 109.257 32.5229C108.384 32.8993 107.435 33.0875 106.408 33.0875C105.073 33.0875 103.884 32.7967 102.84 32.2149C101.797 31.6332 100.975 30.829 100.377 29.8024C99.7948 28.7757 99.5039 27.6037 99.5039 26.2862C99.5039 24.9858 99.7777 23.8223 100.325 22.7957C100.89 21.752 101.66 20.9392 102.635 20.3575C103.61 19.7757 104.705 19.4849 105.92 19.4849C107.135 19.4849 108.222 19.7757 109.18 20.3575C110.155 20.9221 110.916 21.7178 111.464 22.7444C112.029 23.771 112.311 24.9345 112.311 26.2349L112.285 26.5942ZM105.92 20.6141C104.979 20.6141 104.132 20.828 103.379 21.2558C102.627 21.6664 102.019 22.2567 101.557 23.0267C101.112 23.7795 100.856 24.6351 100.787 25.5932H111.053C111.002 24.6351 110.745 23.7795 110.283 23.0267C109.821 22.2738 109.214 21.6835 108.461 21.2558C107.708 20.828 106.861 20.6141 105.92 20.6141ZM119.669 33.0875C118.591 33.0875 117.564 32.925 116.589 32.5999C115.614 32.2748 114.852 31.8641 114.305 31.3679L114.895 30.3413C115.442 30.8033 116.144 31.1883 116.999 31.4963C117.872 31.8043 118.779 31.9582 119.72 31.9582C121.072 31.9582 122.064 31.7358 122.697 31.2909C123.347 30.8461 123.672 30.2301 123.672 29.443C123.672 28.8784 123.493 28.4335 123.134 28.1084C122.791 27.7833 122.364 27.5438 121.85 27.3898C121.337 27.2358 120.627 27.0733 119.72 26.9022C118.659 26.714 117.804 26.5086 117.153 26.2862C116.503 26.0638 115.947 25.7044 115.485 25.2082C115.023 24.712 114.792 24.0276 114.792 23.155C114.792 22.0942 115.229 21.2216 116.101 20.5371C116.991 19.8356 118.249 19.4849 119.874 19.4849C120.73 19.4849 121.576 19.6046 122.415 19.8442C123.253 20.0837 123.938 20.4003 124.468 20.7938L123.878 21.8204C123.33 21.4269 122.706 21.1274 122.004 20.9221C121.303 20.7168 120.584 20.6141 119.848 20.6141C118.599 20.6141 117.658 20.8451 117.025 21.3071C116.392 21.7691 116.076 22.3765 116.076 23.1294C116.076 23.7282 116.255 24.1987 116.615 24.5409C116.974 24.866 117.41 25.1141 117.923 25.2852C118.454 25.4392 119.19 25.6103 120.131 25.7986C121.174 25.9868 122.013 26.1921 122.646 26.4145C123.296 26.6198 123.844 26.962 124.288 27.4411C124.733 27.9202 124.956 28.579 124.956 29.4174C124.956 30.5295 124.494 31.4193 123.57 32.0866C122.646 32.7539 121.345 33.0875 119.669 33.0875ZM128.537 19.5875H129.82V32.9849H128.537V19.5875ZM129.179 16.328C128.888 16.328 128.64 16.2339 128.434 16.0457C128.229 15.8404 128.126 15.5923 128.126 15.3014C128.126 15.0105 128.229 14.7624 128.434 14.5571C128.64 14.3518 128.888 14.2491 129.179 14.2491C129.47 14.2491 129.718 14.3518 129.923 14.5571C130.128 14.7453 130.231 14.9849 130.231 15.2757C130.231 15.5666 130.128 15.8147 129.923 16.02C129.718 16.2254 129.47 16.328 129.179 16.328ZM141.774 19.4849C143.451 19.4849 144.777 19.9725 145.752 20.9478C146.727 21.9231 147.215 23.3261 147.215 25.1569V32.9849H145.932V25.2596C145.932 23.7539 145.547 22.6075 144.777 21.8204C144.024 21.0333 142.963 20.6398 141.594 20.6398C140.02 20.6398 138.78 21.1103 137.873 22.0514C136.966 22.9925 136.512 24.2586 136.512 25.8499V32.9849H135.229V19.5875H136.461V22.4877C136.923 21.5467 137.607 20.8109 138.514 20.2805C139.438 19.7501 140.525 19.4849 141.774 19.4849Z" fill="#060030"/>
</svg>
