<svg width="216" height="160" viewBox="0 0 216 160" fill="none" xmlns="http://www.w3.org/2000/svg">
<path d="M108.9 0H51.2V159.9H108.9V0Z" fill="#7ADFBD"/>
<path fill-rule="evenodd" clip-rule="evenodd" d="M161.5 0.100098H214.9C214.9 0.100098 222.4 86.5001 131.6 106H93.2V54.1001H135.9C135.9 54.1001 170 36.8001 161.5 0.100098Z" fill="#8FDDC3"/>
<path fill-rule="evenodd" clip-rule="evenodd" d="M161.5 160H214.9C214.9 160 222.4 73.6001 131.6 54.1001H93.2V106H135.9C135.9 106 170 123.3 161.5 160Z" fill="#73E4B8"/>
<path fill-rule="evenodd" clip-rule="evenodd" d="M0 54.1001V106H128.1C128.1 106 159.4 103.8 183.6 80.1001C183.6 80.1001 166 59.8001 130.2 54.2001H0V54.1001Z" fill="#50C696"/>
</svg>
