<svg width="26" height="25" viewBox="0 0 26 25" fill="none" xmlns="http://www.w3.org/2000/svg">
<path d="M4.97248 13.4062C4.96234 13.3528 4.9418 13.302 4.91202 13.2566C4.88224 13.2112 4.8438 13.1721 4.79891 13.1415C4.70825 13.0798 4.59679 13.0566 4.48904 13.0771C4.3813 13.0976 4.2861 13.16 4.22439 13.2507C4.16268 13.3413 4.13951 13.4528 4.15998 13.5605C4.18045 13.6683 4.24289 13.7635 4.33355 13.8252C4.42421 13.8869 4.53567 13.9101 4.64342 13.8896C4.75116 13.8691 4.84636 13.8067 4.90807 13.716C4.96978 13.6254 4.99295 13.5139 4.97248 13.4062Z" fill="#06C07D"/>
<path d="M14.5519 20.6252L14.3894 19.967C14.3136 19.6558 14.1354 19.3789 13.8835 19.181C13.6316 18.9831 13.3204 18.8755 13.0001 18.8755C12.6797 18.8755 12.3685 18.9831 12.1166 19.181C11.8647 19.3789 11.6865 19.6558 11.6107 19.967L10.8754 22.9774C10.805 23.2636 10.6395 23.5174 10.406 23.6972C10.1724 23.877 9.88471 23.9721 9.59003 23.9669C9.29534 23.9617 9.01117 23.8565 8.78411 23.6686C8.55705 23.4807 8.40058 23.2212 8.34037 22.9327C8.10068 21.7789 7.75537 20.0889 7.47912 18.7402C6.97536 16.3433 5.97193 15.5999 5.50474 14.7792C5.45087 14.6855 5.36197 14.617 5.25759 14.5888C5.15321 14.5606 5.04192 14.575 4.94818 14.6289C4.85444 14.6828 4.78594 14.7717 4.75775 14.8761C4.72956 14.9804 4.74399 15.0917 4.79787 15.1855C5.3138 16.0833 6.21974 16.6967 6.68287 18.9067C6.95912 20.2595 7.31255 21.9374 7.54411 23.0952C7.64338 23.5636 7.89886 23.9845 8.26867 24.2887C8.63848 24.5929 9.10067 24.7625 9.57948 24.7695C10.0583 24.7766 10.5253 24.6208 10.904 24.3277C11.2826 24.0345 11.5504 23.6214 11.6635 23.1561L12.3988 20.1458C12.4307 20.012 12.5081 19.8935 12.6178 19.8105C12.7275 19.7275 12.8626 19.6852 13.0001 19.6908C13.5932 19.6908 13.6216 20.2433 13.7638 20.8202C13.793 20.9211 13.86 21.0067 13.951 21.0592C14.042 21.1117 14.1497 21.127 14.2517 21.1018C14.3536 21.0765 14.4418 21.0128 14.4978 20.924C14.5538 20.8351 14.5732 20.728 14.5519 20.6252Z" fill="#06C07D"/>
<path d="M21.7994 11.2329C22.1881 10.9325 22.6649 10.7683 23.1562 10.7657C23.264 10.7657 23.3673 10.7229 23.4435 10.6467C23.5197 10.5706 23.5625 10.4672 23.5625 10.3595C23.5625 10.2517 23.5197 10.1484 23.4435 10.0722C23.3673 9.99603 23.264 9.95323 23.1562 9.95323C22.8627 9.95376 22.5719 9.89633 22.3005 9.78424C22.0292 9.67214 21.7827 9.50758 21.5751 9.29999C21.3675 9.0924 21.2029 8.84587 21.0908 8.57454C20.9787 8.30322 20.9213 8.01242 20.9219 7.71885C20.9219 7.61111 20.8791 7.50778 20.8029 7.43159C20.7267 7.3554 20.6233 7.3126 20.5156 7.3126C20.4079 7.3126 20.3045 7.3554 20.2283 7.43159C20.1522 7.50778 20.1094 7.61111 20.1094 7.71885C20.1089 7.90782 20.0857 8.09605 20.0403 8.27948C19.1675 7.50553 18.0699 7.03144 16.9081 6.92666C14.4706 6.71541 13.9465 8.0926 11.379 7.20698C10.6032 6.94339 9.77862 6.85525 8.96464 6.94893C8.15066 7.04261 7.36762 7.31576 6.67198 7.74869C5.97634 8.18161 5.38546 8.76353 4.94193 9.45245C4.4984 10.1414 4.21329 10.9202 4.10717 11.7326C4.0937 11.8403 4.12358 11.949 4.19025 12.0347C4.25691 12.1204 4.35489 12.1762 4.46264 12.1896C4.57038 12.2031 4.67906 12.1732 4.76477 12.1066C4.85048 12.0399 4.9062 11.9419 4.91967 11.8342C5.01 11.1414 5.25295 10.4774 5.631 9.88994C6.00905 9.30249 6.51277 8.80626 7.10582 8.43706C7.69888 8.06785 8.36649 7.83488 9.06049 7.75494C9.75449 7.675 10.4576 7.75009 11.119 7.97479C12.3427 8.3992 13.6735 8.3992 14.8972 7.97479C15.7161 7.69384 16.5968 7.64534 17.4416 7.83466C18.2863 8.02398 19.0621 8.44373 19.6828 9.04729C19.4746 9.33052 19.2022 9.56031 18.8879 9.7178C18.5736 9.87529 18.2265 9.95597 17.875 9.95323C17.7672 9.95323 17.6639 9.99603 17.5877 10.0722C17.5115 10.1484 17.4687 10.2517 17.4687 10.3595C17.4687 10.4672 17.5115 10.5706 17.5877 10.6467C17.6639 10.7229 17.7672 10.7657 17.875 10.7657C18.4672 10.7668 19.0349 11.0026 19.4537 11.4213C19.8725 11.8401 20.1083 12.4078 20.1094 13.0001C20.1094 13.1078 20.1522 13.2112 20.2283 13.2874C20.3045 13.3636 20.4079 13.4064 20.5156 13.4064C20.6233 13.4064 20.7267 13.3636 20.8029 13.2874C20.8791 13.2112 20.9219 13.1078 20.9219 13.0001C20.923 12.7013 20.9838 12.4057 21.1006 12.1307C21.1985 13.3278 20.8221 14.5155 20.0525 15.4376C19.2777 16.4048 18.7518 17.5472 18.5209 18.7648C17.5947 23.3067 17.6759 23.3189 17.2087 23.6967C17.0386 23.8353 16.8362 23.9286 16.6204 23.9679C16.4045 24.0072 16.1822 23.9913 15.9742 23.9215C15.7661 23.8518 15.5791 23.7305 15.4306 23.569C15.2821 23.4075 15.1768 23.211 15.1247 22.9979L14.9297 22.1854C14.9005 22.0845 14.8334 21.9988 14.7425 21.9463C14.6515 21.8938 14.5438 21.8786 14.4418 21.9038C14.3399 21.9291 14.2516 21.9928 14.1957 22.0816C14.1397 22.1705 14.1203 22.2776 14.1415 22.3804L14.3365 23.1929C14.4222 23.5383 14.5935 23.8566 14.8347 24.1183C15.0759 24.3799 15.3792 24.5765 15.7166 24.6899C16.0539 24.8033 16.4144 24.8298 16.7646 24.767C17.1149 24.7041 17.4437 24.554 17.7206 24.3304C18.4884 23.7089 18.4194 23.3189 19.3172 18.9273C19.5209 17.8409 19.9882 16.8212 20.6781 15.9576C21.2165 15.3098 21.5979 14.5463 21.7924 13.7267C21.9869 12.9071 21.9893 12.0536 21.7994 11.2329ZM20.5156 11.4807C20.2469 11.0149 19.8602 10.6282 19.3944 10.3595C19.6232 10.2209 19.8369 10.0589 20.0322 9.87604C20.8447 9.06354 20.1622 9.03104 21.0031 9.87604C21.844 10.721 21.8156 10.0142 21.0031 10.847C20.8122 11.0348 20.6482 11.2481 20.5156 11.4807Z" fill="#06C07D"/>
<path d="M13.0001 10.4486C14.3914 10.4226 15.7543 10.0498 16.9651 9.36389C17.0386 9.30213 17.0879 9.21629 17.1042 9.12161C17.1205 9.02694 17.1027 8.92956 17.054 8.84676C17.0053 8.76396 16.9288 8.70109 16.8382 8.66933C16.7475 8.63757 16.6485 8.63896 16.5588 8.67326C15.4677 9.27694 14.2467 9.6073 13.0001 9.63608C11.759 9.6047 10.5438 9.27442 9.45756 8.67326C9.36783 8.63896 9.26884 8.63757 9.17818 8.66933C9.08752 8.70109 9.01105 8.76396 8.96234 8.84676C8.91363 8.92956 8.89585 9.02694 8.91213 9.12161C8.92842 9.21629 8.97773 9.30213 9.05131 9.36389C10.2573 10.0472 11.6142 10.4199 13.0001 10.4486Z" fill="#06C07D"/>
<path d="M2.4375 12.5938H1.21875C1.11101 12.5938 1.00767 12.6366 0.931488 12.7127C0.855301 12.7889 0.8125 12.8923 0.8125 13C0.8125 13.1077 0.855301 13.2111 0.931488 13.2873C1.00767 13.3634 1.11101 13.4062 1.21875 13.4062H2.4375C2.54524 13.4062 2.64858 13.3634 2.72476 13.2873C2.80095 13.2111 2.84375 13.1077 2.84375 13C2.84375 12.8923 2.80095 12.7889 2.72476 12.7127C2.64858 12.6366 2.54524 12.5938 2.4375 12.5938Z" fill="#06C07D"/>
<path d="M24.7812 12.5938H23.5625C23.4548 12.5938 23.3514 12.6366 23.2752 12.7127C23.1991 12.7889 23.1562 12.8923 23.1562 13C23.1562 13.1077 23.1991 13.2111 23.2752 13.2873C23.3514 13.3634 23.4548 13.4062 23.5625 13.4062H24.7812C24.889 13.4062 24.9923 13.3634 25.0685 13.2873C25.1447 13.2111 25.1875 13.1077 25.1875 13C25.1875 12.8923 25.1447 12.7889 25.0685 12.7127C24.9923 12.6366 24.889 12.5938 24.7812 12.5938Z" fill="#06C07D"/>
<path d="M13.4062 2.4375V1.21875C13.4062 1.11101 13.3634 1.00767 13.2873 0.931488C13.2111 0.855301 13.1077 0.8125 13 0.8125C12.8923 0.8125 12.7889 0.855301 12.7127 0.931488C12.6366 1.00767 12.5938 1.11101 12.5938 1.21875V2.4375C12.5938 2.54524 12.6366 2.64858 12.7127 2.72476C12.7889 2.80095 12.8923 2.84375 13 2.84375C13.1077 2.84375 13.2111 2.80095 13.2873 2.72476C13.3634 2.64858 13.4062 2.54524 13.4062 2.4375Z" fill="#06C07D"/>
<path d="M3.65625 17.9277L2.60406 18.5371C2.51032 18.591 2.44183 18.6799 2.41364 18.7843C2.38545 18.8886 2.39988 18.9999 2.45375 19.0937C2.50762 19.1874 2.59652 19.2559 2.7009 19.2841C2.80527 19.3123 2.91657 19.2979 3.01031 19.244L4.0625 18.6346C4.15624 18.5807 4.22473 18.4918 4.25292 18.3875C4.28111 18.2831 4.26668 18.1718 4.21281 18.0781C4.15894 17.9843 4.07004 17.9158 3.96566 17.8876C3.86128 17.8594 3.74999 17.8739 3.65625 17.9277Z" fill="#06C07D"/>
<path d="M22.1488 8.12494C22.295 8.12494 22.2463 8.12494 23.4041 7.46275C23.4978 7.40888 23.5663 7.31997 23.5945 7.2156C23.6227 7.11122 23.6083 6.99992 23.5544 6.90619C23.5277 6.85977 23.4922 6.81907 23.4498 6.78639C23.4074 6.75372 23.359 6.72972 23.3073 6.71576C23.2029 6.68757 23.0916 6.702 22.9979 6.75587L21.9375 7.36525C21.8586 7.4099 21.7969 7.47969 21.7622 7.5635C21.7275 7.6473 21.7219 7.7403 21.7462 7.82768C21.7705 7.91506 21.8233 7.9918 21.8963 8.04567C21.9692 8.09954 22.0581 8.12744 22.1488 8.12494Z" fill="#06C07D"/>
<path d="M7.36537 4.06238C7.41924 4.15611 7.50815 4.22461 7.61252 4.2528C7.7169 4.28099 7.8282 4.26656 7.92193 4.21269C8.01567 4.15882 8.08417 4.06991 8.11236 3.96554C8.14055 3.86116 8.12612 3.74986 8.07225 3.65613L7.46287 2.60394C7.4362 2.55753 7.40064 2.51682 7.35823 2.48415C7.31583 2.45147 7.2674 2.42747 7.21572 2.41352C7.11134 2.38533 7.00005 2.39975 6.90631 2.45363C6.81257 2.5075 6.74407 2.5964 6.71588 2.70078C6.68769 2.80515 6.70212 2.91645 6.75599 3.01019L7.36537 4.06238Z" fill="#06C07D"/>
<path d="M18.6347 4.06238L19.2441 3.01019C19.2708 2.96377 19.2881 2.91256 19.2949 2.85947C19.3018 2.80638 19.2982 2.75246 19.2842 2.70078C19.2703 2.64909 19.2463 2.60067 19.2136 2.55826C19.1809 2.51586 19.1402 2.4803 19.0938 2.45363C19.0474 2.42695 18.9962 2.40968 18.9431 2.4028C18.89 2.39591 18.8361 2.39956 18.7844 2.41351C18.7327 2.42747 18.6843 2.45147 18.6419 2.48415C18.5995 2.51682 18.5639 2.55752 18.5372 2.60394L17.9279 3.65613C17.9012 3.70254 17.8839 3.75375 17.877 3.80684C17.8702 3.85993 17.8738 3.91386 17.8878 3.96554C17.9017 4.01722 17.9257 4.06565 17.9584 4.10805C17.9911 4.15046 18.0318 4.18601 18.0782 4.21269C18.1246 4.23936 18.1758 4.25663 18.2289 4.26352C18.282 4.2704 18.3359 4.26676 18.3876 4.2528C18.4393 4.23884 18.4877 4.21484 18.5301 4.18217C18.5725 4.1495 18.6081 4.10879 18.6347 4.06238Z" fill="#06C07D"/>
<path d="M2.59588 7.46275C3.7537 8.12494 3.70901 8.12494 3.85119 8.12494C3.94115 8.12556 4.02876 8.09632 4.1003 8.04179C4.17184 7.98726 4.22326 7.91053 4.2465 7.82363C4.26973 7.73673 4.26347 7.64458 4.22869 7.56162C4.19391 7.47866 4.13258 7.4096 4.05432 7.36525L3.00213 6.75587C2.9084 6.702 2.7971 6.68757 2.69272 6.71576C2.58834 6.74395 2.49944 6.81245 2.44557 6.90619C2.3917 6.99992 2.37727 7.11122 2.40546 7.2156C2.43365 7.31997 2.50215 7.40888 2.59588 7.46275Z" fill="#06C07D"/>
<path d="M23.4041 18.5371L22.3438 17.9277C22.2501 17.8739 22.1388 17.8594 22.0344 17.8876C21.93 17.9158 21.8411 17.9843 21.7872 18.0781C21.7334 18.1718 21.7189 18.2831 21.7471 18.3875C21.7753 18.4918 21.8438 18.5807 21.9376 18.6346L22.9897 19.244C23.0835 19.2989 23.1952 19.3144 23.3003 19.287C23.4055 19.2596 23.4954 19.1915 23.5504 19.0977C23.6053 19.004 23.6208 18.8923 23.5934 18.7871C23.5659 18.682 23.4979 18.5921 23.4041 18.5371Z" fill="#06C07D"/>
</svg>
