<svg width="15" height="14" viewBox="0 0 15 14" fill="none" xmlns="http://www.w3.org/2000/svg">
<g id="add-user 1" clip-path="url(#clip0_1840_6673)">
<g id="Group">
<g id="Group_2">
<path id="Vector" d="M10.7892 7.14746C10.525 7.02186 10.2554 6.91366 9.98106 6.82302C10.8695 6.15614 11.4453 5.09425 11.4453 3.90039C11.4453 1.8865 9.80688 0.248047 7.79296 0.248047C5.77904 0.248047 4.14062 1.8865 4.14062 3.90039C4.14062 5.09557 4.71769 6.15851 5.60781 6.82525C4.79226 7.09375 4.02702 7.51154 3.35724 8.06245C2.12909 9.07267 1.27516 10.4818 0.952817 12.0302C0.851787 12.5153 0.972824 13.0137 1.28483 13.3973C1.59531 13.7791 2.05569 13.998 2.5479 13.998H9.16259C9.45923 13.998 9.6997 13.7576 9.6997 13.4609C9.6997 13.1643 9.45923 12.9238 9.16259 12.9238H2.5479C2.31861 12.9238 2.18027 12.7958 2.11824 12.7196C2.01111 12.5878 1.96965 12.4164 2.00448 12.2491C2.56186 9.57173 4.92343 7.61595 7.65057 7.55C7.69781 7.55182 7.74526 7.55273 7.79296 7.55273C7.84111 7.55273 7.88905 7.5518 7.93674 7.54994C8.77249 7.56955 9.57627 7.76027 10.3281 8.11767C10.596 8.24496 10.9164 8.13107 11.0437 7.86313C11.1711 7.59522 11.0572 7.27481 10.7892 7.14746ZM7.92396 6.47521C7.88037 6.47443 7.83671 6.47403 7.79296 6.47403C7.74961 6.47403 7.70627 6.47446 7.66298 6.47527C6.30154 6.40735 5.21483 5.2784 5.21483 3.90039C5.21483 2.4788 6.37137 1.32227 7.79296 1.32227C9.21455 1.32227 10.3711 2.4788 10.3711 3.90039C10.3711 5.27805 9.28491 6.40679 7.92396 6.47521Z" fill="#05C882"/>
</g>
</g>
<g id="Group_3">
<g id="Group_4">
<path id="Vector_2" d="M14.1279 10.9126H12.6509V9.43555C12.6509 9.1389 12.4104 8.89844 12.1138 8.89844C11.8171 8.89844 11.5767 9.1389 11.5767 9.43555V10.9126H10.0996C9.80296 10.9126 9.5625 11.1531 9.5625 11.4497C9.5625 11.7464 9.80296 11.9868 10.0996 11.9868H11.5767V13.4639C11.5767 13.7605 11.8171 14.001 12.1138 14.001C12.4104 14.001 12.6509 13.7605 12.6509 13.4639V11.9868H14.1279C14.4246 11.9868 14.665 11.7464 14.665 11.4497C14.665 11.1531 14.4246 10.9126 14.1279 10.9126Z" fill="#05C882"/>
</g>
</g>
</g>
<defs>
<clipPath id="clip0_1840_6673">
<rect width="13.75" height="13.75" fill="white" transform="translate(0.916016 0.25)"/>
</clipPath>
</defs>
</svg>
