<svg width="24" height="24" viewBox="0 0 24 24" fill="none" xmlns="http://www.w3.org/2000/svg">
<mask id="mask0_2129_6676" style="mask-type:luminance" maskUnits="userSpaceOnUse" x="0" y="0" width="24" height="24">
<path d="M0 0H24V24H0V0Z" fill="white"/>
</mask>
<g mask="url(#mask0_2129_6676)">
<path d="M10.7782 8.74814C10.8267 7.97227 10.2383 7.30613 9.46239 7.25658C8.68745 7.20806 8.01986 7.79695 7.97083 8.57236C7.88322 9.9713 8.21505 11.3501 8.90242 12.5391" stroke="white" stroke-width="1.2" stroke-miterlimit="10"/>
<path d="M8.3213 15.6797C9.52913 14.4718 9.40875 12.4387 7.96008 11.3954C6.82322 10.5767 5.22806 10.8179 4.23741 11.8086L4.18533 11.8607C3.63614 12.4099 3.63614 13.3003 4.18533 13.8494C4.73452 14.3986 5.62491 14.3986 6.17409 13.8494L6.33258 13.691L6.34688 13.71C6.02133 14.1409 5.40895 16.7448 7.32694 18.6628C8.97445 20.3103 11.6456 20.3103 13.2931 18.6628L13.9892 17.9668C15.317 16.6389 16.0027 14.9122 16.0464 13.1724C16.047 13.1479 16.0475 13.1234 16.0478 13.0989C16.7506 12.9163 17.416 12.5512 17.9667 12.0005C19.6142 10.353 19.6142 7.68182 17.9667 6.0343C16.3192 4.38679 13.648 4.38679 12.0005 6.0343C10.353 7.68182 10.353 10.353 12.0005 12.0005C12.4152 12.4153 12.8948 12.7256 13.4067 12.9316" stroke="white" stroke-width="1.2" stroke-miterlimit="10"/>
<path d="M12 23.2969C5.78681 23.2969 0.703125 18.2132 0.703125 12C0.703125 5.78681 5.78681 0.703125 12 0.703125C18.2132 0.703125 23.2969 5.78681 23.2969 12C23.2969 18.2132 18.2132 23.2969 12 23.2969Z" stroke="white" stroke-width="1.2" stroke-miterlimit="10"/>
<path d="M4.42969 3.67861C4.67508 4.10855 4.87955 4.5645 5.03841 5.04108C5.56537 6.62198 6.59423 7.97597 7.95422 8.90625" stroke="white" stroke-width="1.2" stroke-miterlimit="10"/>
</g>
</svg>
