<svg width="20" height="20" viewBox="0 0 20 20" fill="none" xmlns="http://www.w3.org/2000/svg">
<path fill-rule="evenodd" clip-rule="evenodd" d="M15.51 9.3125C14.7929 9.33102 14.1115 9.62887 13.6109 10.1426C13.1102 10.6563 12.8301 11.3452 12.8301 12.0625C12.8301 12.7798 13.1102 13.4687 13.6109 13.9824C14.1115 14.4961 14.7929 14.794 15.51 14.8125C16.227 14.794 16.9085 14.4961 17.4091 13.9824C17.9097 13.4687 18.1899 12.7798 18.1899 12.0625C18.1899 11.3452 17.9097 10.6563 17.4091 10.1426C16.9085 9.62887 16.227 9.33102 15.51 9.3125ZM15.51 10.6875C15.6906 10.6876 15.8695 10.7232 16.0363 10.7924C16.2032 10.8616 16.3548 10.9629 16.4824 11.0907C16.6101 11.2185 16.7114 11.3701 16.7805 11.537C16.8495 11.7039 16.885 11.8828 16.885 12.0634C16.8849 12.244 16.8493 12.4229 16.7801 12.5897C16.7109 12.7566 16.6096 12.9082 16.4818 13.0359C16.354 13.1636 16.2024 13.2648 16.0355 13.3339C15.8686 13.403 15.6897 13.4385 15.5091 13.4384C15.1443 13.4383 14.7945 13.2933 14.5366 13.0352C14.2787 12.7772 14.1339 12.4273 14.1341 12.0625C14.1342 11.6977 14.2792 11.3479 14.5373 11.09C14.7953 10.8322 15.1452 10.6874 15.51 10.6875Z" fill="#05C882"/>
<path fill-rule="evenodd" clip-rule="evenodd" d="M12.9039 19.8542C14.2972 19.8542 16.7292 19.8542 18.1225 19.8423C18.3785 19.8413 18.6305 19.7786 18.8572 19.6594C19.0838 19.5403 19.2783 19.3683 19.4243 19.158C19.5703 18.9477 19.6635 18.7053 19.6958 18.4513C19.7282 18.1973 19.6988 17.9393 19.6103 17.6991C19.3075 16.8541 18.7511 16.1233 18.0171 15.6066C17.2832 15.09 16.4076 14.8126 15.51 14.8125C14.6119 14.8144 13.736 15.0918 13.0006 15.6074C12.2652 16.1229 11.7058 16.8518 11.3978 17.6954C11.3085 17.938 11.279 18.1985 11.3121 18.4549C11.3451 18.7113 11.4396 18.9559 11.5875 19.1679C11.7354 19.3799 11.9323 19.553 12.1615 19.6725C12.3907 19.792 12.6454 19.8543 12.9039 19.8542ZM12.9039 18.4792C12.8669 18.4793 12.8295 18.4704 12.7967 18.4533C12.7638 18.4362 12.7356 18.4115 12.7145 18.3811C12.6933 18.3507 12.6798 18.3157 12.6751 18.279C12.6704 18.2423 12.6747 18.205 12.6876 18.1703L12.6885 18.1693C12.8994 17.5899 13.2831 17.0892 13.7876 16.7348C14.2922 16.3804 14.8934 16.1893 15.51 16.1875C16.8043 16.1875 17.9062 17.0143 18.3178 18.1675L18.3196 18.1748C18.3319 18.2076 18.336 18.2428 18.3316 18.2775C18.3271 18.3122 18.3142 18.3452 18.2939 18.3738C18.2741 18.4026 18.2476 18.4262 18.2166 18.4425C18.1856 18.4588 18.1511 18.4673 18.1161 18.4673H18.1106C16.72 18.4792 14.2936 18.4792 12.9039 18.4792ZM17.875 7.25001V4.95834C17.875 4.04666 17.5128 3.17232 16.8682 2.52766C16.2235 1.88301 15.3492 1.52084 14.4375 1.52084H3.4375C2.52582 1.52084 1.65148 1.88301 1.00682 2.52766C0.362164 3.17232 0 4.04666 0 4.95834V15.9583C0 16.87 0.362164 17.7444 1.00682 18.389C1.65148 19.0337 2.52582 19.3958 3.4375 19.3958H8.9375C9.11984 19.3958 9.2947 19.3234 9.42364 19.1945C9.55257 19.0655 9.625 18.8907 9.625 18.7083C9.625 18.526 9.55257 18.3511 9.42364 18.2222C9.2947 18.0933 9.11984 18.0208 8.9375 18.0208H3.4375C2.89049 18.0208 2.36589 17.8035 1.97909 17.4168C1.5923 17.03 1.375 16.5054 1.375 15.9583V4.95834C1.375 4.41133 1.5923 3.88673 1.97909 3.49994C2.36589 3.11314 2.89049 2.89584 3.4375 2.89584H14.4375C14.9845 2.89584 15.5091 3.11314 15.8959 3.49994C16.2827 3.88673 16.5 4.41133 16.5 4.95834V7.25001C16.5 7.43235 16.5724 7.60721 16.7014 7.73615C16.8303 7.86508 17.0052 7.93751 17.1875 7.93751C17.3698 7.93751 17.5447 7.86508 17.6736 7.73615C17.8026 7.60721 17.875 7.43235 17.875 7.25001Z" fill="#05C882"/>
<path fill-rule="evenodd" clip-rule="evenodd" d="M4.35449 0.833344V3.58334C4.35449 3.76568 4.42692 3.94055 4.55586 4.06948C4.68479 4.19841 4.85966 4.27084 5.04199 4.27084C5.22433 4.27084 5.3992 4.19841 5.52813 4.06948C5.65706 3.94055 5.72949 3.76568 5.72949 3.58334V0.833344C5.72949 0.651007 5.65706 0.476139 5.52813 0.347208C5.3992 0.218276 5.22433 0.145844 5.04199 0.145844C4.85966 0.145844 4.68479 0.218276 4.55586 0.347208C4.42692 0.476139 4.35449 0.651007 4.35449 0.833344ZM12.1462 0.833344V3.58334C12.1462 3.76568 12.2186 3.94055 12.3475 4.06948C12.4765 4.19841 12.6513 4.27084 12.8337 4.27084C13.016 4.27084 13.1909 4.19841 13.3198 4.06948C13.4487 3.94055 13.5212 3.76568 13.5212 3.58334V0.833344C13.5212 0.651007 13.4487 0.476139 13.3198 0.347208C13.1909 0.218276 13.016 0.145844 12.8337 0.145844C12.6513 0.145844 12.4765 0.218276 12.3475 0.347208C12.2186 0.476139 12.1462 0.651007 12.1462 0.833344ZM4.35449 8.85418H7.19616C7.3785 8.85418 7.55336 8.78174 7.68229 8.65281C7.81123 8.52388 7.88366 8.34901 7.88366 8.16668C7.88366 7.98434 7.81123 7.80947 7.68229 7.68054C7.55336 7.55161 7.3785 7.47918 7.19616 7.47918H4.35449C4.17216 7.47918 3.99729 7.55161 3.86836 7.68054C3.73942 7.80947 3.66699 7.98434 3.66699 8.16668C3.66699 8.34901 3.73942 8.52388 3.86836 8.65281C3.99729 8.78174 4.17216 8.85418 4.35449 8.85418ZM4.35449 12.5208H8.93783C9.12016 12.5208 9.29503 12.4484 9.42396 12.3195C9.55289 12.1905 9.62533 12.0157 9.62533 11.8333C9.62533 11.651 9.55289 11.4761 9.42396 11.3472C9.29503 11.2183 9.12016 11.1458 8.93783 11.1458H4.35449C4.17216 11.1458 3.99729 11.2183 3.86836 11.3472C3.73942 11.4761 3.66699 11.651 3.66699 11.8333C3.66699 12.0157 3.73942 12.1905 3.86836 12.3195C3.99729 12.4484 4.17216 12.5208 4.35449 12.5208Z" fill="#05C882"/>
</svg>
