<svg width="201" height="207" viewBox="0 0 201 207" fill="none" xmlns="http://www.w3.org/2000/svg">
<path d="M197.548 188.339V188.249L197.542 188.16C195.142 154.669 184.465 123.463 167.514 96.5722L165.399 97.9053L167.514 96.5721C150.675 69.8597 127.651 47.4167 100.444 31.2658L100.441 31.2645C96.9493 29.1964 93.3915 27.2312 89.7679 25.3688L89.7675 25.3686C62.9083 11.5701 32.4829 3.69245 0.237032 3.49443L-2.27832 3.47899V5.99438V92.7339V95.2047L0.192223 95.2338C11.009 95.3612 21.4381 97.0817 31.2478 100.181L31.2497 100.181C53.825 107.293 73.2001 121.689 86.5848 140.59L86.5856 140.592C90.4107 145.987 93.7662 151.762 96.5468 157.831L96.5478 157.833C102.643 171.101 106.127 185.857 106.297 201.403L106.324 203.876H108.797H195.048H197.548V201.376V188.339Z" fill="#E9E7FF" stroke="#E9E7FF" stroke-width="5"/>
</svg>
