<svg width="20" height="20" viewBox="0 0 20 20" fill="none" xmlns="http://www.w3.org/2000/svg">
<g id="bell 1">
<g id="28">
<path id="Vector" d="M17.5424 14.1625L16.4736 12.625C16.3277 12.416 16.2492 12.1674 16.2486 11.9125V7.5C16.2486 5.8424 15.5901 4.25268 14.418 3.08058C13.2459 1.90848 11.6562 1.25 9.99862 1.25C8.34101 1.25 6.7513 1.90848 5.5792 3.08058C4.40709 4.25268 3.74862 5.8424 3.74862 7.5V11.9125C3.74801 12.1674 3.6695 12.416 3.52361 12.625L2.45487 14.1625C2.29304 14.3418 2.18663 14.5641 2.14849 14.8026C2.11036 15.0411 2.14214 15.2856 2.23999 15.5064C2.33783 15.7272 2.49756 15.915 2.69985 16.0469C2.90215 16.1789 3.13834 16.2494 3.37986 16.25H6.93612C7.07956 16.9564 7.46282 17.5915 8.02095 18.0477C8.57909 18.5039 9.27777 18.7531 9.99862 18.7531C10.7195 18.7531 11.4181 18.5039 11.9763 18.0477C12.5344 17.5915 12.9177 16.9564 13.0611 16.25H16.6174C16.8589 16.2494 17.0951 16.1789 17.2974 16.0469C17.4997 15.915 17.6594 15.7272 17.7572 15.5064C17.8551 15.2856 17.8869 15.0411 17.8487 14.8026C17.8106 14.5641 17.7042 14.3418 17.5424 14.1625ZM9.99862 17.5C9.61177 17.4989 9.23474 17.3782 8.9192 17.1544C8.60366 16.9306 8.36506 16.6147 8.23612 16.25H11.7611C11.6322 16.6147 11.3936 16.9306 11.078 17.1544C10.7625 17.3782 10.3855 17.4989 9.99862 17.5ZM3.37986 15C3.40811 14.9738 3.43328 14.9444 3.45487 14.9125L4.54862 13.3375C4.84039 12.9195 4.99741 12.4223 4.99861 11.9125V7.5C4.99861 6.17392 5.5254 4.90215 6.46308 3.96447C7.40076 3.02678 8.67253 2.5 9.99862 2.5C11.3247 2.5 12.5965 3.02678 13.5341 3.96447C14.4718 4.90215 14.9986 6.17392 14.9986 7.5V11.9125C14.9998 12.4223 15.1568 12.9195 15.4486 13.3375L16.5424 14.9125C16.564 14.9444 16.5891 14.9738 16.6174 15H3.37986Z" fill="white"/>
</g>
</g>
</svg>
