<svg width="18" height="18" viewBox="0 0 18 18" fill="none" xmlns="http://www.w3.org/2000/svg">
<path d="M14.3212 4.24123H13.5994V2.79753C13.5994 2.60609 13.5233 2.42248 13.388 2.28711C13.2526 2.15174 13.069 2.07568 12.8775 2.07568C12.6861 2.07568 12.5025 2.15174 12.3671 2.28711C12.2317 2.42248 12.1557 2.60609 12.1557 2.79753V4.24123H6.3809V2.79753C6.3809 2.60609 6.30485 2.42248 6.16947 2.28711C6.0341 2.15174 5.85049 2.07568 5.65905 2.07568C5.4676 2.07568 5.284 2.15174 5.14862 2.28711C5.01325 2.42248 4.9372 2.60609 4.9372 2.79753V4.24123H4.21535C3.64101 4.24123 3.0902 4.46939 2.68408 4.8755C2.27796 5.28162 2.0498 5.83244 2.0498 6.40678V7.12863H16.4868V6.40678C16.4868 5.83244 16.2586 5.28162 15.8525 4.8755C15.4464 4.46939 14.8956 4.24123 14.3212 4.24123Z" fill="#05C882"/>
<path d="M2.0498 14.3466C2.0498 14.9209 2.27796 15.4717 2.68408 15.8778C3.0902 16.284 3.64101 16.5121 4.21535 16.5121H14.3212C14.8956 16.5121 15.4464 16.284 15.8525 15.8778C16.2586 15.4717 16.4868 14.9209 16.4868 14.3466V8.57178H2.0498V14.3466Z" fill="#05C882"/>
</svg>
