<svg width="12" height="12" viewBox="0 0 12 12" fill="none" xmlns="http://www.w3.org/2000/svg">
<path d="M11.8566 8.92798C11.7603 8.713 11.6056 8.52934 11.4101 8.39785L9.55692 7.08201C9.41051 6.97914 9.25356 6.89215 9.08873 6.82253C8.91549 6.7449 8.72615 6.70996 8.53662 6.72065C8.34708 6.73133 8.16287 6.78731 7.99945 6.88391C7.81358 6.98621 7.64426 7.11602 7.49722 7.26895L7.09487 7.64339C6.86382 7.51237 6.64738 7.35711 6.44923 7.18022C6.15337 6.9261 5.86691 6.66123 5.59042 6.38614C5.33261 6.12387 5.07368 5.84206 4.80192 5.52677C4.63181 5.33481 4.47888 5.12829 4.34489 4.90959C4.34053 4.89665 4.33588 4.88381 4.33094 4.87108L4.71152 4.476C4.85619 4.33491 4.9817 4.17544 5.08484 4.00167C5.20029 3.81765 5.26213 3.60507 5.26341 3.38783C5.2599 3.21575 5.22195 3.04612 5.1518 2.88895C5.081 2.72064 4.99033 2.5614 4.88172 2.41462L3.59099 0.592647C3.45594 0.396179 3.27051 0.239668 3.05416 0.139524C2.85638 0.046659 2.6404 -0.00099717 2.42191 1.58169e-05C2.14992 0.0048888 1.88165 0.0641829 1.63294 0.1744C1.38424 0.284618 1.16012 0.443527 0.973813 0.641754C0.649455 0.941476 0.395759 1.30954 0.231071 1.71931C0.0762431 2.11175 -0.00217159 2.53015 4.57425e-05 2.95201C0.0114829 3.63652 0.159265 4.31188 0.434753 4.93861C0.741523 5.63982 1.124 6.30541 1.57537 6.92353C2.06139 7.5882 2.59675 8.21534 3.17693 8.79963C3.76208 9.38161 4.38995 9.91901 5.05526 10.4073C5.67695 10.8656 6.34866 11.2518 7.05749 11.5585C7.68181 11.838 8.35626 11.9882 9.04018 12C9.46792 12.0023 9.89187 11.9196 10.2874 11.7567C10.6966 11.5864 11.0614 11.3247 11.3538 10.9916C11.5355 10.7921 11.686 10.5664 11.8002 10.3219C11.9178 10.0763 11.9792 9.80749 11.9799 9.53512C11.9793 9.32658 11.9374 9.12023 11.8566 8.92798ZM11.0441 9.9609C10.9648 10.1312 10.8602 10.2885 10.7338 10.4274C10.5237 10.6677 10.2617 10.857 9.96763 10.981C9.54607 11.1227 9.10038 11.1785 8.6569 11.145C8.21342 11.1116 7.78115 10.9896 7.38561 10.7862C6.7353 10.5045 6.11902 10.1499 5.54857 9.72932C4.9184 9.26778 4.32338 8.76006 3.76844 8.21035C3.21908 7.65751 2.71207 7.06414 2.25171 6.43525C1.8375 5.86862 1.48681 5.25819 1.20595 4.61495C0.973906 4.09059 0.848518 3.5253 0.837095 2.95201C0.834978 2.63579 0.893512 2.32209 1.00953 2.02791C1.13032 1.72857 1.31639 1.45995 1.55417 1.24164C1.66411 1.11924 1.79764 1.02032 1.94675 0.950795C2.09586 0.881273 2.25748 0.84259 2.42191 0.837065C2.51833 0.836397 2.61368 0.857373 2.70092 0.898449C2.78489 0.936931 2.85683 0.997494 2.90907 1.07367L4.20482 2.90123C4.27636 2.99716 4.33612 3.10132 4.38284 3.21149C4.40873 3.26676 4.42406 3.32638 4.42804 3.38727C4.42548 3.45531 4.40382 3.52126 4.36554 3.57756C4.29583 3.69209 4.21161 3.79712 4.11498 3.89006L3.69534 4.32477C3.62648 4.39254 3.57209 4.47357 3.53545 4.56296C3.49881 4.65236 3.48068 4.74826 3.48217 4.84486C3.48323 4.93947 3.49789 5.03343 3.5257 5.12387L3.59545 5.29128C3.75952 5.57085 3.95013 5.83397 4.16464 6.07699C4.45147 6.40846 4.72268 6.70311 4.99667 6.9838C5.28917 7.27568 5.59277 7.5562 5.90682 7.82475C6.1515 8.03976 6.4178 8.22883 6.70146 8.38892L6.8499 8.45477C6.98724 8.50511 7.1359 8.5161 7.27915 8.48653C7.4224 8.45695 7.55455 8.38797 7.66072 8.28736L8.08594 7.8666C8.18024 7.76734 8.28898 7.68287 8.40848 7.61605C8.4586 7.57394 8.52123 7.54958 8.58663 7.54676C8.65203 7.54393 8.71653 7.5628 8.77009 7.60042C8.87809 7.64689 8.98096 7.70449 9.07701 7.7723L10.928 9.08646C10.9949 9.12648 11.0492 9.18449 11.0848 9.25387C11.1231 9.34195 11.1432 9.43685 11.144 9.53289C11.143 9.68123 11.1089 9.82747 11.0441 9.9609Z" fill="#F8F9FD"/>
</svg>
