<svg width="19" height="19" viewBox="0 0 19 19" fill="none" xmlns="http://www.w3.org/2000/svg">
<g clip-path="url(#clip0_778_9)">
<path d="M12.3582 10.6063C12.3582 12.2682 11.0062 13.6202 9.34422 13.6202C7.68223 13.6202 6.33074 12.2682 6.33074 10.6063C6.33074 8.94427 7.68223 7.59226 9.34422 7.59226C11.0062 7.59226 12.3582 8.94478 12.3582 10.6063ZM18.6884 6.32652V15.887C18.6884 17.0282 17.7632 17.9535 16.6219 17.9535H2.0665C0.925277 17.9535 0 17.0282 0 15.887V6.32652C0 5.1853 0.925277 4.26002 2.0665 4.26002H4.6083V3.54501C4.6083 2.54637 5.41734 1.73682 6.4165 1.73682H12.2719C13.2711 1.73682 14.0801 2.54637 14.0801 3.54501V4.2595H16.6219C17.7632 4.26002 18.6884 5.1853 18.6884 6.32652ZM13.9081 10.6063C13.9081 8.08977 11.8607 6.04238 9.34422 6.04238C6.82825 6.04238 4.78086 8.08977 4.78086 10.6063C4.78086 13.1227 6.82825 15.1701 9.34422 15.1701C11.8607 15.1701 13.9081 13.1227 13.9081 10.6063Z" fill="#8D8DA3"/>
</g>
<defs>
<clipPath id="clip0_778_9">
<rect width="18.6884" height="18.6884" fill="white"/>
</clipPath>
</defs>
</svg>
