<svg width="12" height="10" viewBox="0 0 12 10" fill="none" xmlns="http://www.w3.org/2000/svg">
<path d="M7.93531 5.80964C7.93531 6.87682 7.06718 7.74496 6 7.74496C4.93282 7.74496 4.06502 6.87682 4.06502 5.80964C4.06502 4.74247 4.93282 3.87433 6 3.87433C7.06718 3.87433 7.93531 4.7428 7.93531 5.80964ZM12 3.06159V8.55836C12 9.29115 11.4059 9.88528 10.6731 9.88528H1.32692C0.594128 9.88528 0 9.29115 0 8.55836V3.06159C0 2.3288 0.594128 1.73467 1.32692 1.73467H2.95903V1.27556C2.95903 0.634323 3.47852 0.114502 4.12009 0.114502H7.87991C8.52148 0.114502 9.04097 0.634323 9.04097 1.27556V1.73434H10.6731C11.4059 1.73467 12 2.3288 12 3.06159ZM8.9305 5.80964C8.9305 4.19379 7.61586 2.87914 6 2.87914C4.38448 2.87914 3.06983 4.19379 3.06983 5.80964C3.06983 7.4255 4.38448 8.74015 6 8.74015C7.61586 8.74015 8.9305 7.4255 8.9305 5.80964Z" fill="#838383"/>
</svg>
