<svg width="13" height="13" viewBox="0 0 13 13" fill="none" xmlns="http://www.w3.org/2000/svg">
<g clip-path="url(#clip0_2129_6371)">
<path d="M10.6905 2.23241C9.60561 1.14757 8.1656 0.550781 6.63136 0.550781C5.09711 0.550781 3.6571 1.14757 2.57225 2.23241C1.48741 3.31725 0.890625 4.75727 0.890625 6.29151C0.890625 7.82576 1.48741 9.26577 2.57225 10.3506C3.6571 11.4355 5.09711 12.0322 6.63136 12.0322C8.1656 12.0322 9.60561 11.4355 10.6905 10.3506C11.7753 9.26577 12.3721 7.82576 12.3721 6.29151C12.3721 4.75727 11.7753 3.31725 10.6905 2.23241ZM10.229 9.88913C9.26735 10.8508 7.98922 11.3799 6.63136 11.3799C5.27349 11.3799 3.99535 10.8508 3.03373 9.88913C1.05009 7.90549 1.05009 4.67754 3.03373 2.69389C3.99535 1.73227 5.27349 1.20314 6.63136 1.20314C7.98922 1.20314 9.26735 1.73227 10.229 2.69389C12.2126 4.67754 12.2126 7.90549 10.229 9.88913Z" fill="white"/>
<path d="M9.15933 3.7601C9.03127 3.63205 8.8259 3.63205 8.69785 3.7601L6.62964 5.82831L4.56143 3.7601C4.43337 3.63205 4.228 3.63205 4.09995 3.7601C3.97189 3.88816 3.97189 4.09353 4.09995 4.22159L6.16816 6.28979L4.09995 8.358C3.97189 8.48606 3.97189 8.69143 4.09995 8.81948C4.16277 8.8823 4.24733 8.91613 4.32948 8.91613C4.41163 8.91613 4.49619 8.88472 4.55901 8.81948L6.62722 6.75128L8.69543 8.81948C8.75825 8.8823 8.84282 8.91613 8.92496 8.91613C9.00953 8.91613 9.09168 8.88472 9.1545 8.81948C9.28255 8.69143 9.28255 8.48606 9.1545 8.358L7.09112 6.28979L9.15933 4.22159C9.28738 4.09353 9.28738 3.88816 9.15933 3.7601Z" fill="white"/>
</g>
<defs>
<clipPath id="clip0_2129_6371">
<rect width="11.4815" height="11.4815" fill="white" transform="translate(0.886719 0.550781)"/>
</clipPath>
</defs>
</svg>
