<svg width="20" height="20" viewBox="0 0 20 20" fill="none" xmlns="http://www.w3.org/2000/svg">
<g clip-path="url(#clip0_152_602)">
<path d="M7.54267 9.19977L6.50367 9.61577C6.14863 9.75677 5.74654 9.58322 5.60554 9.22822C5.53325 9.04618 5.54154 8.84202 5.62833 8.66643L5.85733 8.20843C5.98571 7.95173 5.93533 7.64168 5.73233 7.43877L4.138 5.84443L4.569 5.41343C4.69913 5.28327 4.69913 5.07227 4.569 4.9421L3.47133 3.84447L3.569 3.74681C3.69663 3.61927 3.69958 3.41331 3.57567 3.28214L0.575667 0.104475C0.44925 -0.0294001 0.238292 -0.0354001 0.104458 0.0910166C0.0378333 0.153933 4.16667e-05 0.241475 0 0.3331V4.66643C0 4.7646 0.0432917 4.85777 0.118333 4.9211L1.11833 5.76643C1.25067 5.87814 1.44654 5.86989 1.569 5.74743L1.66667 5.64877L2.76433 6.74643C2.8945 6.87656 3.1055 6.87656 3.23567 6.74643L3.66667 6.31543L5.261 7.90977L5.03333 8.36643C4.69825 9.03702 4.97025 9.85227 5.64083 10.1873C5.98779 10.3607 6.39229 10.3773 6.75233 10.2331L7.792 9.81743L7.54267 9.19977ZM1.431 4.94277L1.31433 5.05943L0.666667 4.51177V1.17177L2.86867 3.5051L2.76433 3.60943L1.431 4.94277ZM3 6.03943L2.138 5.17743L3 4.31543L3.862 5.17843L3 6.03943Z" fill="#EF0064"/>
<path d="M19.7943 9.69189C19.6697 9.64027 19.5263 9.66885 19.431 9.76422L14.7643 14.4309C14.6342 14.5611 14.6342 14.7721 14.7643 14.9022L15.0286 15.1666L13.7206 16.4746C13.2033 16.1573 12.6068 15.9928 12 15.9999C10.5296 15.9999 9.33331 16.8969 9.33331 17.9999C9.33331 19.1029 10.5296 19.9999 12 19.9999C13.4703 19.9999 14.6666 19.1029 14.6666 17.9999C14.66 17.5946 14.5049 17.2058 14.2306 16.9072L15.5 15.6379L15.7643 15.9022C15.8945 16.0324 16.1055 16.0324 16.2356 15.9022L19.9023 12.2356C19.9648 12.1731 20 12.0883 20 11.9999V9.99989C20 9.8651 19.9189 9.74356 19.7943 9.69189ZM12 19.3332C10.916 19.3332 9.99998 18.7226 9.99998 17.9999C9.99998 17.2772 10.916 16.6666 12 16.6666C13.084 16.6666 14 17.2772 14 17.9999C14 18.7226 13.084 19.3332 12 19.3332ZM19.3333 11.8619L16 15.1952L15.4713 14.6666L19.3333 10.8046V11.8619Z" fill="#EF0064"/>
<path d="M11.493 11.2643C11.3553 10.4398 10.5753 9.88289 9.75071 10.0206C9.11308 10.1271 8.61346 10.6267 8.507 11.2643L7.5 17.3063C7.42454 17.7583 6.997 18.0635 6.54504 17.9881C6.18671 17.9282 5.90896 17.6423 5.85967 17.2823L4.997 10.9546C4.99083 10.9073 4.97458 10.8618 4.94933 10.8213L4.764 10.5246C4.1995 9.62214 3.79258 8.63023 3.56067 7.59131L2.90967 7.73664C3.15842 8.84989 3.59479 9.91273 4.2 10.8796L4.34733 11.1156L5.20067 17.3723C5.31213 18.191 6.06613 18.7643 6.88479 18.6528C7.53454 18.5644 8.05096 18.0631 8.15867 17.4163L9.16567 11.3743C9.23254 10.9656 9.58592 10.6658 10 10.6663C10.4146 10.6651 10.7687 10.9651 10.8357 11.3743L11.5047 15.388L12.162 15.278L11.493 11.2643Z" fill="#EF0064"/>
<path d="M13.1279 1.3333C12.5585 1.3333 11.9951 1.44896 11.4717 1.67321C10.5315 2.07388 9.46856 2.07388 8.52835 1.67321C6.87677 0.965379 4.95789 1.38513 3.75269 2.71788L4.24735 3.16655C4.91848 2.4248 5.87173 2.00109 6.87202 1.99988C7.35119 1.99934 7.82544 2.09667 8.26569 2.28588C9.3736 2.75855 10.6264 2.75855 11.7344 2.28588C13.5308 1.51617 15.611 2.34846 16.3807 4.14488C16.5694 4.5853 16.6667 5.05942 16.6667 5.53855C16.6673 7.3025 16.1715 9.03105 15.236 10.5265L15.0507 10.8232C15.0254 10.8637 15.0092 10.9092 15.003 10.9565L14.7304 12.9565L15.3907 13.0465L15.654 11.1175L15.8014 10.8815C16.8034 9.27963 17.3342 7.42805 17.3334 5.53855C17.3333 3.216 15.4505 1.33325 13.1279 1.3333Z" fill="#EF0064"/>
</g>
<defs>
<clipPath id="clip0_152_602">
<rect width="20" height="20" fill="white"/>
</clipPath>
</defs>
</svg>
