<svg width="19" height="19" viewBox="0 0 19 19" fill="none" xmlns="http://www.w3.org/2000/svg">
<g id="clipboard 1">
<g id="clipboard">
<path id="Vector" d="M14.25 11.2812C14.25 11.6094 13.9844 11.875 13.6562 11.875H8.90625C8.57806 11.875 8.3125 11.6094 8.3125 11.2812C8.3125 10.9531 8.57806 10.6875 8.90625 10.6875H13.6562C13.9844 10.6875 14.25 10.9531 14.25 11.2812ZM13.6562 14.25H8.90625C8.57806 14.25 8.3125 14.5156 8.3125 14.8438C8.3125 15.1719 8.57806 15.4375 8.90625 15.4375H13.6562C13.9844 15.4375 14.25 15.1719 14.25 14.8438C14.25 14.5156 13.9844 14.25 13.6562 14.25ZM13.6562 7.125H8.90625C8.57806 7.125 8.3125 7.39056 8.3125 7.71875C8.3125 8.04694 8.57806 8.3125 8.90625 8.3125H13.6562C13.9844 8.3125 14.25 8.04694 14.25 7.71875C14.25 7.39056 13.9844 7.125 13.6562 7.125ZM6.7052 6.7052L5.9375 7.4729L5.76355 7.29895C5.53162 7.06702 5.15588 7.06702 4.92395 7.29895C4.69202 7.53088 4.69202 7.90662 4.92395 8.13855L5.5177 8.7323C5.63367 8.84827 5.78558 8.90625 5.9375 8.90625C6.08942 8.90625 6.24133 8.84827 6.3573 8.7323L7.5448 7.5448C7.77673 7.31287 7.77673 6.93713 7.5448 6.7052C7.31287 6.47327 6.93713 6.47327 6.7052 6.7052ZM6.7052 10.2677L5.9375 11.0354L5.76355 10.8615C5.53162 10.6295 5.15588 10.6295 4.92395 10.8615C4.69202 11.0934 4.69202 11.4691 4.92395 11.701L5.5177 12.2948C5.63367 12.4108 5.78558 12.4688 5.9375 12.4688C6.08942 12.4688 6.24133 12.4108 6.3573 12.2948L7.5448 11.1073C7.77673 10.8754 7.77673 10.4996 7.5448 10.2677C7.31287 10.0358 6.93713 10.0358 6.7052 10.2677ZM16.625 3.85938V16.9219C16.625 17.7406 15.9594 18.4062 15.1406 18.4062H3.85938C3.04065 18.4062 2.375 17.7406 2.375 16.9219V3.85938C2.375 3.04065 3.04065 2.375 3.85938 2.375H6.53125V2.07812C6.53125 1.2594 7.1969 0.59375 8.01562 0.59375H10.9844C11.8031 0.59375 12.4688 1.2594 12.4688 2.07812V2.375H15.1406C15.9594 2.375 16.625 3.04065 16.625 3.85938ZM7.71875 3.85938C7.71875 4.02057 7.85443 4.15625 8.01562 4.15625H10.9844C11.1456 4.15625 11.2812 4.02057 11.2812 3.85938V2.07812C11.2812 1.91693 11.1456 1.78125 10.9844 1.78125H8.01562C7.85443 1.78125 7.71875 1.91693 7.71875 2.07812V3.85938ZM15.4375 3.85938C15.4375 3.69818 15.3018 3.5625 15.1406 3.5625H12.4688V3.85938C12.4688 4.6781 11.8031 5.34375 10.9844 5.34375H8.01562C7.1969 5.34375 6.53125 4.6781 6.53125 3.85938V3.5625H3.85938C3.69818 3.5625 3.5625 3.69818 3.5625 3.85938V16.9219C3.5625 17.0831 3.69818 17.2188 3.85938 17.2188H15.1406C15.3018 17.2188 15.4375 17.0831 15.4375 16.9219V3.85938ZM7.125 14.25H5.34375C5.01556 14.25 4.75 14.5156 4.75 14.8438C4.75 15.1719 5.01556 15.4375 5.34375 15.4375H7.125C7.45319 15.4375 7.71875 15.1719 7.71875 14.8438C7.71875 14.5156 7.45319 14.25 7.125 14.25Z" fill="#9CB1C5"/>
</g>
</g>
</svg>
