<svg width="128" height="135" viewBox="0 0 128 135" fill="none" xmlns="http://www.w3.org/2000/svg">
<path d="M125.5 13.274V13.363L125.494 13.4517C123.968 34.8585 117.179 54.8065 106.4 71.9963L106.4 71.9963C95.6922 89.0713 81.0516 103.418 63.7486 113.744L63.7463 113.745C61.5258 115.067 59.2634 116.323 56.9594 117.514L56.959 117.514C39.8757 126.337 20.5236 131.373 0.015433 131.5L-2.5 131.515V129V73.9502V71.4796L-0.0296115 71.4504C6.70691 71.3706 13.2 70.2935 19.3065 68.3544L19.3084 68.3538C33.363 63.9029 45.4302 54.8912 53.768 43.0549L53.7687 43.0538C56.1518 39.6746 58.2417 36.0586 59.9731 32.2602L59.9741 32.2581C63.7705 23.9502 65.941 14.7102 66.0469 4.97281L66.0738 2.5H68.5468H123H125.5V5V13.274Z" fill="#FCFCFF" stroke="#FCFCFF" stroke-width="5"/>
</svg>
