<svg width="400" height="413" viewBox="0 0 400 413" fill="none" xmlns="http://www.w3.org/2000/svg">
<path d="M2.5 381.176V381.087L2.50638 380.998C7.40082 312.535 29.18 248.747 63.7565 193.777C98.107 139.169 145.074 93.2883 200.576 60.2709L200.578 60.2696C207.702 56.0416 214.96 52.0236 222.353 48.2156L222.354 48.2154C277.141 20.0091 339.202 3.90488 404.985 3.50005L407.5 3.48457V6V184.468V186.939L405.03 186.968C382.562 187.233 360.893 190.815 340.508 197.268L340.507 197.269C293.599 212.077 253.347 242.052 225.54 281.404L225.539 281.405C217.593 292.637 210.621 304.662 204.841 317.302L204.84 317.304C192.175 344.934 184.937 375.66 184.583 408.027L184.557 410.5H182.084H5H2.5V408V381.176Z" fill="#E9E7FF" stroke="#E9E7FF" stroke-width="5"/>
</svg>
