<svg width="14" height="16" viewBox="0 0 14 16" fill="none" xmlns="http://www.w3.org/2000/svg">
<path d="M8.75912 0.622894H6.8905V1.79077H8.17516V3.99027C8.17516 5.92214 6.60338 7.49392 4.6715 7.49392C2.73963 7.49392 1.16788 5.92217 1.16788 3.9903V1.79077H2.41363V0.622894H0.583938C0.261406 0.622894 0 0.884301 0 1.20683V3.9903C0 6.56627 2.09556 8.66183 4.67153 8.66183C7.2475 8.66183 9.34306 6.56627 9.34306 3.9903V1.20683C9.34306 0.884301 9.08166 0.622894 8.75912 0.622894Z" fill="#05C882"/>
<path d="M11.0347 9.14844V11.9124C11.0347 13.5224 9.72487 14.8322 8.11494 14.8322C6.505 14.8322 5.19522 13.5224 5.19522 11.9124V8.09735H4.02734V11.9124C4.02734 14.1663 5.86091 16 8.11494 16C10.3687 16 12.2025 14.1663 12.2025 11.9124V9.14844H11.0347Z" fill="#05C882"/>
<path d="M11.619 5.37225C10.4274 5.37225 9.45822 6.34141 9.45822 7.53284C9.45822 8.72409 10.4274 9.69344 11.6188 9.69344C12.8102 9.69344 13.7794 8.72409 13.7796 7.53284C13.7796 6.34141 12.8102 5.37225 11.619 5.37225ZM11.6188 8.52556C11.0713 8.52556 10.6259 8.08022 10.6259 7.53287C10.6259 6.98553 11.0712 6.54019 11.6188 6.54019C12.1662 6.54019 12.6115 6.98553 12.6115 7.53287C12.6115 8.08022 12.1662 8.52556 11.6188 8.52556ZM2.39253 0C2.07 0 1.80859 0.261406 1.80859 0.583937V1.82969C1.80859 2.15222 2.07 2.41362 2.39253 2.41362C2.71506 2.41362 2.97647 2.15222 2.97647 1.82969V0.583937C2.97647 0.261406 2.71506 0 2.39253 0ZM6.90834 0C6.58581 0 6.32441 0.261406 6.32441 0.583937V1.82969C6.32441 2.15222 6.58581 2.41362 6.90834 2.41362C7.23087 2.41362 7.49228 2.15222 7.49228 1.82969V0.583937C7.49228 0.261406 7.23087 0 6.90834 0Z" fill="#05C882"/>
</svg>
