<svg width="19" height="19" viewBox="0 0 19 19" fill="none" xmlns="http://www.w3.org/2000/svg">
<path d="M3.2968 12.9428C3.1448 12.9428 2.9931 12.8849 2.87702 12.7688C2.64516 12.5369 2.64516 12.1611 2.87702 11.9292L12.1556 2.6507C12.3871 2.41884 12.7633 2.41884 12.9951 2.6507C13.227 2.88256 13.227 3.2584 12.9951 3.49026L3.71658 12.7688C3.6008 12.8846 3.4488 12.9428 3.2968 12.9428Z" fill="#5D35E9"/>
<path d="M2.38048 17.2186C2.33921 17.2186 2.29735 17.2142 2.25549 17.2053C1.93487 17.1364 1.73062 16.8208 1.79949 16.5002L2.71684 12.2243C2.78571 11.9037 3.10277 11.7 3.42191 11.7683C3.74254 11.8372 3.94679 12.1528 3.87791 12.4734L2.96057 16.7493C2.9009 17.028 2.65449 17.2186 2.38048 17.2186Z" fill="#5D35E9"/>
<path d="M6.6552 16.3014C6.5032 16.3014 6.3515 16.2435 6.23542 16.1274C6.00356 15.8955 6.00356 15.5197 6.23542 15.2878L15.5139 6.00959C15.7455 5.77773 16.1217 5.77773 16.3535 6.00959C16.5854 6.24145 16.5854 6.61729 16.3535 6.84915L7.07528 16.1274C6.9592 16.2435 6.8072 16.3014 6.6552 16.3014Z" fill="#5D35E9"/>
<path d="M2.37852 17.2186C2.10451 17.2186 1.8584 17.028 1.79843 16.7493C1.72985 16.4286 1.9338 16.1131 2.25443 16.0442L6.53032 15.1269C6.85124 15.0589 7.16682 15.2625 7.2354 15.5829C7.30397 15.9035 7.10002 16.2191 6.7794 16.2879L2.50351 17.2053C2.46165 17.2145 2.41979 17.2186 2.37852 17.2186Z" fill="#5D35E9"/>
<path d="M14.254 8.70222C14.102 8.70222 13.95 8.64433 13.8342 8.52825L10.4757 5.16971C10.2438 4.93785 10.2438 4.562 10.4757 4.33014C10.7072 4.09829 11.0837 4.09829 11.3152 4.33014L14.6738 7.68869C14.9056 7.92055 14.9056 8.29639 14.6738 8.52825C14.558 8.64433 14.406 8.70222 14.254 8.70222Z" fill="#5D35E9"/>
<path d="M15.9343 7.02325C15.7823 7.02325 15.6303 6.96536 15.5142 6.84928C15.2823 6.61742 15.2823 6.24157 15.5142 6.00942C15.8446 5.679 16.0266 5.23161 16.0266 4.75007C16.0266 4.26854 15.8446 3.82115 15.5142 3.49073C15.1835 3.16001 14.7361 2.97803 14.2545 2.97803C13.773 2.97803 13.3256 3.16001 12.9952 3.49073C12.7636 3.72259 12.3878 3.72289 12.1553 3.49073C11.9235 3.25887 11.9235 2.88303 12.1553 2.65087C12.7099 2.09601 13.4554 1.79053 14.2545 1.79053C15.0534 1.79053 15.7992 2.09601 16.3537 2.65087C16.9086 3.20543 17.2141 3.95089 17.2141 4.75007C17.2141 5.54926 16.9086 6.29471 16.3537 6.84928C16.2383 6.96506 16.0863 7.02325 15.9343 7.02325Z" fill="#5D35E9"/>
</svg>
