<svg width="20" height="20" viewBox="0 0 20 20" fill="none" xmlns="http://www.w3.org/2000/svg">
<path d="M19.7906 0.209429C19.857 0.275706 19.9096 0.354423 19.9456 0.441076C19.9815 0.52773 20 0.620619 20 0.714428C20 0.808238 19.9815 0.901126 19.9456 0.98778C19.9096 1.07443 19.857 1.15315 19.7906 1.21943L14.5813 6.4287H17.857C18.0464 6.4287 18.2281 6.50396 18.3621 6.63791C18.496 6.77187 18.5713 6.95355 18.5713 7.14299C18.5713 7.33243 18.496 7.51411 18.3621 7.64806C18.2281 7.78202 18.0464 7.85727 17.857 7.85727H12.857C12.4656 7.85727 12.1427 7.53727 12.1427 7.14299V2.143C12.1427 1.95356 12.218 1.77188 12.3519 1.63792C12.4859 1.50397 12.6676 1.42871 12.857 1.42871C13.0465 1.42871 13.2281 1.50397 13.3621 1.63792C13.496 1.77188 13.5713 1.95356 13.5713 2.143V5.41871L18.7806 0.209429C18.8468 0.143039 18.9256 0.0903695 19.0122 0.0544333C19.0989 0.0184972 19.1918 0 19.2856 0C19.3794 0 19.4723 0.0184972 19.5589 0.0544333C19.6456 0.0903695 19.7243 0.143039 19.7906 0.209429ZM7.85702 12.8573V17.8573C7.85702 18.0467 7.78177 18.2284 7.64781 18.3623C7.51386 18.4963 7.33218 18.5715 7.14274 18.5715C6.9533 18.5715 6.77162 18.4963 6.63766 18.3623C6.50371 18.2284 6.42845 18.0467 6.42845 17.8573V14.5815L1.21918 19.7908C1.08524 19.9248 0.903588 20 0.714177 20C0.524765 20 0.343112 19.9248 0.209178 19.7908C0.0752434 19.6569 0 19.4752 0 19.2858C0 19.0964 0.0752434 18.9148 0.209178 18.7808L5.41845 13.5715H2.14275C1.95331 13.5715 1.77162 13.4963 1.63767 13.3623C1.50372 13.2284 1.42846 13.0467 1.42846 12.8573C1.42846 12.6678 1.50372 12.4861 1.63767 12.3522C1.77162 12.2182 1.95331 12.143 2.14275 12.143H7.14274C7.53631 12.143 7.85702 12.4658 7.85702 12.8573ZM7.85702 2.143V7.14299C7.85702 7.53942 7.53059 7.85727 7.14274 7.85727H2.14275C1.95331 7.85727 1.77162 7.78202 1.63767 7.64806C1.50372 7.51411 1.42846 7.33243 1.42846 7.14299C1.42846 6.95355 1.50372 6.77187 1.63767 6.63791C1.77162 6.50396 1.95331 6.4287 2.14275 6.4287H5.41845L0.209178 1.21943C0.0752434 1.08549 0 0.903839 0 0.714428C0 0.620641 0.0184729 0.527772 0.0543636 0.441125C0.0902543 0.354477 0.14286 0.275746 0.209178 0.209429C0.275495 0.143112 0.354225 0.0905058 0.440873 0.054615C0.527521 0.0187243 0.62039 0.000251446 0.714177 0.000251446C0.903588 0.000251446 1.08524 0.0754949 1.21918 0.209429L6.42845 5.41871V2.143C6.42845 1.95356 6.50371 1.77188 6.63766 1.63792C6.77162 1.50397 6.9533 1.42871 7.14274 1.42871C7.33218 1.42871 7.51386 1.50397 7.64781 1.63792C7.78177 1.77188 7.85702 1.95356 7.85702 2.143ZM19.7906 18.7808C19.8569 18.8471 19.9095 18.9259 19.9454 19.0125C19.9813 19.0992 19.9997 19.192 19.9997 19.2858C19.9997 19.3796 19.9813 19.4725 19.9454 19.5591C19.9095 19.6458 19.8569 19.7245 19.7906 19.7908C19.7243 19.8571 19.6455 19.9097 19.5589 19.9456C19.4722 19.9815 19.3794 20 19.2856 20C19.1918 20 19.0989 19.9815 19.0123 19.9456C18.9256 19.9097 18.8469 19.8571 18.7806 19.7908L13.5713 14.5815V17.8573C13.5713 18.0467 13.496 18.2284 13.3621 18.3623C13.2281 18.4963 13.0465 18.5715 12.857 18.5715C12.6676 18.5715 12.4859 18.4963 12.3519 18.3623C12.218 18.2284 12.1427 18.0467 12.1427 17.8573V12.8573C12.1427 12.4665 12.462 12.143 12.857 12.143H17.857C18.0464 12.143 18.2281 12.2182 18.3621 12.3522C18.496 12.4861 18.5713 12.6678 18.5713 12.8573C18.5713 13.0467 18.496 13.2284 18.3621 13.3623C18.2281 13.4963 18.0464 13.5715 17.857 13.5715H14.5813L19.7906 18.7808Z" fill="#05C882"/>
</svg>
