<svg width="35" height="33" viewBox="0 0 35 33" fill="none" xmlns="http://www.w3.org/2000/svg">
<rect x="0.976562" width="33.824" height="32.6576" rx="16.3288" fill="#05C882"/>
<g clip-path="url(#clip0_2465_6041)">
<path d="M21.1628 14.6625L24.8336 10.9916V12.5C24.8336 12.8222 25.0948 13.0833 25.417 13.0833C25.7391 13.0833 26.0003 12.8222 26.0003 12.5V9.58338C26.0003 9.56416 25.9993 9.54493 25.9974 9.52577C25.9966 9.51713 25.995 9.50876 25.9937 9.50025C25.9923 9.48995 25.9911 9.47961 25.989 9.46936C25.9871 9.45957 25.9844 9.45008 25.982 9.44048C25.9798 9.43165 25.9778 9.42276 25.9752 9.41401C25.9723 9.40458 25.9688 9.39547 25.9655 9.38626C25.9623 9.37754 25.9594 9.36873 25.9559 9.36012C25.9523 9.3515 25.9481 9.34327 25.9442 9.33488C25.94 9.32602 25.9361 9.31708 25.9314 9.30838C25.9271 9.30034 25.9222 9.29269 25.9175 9.28487C25.9124 9.27636 25.9076 9.26775 25.9021 9.25944C25.8963 9.2508 25.8899 9.24268 25.8836 9.23436C25.8785 9.22745 25.8736 9.22034 25.8681 9.21358C25.856 9.19884 25.8433 9.18465 25.8298 9.17117C25.8297 9.17106 25.8296 9.17095 25.8295 9.17084C25.8294 9.17073 25.8293 9.17068 25.8292 9.17057C25.8157 9.15709 25.8015 9.14432 25.7867 9.13221C25.78 9.12666 25.7729 9.12184 25.7659 9.11665C25.7576 9.11044 25.7495 9.10402 25.7409 9.09825C25.7326 9.0927 25.724 9.08788 25.7154 9.0828C25.7076 9.07812 25.7 9.07323 25.6919 9.06891C25.6832 9.06426 25.6743 9.06032 25.6654 9.05614C25.657 9.05217 25.6488 9.04799 25.6402 9.04441C25.6316 9.04085 25.6228 9.03795 25.614 9.03484C25.6048 9.03153 25.5957 9.028 25.5863 9.02516C25.5776 9.0225 25.5687 9.02056 25.5598 9.01835C25.5502 9.01591 25.5408 9.01323 25.531 9.01129C25.5207 9.00927 25.5104 9.00804 25.5001 9.00656C25.4916 9.00536 25.4832 9.00372 25.4746 9.00287C25.4554 9.00101 25.4362 9 25.417 9H22.5003C22.1782 9 21.917 9.26116 21.917 9.58332C21.917 9.90549 22.1782 10.1666 22.5003 10.1666H24.0087L20.3378 13.8375C20.11 14.0653 20.11 14.4347 20.3378 14.6625C20.5656 14.8903 20.935 14.8903 21.1628 14.6625Z" fill="white"/>
<path d="M16.8375 17.3388L13.1667 21.0097V19.5013C13.1667 19.1791 12.9055 18.918 12.5834 18.918C12.2612 18.918 12 19.1791 12 19.5013V22.418C12 22.4372 12.001 22.4564 12.0029 22.4755C12.0037 22.4841 12.0054 22.4925 12.0066 22.501C12.0081 22.5114 12.0093 22.5217 12.0113 22.5319C12.0133 22.5417 12.0159 22.5512 12.0184 22.5608C12.0206 22.5697 12.0225 22.5785 12.0252 22.5873C12.028 22.5967 12.0316 22.6058 12.0349 22.615C12.038 22.6237 12.0409 22.6325 12.0444 22.6412C12.048 22.6498 12.0522 22.658 12.0562 22.6664C12.0603 22.6753 12.0643 22.6842 12.0689 22.6929C12.0733 22.7009 12.0781 22.7086 12.0828 22.7164C12.0879 22.7249 12.0927 22.7335 12.0983 22.7418C12.104 22.7505 12.1105 22.7586 12.1167 22.7669C12.1219 22.7738 12.1267 22.7809 12.1322 22.7877C12.1443 22.8025 12.1571 22.8166 12.1706 22.8301C12.1707 22.8302 12.1708 22.8303 12.1709 22.8304C12.171 22.8305 12.1711 22.8306 12.1712 22.8307C12.1847 22.8442 12.1989 22.857 12.2136 22.8691C12.2204 22.8746 12.2275 22.8794 12.2344 22.8846C12.2427 22.8908 12.2508 22.8973 12.2595 22.903C12.2677 22.9086 12.2764 22.9134 12.2849 22.9185C12.2927 22.9232 12.3003 22.928 12.3084 22.9324C12.3171 22.937 12.326 22.941 12.3349 22.9451C12.3433 22.9491 12.3516 22.9533 12.3601 22.9568C12.3688 22.9604 12.3775 22.9633 12.3863 22.9664C12.3955 22.9697 12.4046 22.9732 12.414 22.9761C12.4228 22.9788 12.4317 22.9807 12.4405 22.9829C12.4501 22.9854 12.4596 22.988 12.4694 22.99C12.4796 22.992 12.49 22.9932 12.5003 22.9947C12.5088 22.9959 12.5172 22.9975 12.5258 22.9984C12.5449 23.0003 12.5641 23.0013 12.5833 23.0013H15.5C15.8222 23.0013 16.0833 22.7401 16.0833 22.4179C16.0833 22.0958 15.8222 21.8346 15.5 21.8346H13.9916L17.6625 18.1638C17.8903 17.936 17.8903 17.5666 17.6625 17.3388C17.4347 17.111 17.0653 17.111 16.8375 17.3388Z" fill="white"/>
<path d="M25.8837 22.7629C25.8899 22.7547 25.8963 22.7466 25.9021 22.738C25.9077 22.7296 25.9125 22.721 25.9176 22.7125C25.9222 22.7047 25.9271 22.697 25.9314 22.689C25.936 22.6803 25.94 22.6714 25.9442 22.6625C25.9482 22.6541 25.9523 22.6459 25.9559 22.6373C25.9594 22.6287 25.9623 22.6199 25.9655 22.6111C25.9688 22.6019 25.9723 22.5928 25.9751 22.5834C25.9778 22.5747 25.9797 22.5658 25.9819 22.5569C25.9844 22.5473 25.9871 22.5379 25.989 22.5281C25.991 22.5178 25.9922 22.5075 25.9937 22.4972C25.9949 22.4887 25.9966 22.4803 25.9974 22.4717C25.9993 22.4525 26.0003 22.4333 26.0003 22.4141V19.4974C26.0003 19.1752 25.7392 18.9141 25.417 18.9141C25.0948 18.9141 24.8337 19.1752 24.8337 19.4974V21.0058L21.1628 17.3349C20.935 17.1071 20.5656 17.1071 20.3378 17.3349C20.11 17.5627 20.11 17.9321 20.3378 18.1599L24.0087 21.8307H22.5003C22.1782 21.8307 21.917 22.0919 21.917 22.414C21.917 22.7362 22.1782 22.9974 22.5003 22.9974H25.417C25.4362 22.9974 25.4554 22.9964 25.4746 22.9945C25.4832 22.9936 25.4915 22.992 25.5001 22.9908C25.5104 22.9893 25.5207 22.9881 25.531 22.9861C25.5408 22.9841 25.5502 22.9815 25.5598 22.979C25.5687 22.9768 25.5776 22.9749 25.5863 22.9722C25.5957 22.9694 25.6048 22.9658 25.614 22.9625C25.6228 22.9594 25.6316 22.9565 25.6402 22.953C25.6488 22.9494 25.657 22.9452 25.6654 22.9413C25.6742 22.9371 25.6832 22.9331 25.6919 22.9285C25.6999 22.9242 25.7076 22.9193 25.7153 22.9146C25.7239 22.9095 25.7325 22.9047 25.7408 22.8991C25.7494 22.8934 25.7575 22.887 25.7658 22.8808C25.7728 22.8756 25.7799 22.8707 25.7867 22.8652C25.8013 22.8532 25.8154 22.8405 25.8288 22.8271C25.829 22.8269 25.8292 22.8267 25.8294 22.8265C25.8296 22.8264 25.8298 22.8261 25.83 22.8259C25.8433 22.8125 25.856 22.7985 25.8681 22.7838C25.8737 22.777 25.8785 22.7699 25.8837 22.7629Z" fill="white"/>
<path d="M13.9916 10.1667H15.5C15.8222 10.1667 16.0833 9.90552 16.0833 9.58335C16.0833 9.26116 15.8222 9 15.5 9H12.5833C12.5641 9 12.5449 9.00101 12.5258 9.0029C12.5171 9.00375 12.5088 9.00536 12.5003 9.00659C12.4899 9.00807 12.4796 9.00927 12.4694 9.01129C12.4596 9.01323 12.4501 9.01591 12.4405 9.01835C12.4316 9.02056 12.4228 9.0225 12.414 9.02516C12.4046 9.028 12.3955 9.03155 12.3863 9.03486C12.3775 9.03801 12.3687 9.04088 12.3601 9.04443C12.3515 9.04802 12.3432 9.0522 12.3348 9.05619C12.326 9.06035 12.3171 9.06429 12.3084 9.06893C12.3003 9.07325 12.2927 9.07818 12.2848 9.08285C12.2763 9.08791 12.2677 9.0927 12.2594 9.09825C12.2508 9.10404 12.2426 9.1105 12.2343 9.11673C12.2274 9.1219 12.2203 9.12668 12.2136 9.13221C12.1839 9.1566 12.1566 9.18389 12.1322 9.21361C12.1267 9.22031 12.1219 9.22739 12.1167 9.23431C12.1105 9.24265 12.104 9.2508 12.0982 9.25946C12.0927 9.26775 12.0879 9.27634 12.0828 9.28484C12.0781 9.29266 12.0732 9.30034 12.0689 9.30841C12.0643 9.31708 12.0603 9.32599 12.0562 9.33485C12.0522 9.34325 12.048 9.35153 12.0444 9.36014C12.0409 9.36876 12.038 9.37754 12.0348 9.38629C12.0315 9.3955 12.028 9.40461 12.0251 9.41404C12.0225 9.42279 12.0205 9.43168 12.0183 9.44051C12.0159 9.45011 12.0132 9.45959 12.0113 9.46938C12.0092 9.47964 12.008 9.48997 12.0066 9.50028C12.0054 9.50879 12.0037 9.51718 12.0029 9.52579C12.001 9.54491 12 9.5641 12 9.58332V12.5C12 12.8222 12.2612 13.0833 12.5833 13.0833C12.9055 13.0833 13.1666 12.8222 13.1666 12.5V10.9916L16.8375 14.6625C17.0653 14.8903 17.4347 14.8903 17.6625 14.6625C17.8903 14.4347 17.8903 14.0653 17.6625 13.8375L13.9916 10.1667Z" fill="white"/>
</g>
<defs>
<clipPath id="clip0_2465_6041">
<rect width="14" height="14" fill="white" transform="translate(12 9)"/>
</clipPath>
</defs>
</svg>
