<svg width="22" height="21" viewBox="0 0 22 21" fill="none" xmlns="http://www.w3.org/2000/svg">
<path d="M11 4.5C14.79 4.5 18.17 6.63 19.82 10C19.23 11.22 18.4 12.27 17.41 13.12L18.82 14.53C20.21 13.3 21.31 11.76 22 10C20.27 5.61 16 2.5 11 2.5C9.73 2.5 8.51 2.7 7.36 3.07L9.01 4.72C9.66 4.59 10.32 4.5 11 4.5ZM9.93 5.64L12 7.71C12.57 7.96 13.03 8.42 13.28 8.99L15.35 11.06C15.43 10.72 15.49 10.36 15.49 9.99C15.5 7.51 13.48 5.5 11 5.5C10.63 5.5 10.28 5.55 9.93 5.64ZM1.01 2.37L3.69 5.05C2.06 6.33 0.77 8.03 0 10C1.73 14.39 6 17.5 11 17.5C12.52 17.5 13.98 17.21 15.32 16.68L18.74 20.1L20.15 18.69L2.42 0.949997L1.01 2.37ZM8.51 9.87L11.12 12.48C11.08 12.49 11.04 12.5 11 12.5C9.62 12.5 8.5 11.38 8.5 10C8.5 9.95 8.51 9.92 8.51 9.87ZM5.11 6.47L6.86 8.22C6.63 8.77 6.5 9.37 6.5 10C6.5 12.48 8.52 14.5 11 14.5C11.63 14.5 12.23 14.37 12.77 14.14L13.75 15.12C12.87 15.36 11.95 15.5 11 15.5C7.21 15.5 3.83 13.37 2.18 10C2.88 8.57 3.9 7.39 5.11 6.47Z" fill="#414141"/>
</svg>
