<svg width="20" height="18" viewBox="0 0 20 18" fill="none" xmlns="http://www.w3.org/2000/svg">
<path d="M0.625 4.21936H10.8013C11.082 5.3535 12.1079 6.19697 13.3276 6.19697C14.5472 6.19697 15.5732 5.3535 15.8539 4.21936H19.375C19.7202 4.21936 20 3.93951 20 3.59436C20 3.2492 19.7202 2.96936 19.375 2.96936H15.8538C15.5732 1.83521 14.5472 0.991699 13.3275 0.991699C12.1079 0.991699 11.0819 1.83521 10.8012 2.96936H0.625C0.279844 2.96936 0 3.2492 0 3.59436C0 3.93951 0.279844 4.21936 0.625 4.21936ZM13.3276 2.2417C14.0734 2.2417 14.6802 2.8485 14.6802 3.59432C14.6802 4.34018 14.0734 4.94697 13.3276 4.94697C12.5817 4.94697 11.9749 4.34018 11.9749 3.59432C11.9749 2.8485 12.5817 2.2417 13.3276 2.2417ZM0.625 9.62514H4.14617C4.42688 10.7593 5.45277 11.6028 6.67246 11.6028C7.89215 11.6028 8.91805 10.7593 9.19875 9.62514H19.375C19.7202 9.62514 20 9.34529 20 9.00014C20 8.65498 19.7202 8.37514 19.375 8.37514H9.19871C8.91801 7.241 7.89211 6.39748 6.67242 6.39748C5.45273 6.39748 4.42684 7.241 4.14613 8.37514H0.625C0.279844 8.37514 0 8.65498 0 9.00014C0 9.34529 0.279805 9.62514 0.625 9.62514ZM6.67242 7.64748C7.41828 7.64748 8.02508 8.25428 8.02508 9.00014C8.02508 9.74596 7.41828 10.3528 6.67242 10.3528C5.92656 10.3528 5.31977 9.74596 5.31977 9.00014C5.31977 8.25428 5.92656 7.64748 6.67242 7.64748ZM19.375 13.7809H15.8538C15.5731 12.6468 14.5472 11.8033 13.3275 11.8033C12.1079 11.8033 11.082 12.6468 10.8012 13.7809H0.625C0.279844 13.7809 0 14.0608 0 14.4059C0 14.7511 0.279844 15.0309 0.625 15.0309H10.8013C11.082 16.1651 12.1079 17.0086 13.3276 17.0086C14.5473 17.0086 15.5732 16.1651 15.8539 15.0309H19.375C19.7202 15.0309 20 14.7511 20 14.4059C20 14.0608 19.7202 13.7809 19.375 13.7809ZM13.3276 15.7586C12.5817 15.7586 11.9749 15.1518 11.9749 14.4059C11.9749 13.6601 12.5817 13.0533 13.3276 13.0533C14.0734 13.0533 14.6802 13.6601 14.6802 14.4059C14.6802 15.1518 14.0734 15.7586 13.3276 15.7586Z" fill="#8B9EAF"/>
</svg>
