<svg width="21" height="16" viewBox="0 0 21 16" fill="none" xmlns="http://www.w3.org/2000/svg">
<path d="M1.56445 3.21887H11.7407C12.0214 4.35301 13.0474 5.19648 14.267 5.19648C15.4867 5.19648 16.5126 4.35301 16.7933 3.21887H20.3145C20.6596 3.21887 20.9395 2.93902 20.9395 2.59387C20.9395 2.24871 20.6596 1.96887 20.3145 1.96887H16.7933C16.5126 0.834726 15.4867 -0.00878906 14.267 -0.00878906C13.0473 -0.00878906 12.0214 0.834726 11.7407 1.96887H1.56445C1.2193 1.96887 0.939453 2.24871 0.939453 2.59387C0.939453 2.93902 1.2193 3.21887 1.56445 3.21887ZM14.267 1.24121C15.0129 1.24121 15.6197 1.84801 15.6197 2.59383C15.6197 3.33969 15.0129 3.94648 14.267 3.94648C13.5212 3.94648 12.9144 3.33969 12.9144 2.59383C12.9144 1.84801 13.5212 1.24121 14.267 1.24121ZM1.56445 8.62465H5.08562C5.36633 9.75879 6.39223 10.6023 7.61191 10.6023C8.8316 10.6023 9.8575 9.75879 10.1382 8.62465H20.3145C20.6596 8.62465 20.9395 8.3448 20.9395 7.99965C20.9395 7.65449 20.6596 7.37465 20.3145 7.37465H10.1382C9.85746 6.24051 8.83156 5.39699 7.61187 5.39699C6.39219 5.39699 5.36629 6.24051 5.08559 7.37465H1.56445C1.2193 7.37465 0.939453 7.65449 0.939453 7.99965C0.939453 8.3448 1.21926 8.62465 1.56445 8.62465ZM7.61187 6.64699C8.35773 6.64699 8.96453 7.25379 8.96453 7.99965C8.96453 8.74547 8.35773 9.35227 7.61187 9.35227C6.86602 9.35227 6.25922 8.74547 6.25922 7.99965C6.25922 7.25379 6.86602 6.64699 7.61187 6.64699ZM20.3145 12.7804H16.7933C16.5126 11.6463 15.4867 10.8028 14.267 10.8028C13.0473 10.8028 12.0214 11.6463 11.7407 12.7804H1.56445C1.2193 12.7804 0.939453 13.0603 0.939453 13.4054C0.939453 13.7506 1.2193 14.0304 1.56445 14.0304H11.7407C12.0214 15.1646 13.0473 16.0081 14.267 16.0081C15.4867 16.0081 16.5126 15.1646 16.7933 14.0304H20.3145C20.6596 14.0304 20.9395 13.7506 20.9395 13.4054C20.9395 13.0603 20.6596 12.7804 20.3145 12.7804ZM14.267 14.7581C13.5212 14.7581 12.9144 14.1513 12.9144 13.4054C12.9144 12.6596 13.5212 12.0528 14.267 12.0528C15.0129 12.0528 15.6197 12.6596 15.6197 13.4054C15.6197 14.1513 15.0129 14.7581 14.267 14.7581Z" fill="#8B9EAF"/>
</svg>
