<svg width="252" height="27" viewBox="0 0 252 27" fill="none" xmlns="http://www.w3.org/2000/svg">
<path d="M6.24 11.34L1.844 15.848V21H0.416V1.4H1.844V14L14.08 1.4H15.816L7.192 10.304L16.404 21H14.668L6.24 11.34ZM19.3821 6.384H20.7821V21H19.3821V6.384ZM20.0821 2.828C19.7647 2.828 19.4941 2.72533 19.2701 2.52C19.0461 2.296 18.9341 2.02533 18.9341 1.708C18.9341 1.39067 19.0461 1.12 19.2701 0.895998C19.4941 0.671999 19.7647 0.559999 20.0821 0.559999C20.3994 0.559999 20.6701 0.671999 20.8941 0.895998C21.1181 1.10133 21.2301 1.36267 21.2301 1.68C21.2301 1.99733 21.1181 2.268 20.8941 2.492C20.6701 2.716 20.3994 2.828 20.0821 2.828ZM33.8228 6.272C35.6522 6.272 37.0988 6.804 38.1628 7.868C39.2268 8.932 39.7588 10.4627 39.7588 12.46V21H38.3588V12.572C38.3588 10.9293 37.9388 9.67867 37.0988 8.82C36.2775 7.96133 35.1202 7.532 33.6268 7.532C31.9095 7.532 30.5562 8.04533 29.5668 9.072C28.5775 10.0987 28.0828 11.48 28.0828 13.216V21H26.6828V6.384H28.0268V9.548C28.5308 8.52133 29.2775 7.71867 30.2668 7.14C31.2748 6.56133 32.4602 6.272 33.8228 6.272ZM57.898 14.028H45.326C45.3634 15.1667 45.6527 16.184 46.194 17.08C46.7354 17.9573 47.4634 18.6387 48.378 19.124C49.3114 19.6093 50.3567 19.852 51.514 19.852C52.466 19.852 53.3434 19.684 54.146 19.348C54.9674 18.9933 55.6487 18.48 56.19 17.808L57.002 18.732C56.3674 19.4973 55.5647 20.0853 54.594 20.496C53.642 20.9067 52.606 21.112 51.486 21.112C50.03 21.112 48.7327 20.7947 47.594 20.16C46.4554 19.5253 45.5594 18.648 44.906 17.528C44.2714 16.408 43.954 15.1293 43.954 13.692C43.954 12.2733 44.2527 11.004 44.85 9.884C45.466 8.74533 46.306 7.85867 47.37 7.224C48.434 6.58933 49.6287 6.272 50.954 6.272C52.2794 6.272 53.4647 6.58933 54.51 7.224C55.574 7.84 56.4047 8.708 57.002 9.828C57.618 10.948 57.926 12.2173 57.926 13.636L57.898 14.028ZM50.954 7.504C49.9274 7.504 49.0034 7.73733 48.182 8.204C47.3607 8.652 46.698 9.296 46.194 10.136C45.7087 10.9573 45.4287 11.8907 45.354 12.936H56.554C56.498 11.8907 56.218 10.9573 55.714 10.136C55.21 9.31467 54.5474 8.67067 53.726 8.204C52.9047 7.73733 51.9807 7.504 50.954 7.504ZM65.9531 21.112C64.7771 21.112 63.6571 20.9347 62.5931 20.58C61.5291 20.2253 60.6984 19.7773 60.1011 19.236L60.7451 18.116C61.3424 18.62 62.1077 19.04 63.0411 19.376C63.9931 19.712 64.9824 19.88 66.0091 19.88C67.4837 19.88 68.5664 19.6373 69.2571 19.152C69.9664 18.6667 70.3211 17.9947 70.3211 17.136C70.3211 16.52 70.1251 16.0347 69.7331 15.68C69.3597 15.3253 68.8931 15.064 68.3331 14.896C67.7731 14.728 66.9984 14.5507 66.0091 14.364C64.8517 14.1587 63.9184 13.9347 63.2091 13.692C62.4997 13.4493 61.8931 13.0573 61.3891 12.516C60.8851 11.9747 60.6331 11.228 60.6331 10.276C60.6331 9.11867 61.1091 8.16667 62.0611 7.42C63.0317 6.65467 64.4037 6.272 66.1771 6.272C67.1104 6.272 68.0344 6.40267 68.9491 6.664C69.8637 6.92533 70.6104 7.27067 71.1891 7.7L70.5451 8.82C69.9477 8.39067 69.2664 8.064 68.5011 7.84C67.7357 7.616 66.9517 7.504 66.1491 7.504C64.7864 7.504 63.7597 7.756 63.0691 8.26C62.3784 8.764 62.0331 9.42667 62.0331 10.248C62.0331 10.9013 62.2291 11.4147 62.6211 11.788C63.0131 12.1427 63.4891 12.4133 64.0491 12.6C64.6277 12.768 65.4304 12.9547 66.4571 13.16C67.5957 13.3653 68.5104 13.5893 69.2011 13.832C69.9104 14.056 70.5077 14.4293 70.9931 14.952C71.4784 15.4747 71.7211 16.1933 71.7211 17.108C71.7211 18.3213 71.2171 19.292 70.2091 20.02C69.2011 20.748 67.7824 21.112 65.9531 21.112ZM75.6282 6.384H77.0282V21H75.6282V6.384ZM76.3282 2.828C76.0108 2.828 75.7402 2.72533 75.5162 2.52C75.2922 2.296 75.1802 2.02533 75.1802 1.708C75.1802 1.39067 75.2922 1.12 75.5162 0.895998C75.7402 0.671999 76.0108 0.559999 76.3282 0.559999C76.6455 0.559999 76.9162 0.671999 77.1402 0.895998C77.3642 1.10133 77.4762 1.36267 77.4762 1.68C77.4762 1.99733 77.3642 2.268 77.1402 2.492C76.9162 2.716 76.6455 2.828 76.3282 2.828ZM90.0689 6.272C91.8983 6.272 93.3449 6.804 94.4089 7.868C95.4729 8.932 96.0049 10.4627 96.0049 12.46V21H94.6049V12.572C94.6049 10.9293 94.1849 9.67867 93.3449 8.82C92.5236 7.96133 91.3663 7.532 89.8729 7.532C88.1556 7.532 86.8023 8.04533 85.8129 9.072C84.8236 10.0987 84.3289 11.48 84.3289 13.216V21H82.9289V6.384H84.2729V9.548C84.7769 8.52133 85.5236 7.71867 86.5129 7.14C87.5209 6.56133 88.7063 6.272 90.0689 6.272ZM126.956 21L126.928 8.008L120.488 18.76H118.864L112.424 8.176V21H108.952V1.4H111.948L119.732 14.392L127.376 1.4H130.372L130.4 21H126.956ZM149.359 6.048L142.359 22.204C141.705 23.828 140.912 24.9667 139.979 25.62C139.045 26.292 137.916 26.628 136.591 26.628C135.844 26.628 135.107 26.5067 134.379 26.264C133.651 26.0213 133.053 25.6853 132.586 25.256L133.986 22.68C134.323 22.9973 134.715 23.2493 135.163 23.436C135.629 23.6227 136.096 23.716 136.562 23.716C137.179 23.716 137.683 23.5573 138.075 23.24C138.485 22.9227 138.859 22.3907 139.195 21.644L139.447 21.056L132.922 6.048H136.562L141.267 17.108L145.999 6.048H149.359ZM177.036 1.4V21H173.396V12.6H163.26V21H159.62V1.4H163.26V9.492H173.396V1.4H177.036ZM196.008 13.608C196.008 13.8507 195.99 14.196 195.952 14.644H184.22C184.426 15.7453 184.958 16.6227 185.816 17.276C186.694 17.9107 187.776 18.228 189.064 18.228C190.707 18.228 192.06 17.6867 193.124 16.604L195 18.76C194.328 19.5627 193.479 20.1693 192.452 20.58C191.426 20.9907 190.268 21.196 188.98 21.196C187.338 21.196 185.891 20.8693 184.64 20.216C183.39 19.5627 182.419 18.6573 181.728 17.5C181.056 16.324 180.72 14.9987 180.72 13.524C180.72 12.068 181.047 10.7613 181.7 9.604C182.372 8.428 183.296 7.51333 184.472 6.86C185.648 6.20667 186.974 5.88 188.448 5.88C189.904 5.88 191.202 6.20667 192.34 6.86C193.498 7.49467 194.394 8.4 195.028 9.576C195.682 10.7333 196.008 12.0773 196.008 13.608ZM188.448 8.68C187.328 8.68 186.376 9.016 185.592 9.688C184.827 10.3413 184.36 11.2187 184.192 12.32H192.676C192.527 11.2373 192.07 10.36 191.304 9.688C190.539 9.016 189.587 8.68 188.448 8.68ZM204.672 5.88C206.875 5.88 208.555 6.412 209.712 7.476C210.888 8.52133 211.476 10.108 211.476 12.236V21H208.172V19.18C207.743 19.8333 207.127 20.3373 206.324 20.692C205.54 21.028 204.588 21.196 203.468 21.196C202.348 21.196 201.368 21.0093 200.528 20.636C199.688 20.244 199.035 19.712 198.568 19.04C198.12 18.3493 197.896 17.5747 197.896 16.716C197.896 15.372 198.391 14.2987 199.38 13.496C200.388 12.6747 201.965 12.264 204.112 12.264H207.976V12.04C207.976 10.9947 207.659 10.192 207.024 9.632C206.408 9.072 205.484 8.792 204.252 8.792C203.412 8.792 202.581 8.92267 201.76 9.184C200.957 9.44533 200.276 9.80933 199.716 10.276L198.344 7.728C199.128 7.13067 200.071 6.67333 201.172 6.356C202.273 6.03867 203.44 5.88 204.672 5.88ZM204.196 18.648C205.073 18.648 205.848 18.452 206.52 18.06C207.211 17.6493 207.696 17.0707 207.976 16.324V14.588H204.364C202.348 14.588 201.34 15.2507 201.34 16.576C201.34 17.2107 201.592 17.7147 202.096 18.088C202.6 18.4613 203.3 18.648 204.196 18.648ZM215.968 0.223999H219.468V21H215.968V0.223999ZM233.788 20.188C233.377 20.524 232.873 20.776 232.276 20.944C231.697 21.112 231.081 21.196 230.428 21.196C228.785 21.196 227.516 20.7667 226.62 19.908C225.724 19.0493 225.276 17.7987 225.276 16.156V8.96H222.812V6.16H225.276V2.744H228.776V6.16H232.78V8.96H228.776V16.072C228.776 16.8 228.953 17.36 229.308 17.752C229.663 18.1253 230.176 18.312 230.848 18.312C231.632 18.312 232.285 18.1067 232.808 17.696L233.788 20.188ZM245.151 5.88C247.036 5.88 248.548 6.43067 249.687 7.532C250.826 8.63333 251.395 10.2667 251.395 12.432V21H247.895V12.88C247.895 11.5733 247.587 10.5933 246.971 9.94C246.355 9.268 245.478 8.932 244.339 8.932C243.051 8.932 242.034 9.324 241.287 10.108C240.54 10.8733 240.167 11.984 240.167 13.44V21H236.667V0.223999H240.167V7.784C240.746 7.168 241.455 6.70133 242.295 6.384C243.154 6.048 244.106 5.88 245.151 5.88Z" fill="white"/>
</svg>
