<svg width="22" height="22" viewBox="0 0 22 22" fill="none" xmlns="http://www.w3.org/2000/svg">
<g clip-path="url(#clip0_192_1068)">
<path d="M21.1696 9.08734L12.196 9.08691C11.7997 9.08691 11.4785 9.40806 11.4785 9.80432V12.671C11.4785 13.0672 11.7997 13.3884 12.1959 13.3884H17.2493C16.696 14.8244 15.6632 16.0271 14.3455 16.7913L16.5002 20.5213C19.9567 18.5223 22.0002 15.0148 22.0002 11.0884C22.0002 10.5293 21.959 10.1297 21.8766 9.67967C21.814 9.33777 21.5171 9.08734 21.1696 9.08734Z" fill="#167EE6"/>
<path d="M10.9999 17.6956C8.52689 17.6956 6.36797 16.3444 5.20846 14.345L1.47852 16.4949C3.37666 19.7846 6.9325 22 10.9999 22C12.9953 22 14.878 21.4627 16.4999 20.5265V20.5214L14.3452 16.7913C13.3595 17.3629 12.219 17.6956 10.9999 17.6956Z" fill="#12B347"/>
<path d="M16.5 20.5265V20.5214L14.3452 16.7913C13.3596 17.3629 12.2192 17.6956 11 17.6956V22C12.9953 22 14.8782 21.4627 16.5 20.5265Z" fill="#0F993E"/>
<path d="M4.30435 11C4.30435 9.78103 4.63702 8.6406 5.20854 7.65503L1.4786 5.50513C0.537195 7.12191 0 8.99956 0 11C0 13.0005 0.537195 14.8781 1.4786 16.4949L5.20854 14.345C4.63702 13.3594 4.30435 12.219 4.30435 11Z" fill="#FFD500"/>
<path d="M10.9999 4.30435C12.6126 4.30435 14.0939 4.87738 15.2509 5.83056C15.5363 6.06568 15.9512 6.04871 16.2127 5.78725L18.2438 3.75611C18.5405 3.45946 18.5193 2.97387 18.2024 2.69895C16.2639 1.0172 13.7416 0 10.9999 0C6.9325 0 3.37666 2.21534 1.47852 5.50511L5.20846 7.65501C6.36797 5.65555 8.52689 4.30435 10.9999 4.30435Z" fill="#FF4B26"/>
<path d="M15.251 5.83056C15.5364 6.06568 15.9513 6.04871 16.2128 5.78725L18.2439 3.75611C18.5405 3.45946 18.5194 2.97387 18.2025 2.69895C16.264 1.01716 13.7417 0 11 0V4.30435C12.6126 4.30435 14.094 4.87738 15.251 5.83056Z" fill="#D93F21"/>
</g>
<defs>
<clipPath id="clip0_192_1068">
<rect width="22" height="22" fill="white"/>
</clipPath>
</defs>
</svg>
