<svg width="17" height="22" viewBox="0 0 17 22" fill="none" xmlns="http://www.w3.org/2000/svg">
<path fill-rule="evenodd" clip-rule="evenodd" d="M7.6748 7.93024V11C7.6748 11.2035 7.75566 11.3987 7.89958 11.5427C8.04351 11.6866 8.23871 11.7674 8.44225 11.7674C8.64578 11.7674 8.84099 11.6866 8.98491 11.5427C9.12883 11.3987 9.20969 11.2035 9.20969 11V7.93024C9.20969 7.7267 9.12883 7.5315 8.98491 7.38757C8.84099 7.24365 8.64578 7.1628 8.44225 7.1628C8.23871 7.1628 8.04351 7.24365 7.89958 7.38757C7.75566 7.5315 7.6748 7.7267 7.6748 7.93024Z" fill="#05C882"/>
<path fill-rule="evenodd" clip-rule="evenodd" d="M6.90654 10.2326H9.97631C10.1799 10.2326 10.3751 10.1517 10.519 10.0078C10.6629 9.86386 10.7438 9.66865 10.7438 9.46512C10.7438 9.26158 10.6629 9.06638 10.519 8.92245C10.3751 8.77853 10.1799 8.69767 9.97631 8.69767H6.90654C6.70301 8.69767 6.50781 8.77853 6.36388 8.92245C6.21996 9.06638 6.1391 9.26158 6.1391 9.46512C6.1391 9.66865 6.21996 9.86386 6.36388 10.0078C6.50781 10.1517 6.70301 10.2326 6.90654 10.2326ZM5.32971 1.53488H5.1138C4.57166 1.53515 4.0518 1.75064 3.66845 2.13399C3.28509 2.51735 3.06961 3.03721 3.06934 3.57935V3.5814C3.06934 4.12416 3.28495 4.6447 3.66875 5.0285C4.05254 5.41229 4.57308 5.62791 5.11585 5.62791H11.767C12.3098 5.62791 12.8303 5.41229 13.2141 5.0285C13.5979 4.6447 13.8135 4.12416 13.8135 3.5814C13.8135 3.03863 13.5979 2.51809 13.2141 2.13429C12.8303 1.7505 12.3098 1.53488 11.767 1.53488H11.5531L11.4488 1.22484C11.33 0.868244 11.102 0.558062 10.7972 0.338232C10.4923 0.118402 10.126 7.05726e-05 9.75017 0H7.13268C6.75683 7.05726e-05 6.39053 0.118402 6.08567 0.338232C5.78081 0.558062 5.55285 0.868244 5.43408 1.22484L5.32971 1.53488ZM12.2786 3.5814C12.2786 3.71709 12.2247 3.84722 12.1288 3.94317C12.0328 4.03912 11.9027 4.09302 11.767 4.09302H5.11585C4.98016 4.09302 4.85002 4.03912 4.75407 3.94317C4.65812 3.84722 4.60422 3.71709 4.60422 3.5814V3.57935C4.60422 3.29795 4.83241 3.06977 5.1138 3.06977H5.80962C5.99211 3.06986 6.16999 3.01247 6.31804 2.90576C6.46608 2.79904 6.57675 2.64842 6.63436 2.47526L6.89017 1.70986C6.90713 1.65894 6.93968 1.61465 6.9832 1.58325C7.02672 1.55184 7.07902 1.53492 7.13268 1.53488H9.75017C9.80384 1.53492 9.85614 1.55184 9.89966 1.58325C9.94318 1.61465 9.97572 1.65894 9.99268 1.70986L10.2025 2.33609C10.3478 2.77405 10.7581 3.06977 11.2196 3.06977H11.767C11.9027 3.06977 12.0328 3.12367 12.1288 3.21962C12.2247 3.31557 12.2786 3.4457 12.2786 3.5814Z" fill="#05C882"/>
<path fill-rule="evenodd" clip-rule="evenodd" d="M3.83721 2.55815H1.7907C1.31578 2.55815 0.860304 2.74681 0.524483 3.08263C0.188662 3.41846 0 3.87393 0 4.34885V20.2093C0 21.1988 0.802233 22 1.7907 22H15.093C15.5679 22 16.0234 21.8114 16.3592 21.4755C16.6951 21.1397 16.8837 20.6842 16.8837 20.2093V4.34885C16.8837 3.87393 16.6951 3.41846 16.3592 3.08263C16.0234 2.74681 15.5679 2.55815 15.093 2.55815H13.0465C12.843 2.55815 12.6478 2.63901 12.5038 2.78293C12.3599 2.92685 12.2791 3.12205 12.2791 3.32559C12.2791 3.52913 12.3599 3.72433 12.5038 3.86826C12.6478 4.01218 12.843 4.09304 13.0465 4.09304H15.093C15.1609 4.09304 15.2259 4.11999 15.2739 4.16796C15.3219 4.21594 15.3488 4.281 15.3488 4.34885V20.2093C15.3488 20.2772 15.3219 20.3422 15.2739 20.3902C15.2259 20.4382 15.1609 20.4651 15.093 20.4651H1.7907C1.72285 20.4651 1.65778 20.4382 1.60981 20.3902C1.56184 20.3422 1.53488 20.2772 1.53488 20.2093V4.34885C1.53488 4.281 1.56184 4.21594 1.60981 4.16796C1.65778 4.11999 1.72285 4.09304 1.7907 4.09304H3.83721C4.04075 4.09304 4.23595 4.01218 4.37987 3.86826C4.5238 3.72433 4.60465 3.52913 4.60465 3.32559C4.60465 3.12205 4.5238 2.92685 4.37987 2.78293C4.23595 2.63901 4.04075 2.55815 3.83721 2.55815Z" fill="#05C882"/>
<path fill-rule="evenodd" clip-rule="evenodd" d="M6.39599 14.8372H10.489C10.6925 14.8372 10.8877 14.7564 11.0317 14.6124C11.1756 14.4685 11.2565 14.2733 11.2565 14.0698C11.2565 13.8662 11.1756 13.671 11.0317 13.5271C10.8877 13.3832 10.6925 13.3023 10.489 13.3023H6.39599C6.19245 13.3023 5.99725 13.3832 5.85332 13.5271C5.7094 13.671 5.62854 13.8662 5.62854 14.0698C5.62854 14.2733 5.7094 14.4685 5.85332 14.6124C5.99725 14.7564 6.19245 14.8372 6.39599 14.8372ZM4.34947 17.907H12.5355C12.7391 17.907 12.9343 17.8261 13.0782 17.6822C13.2221 17.5383 13.303 17.3431 13.303 17.1395C13.303 16.936 13.2221 16.7408 13.0782 16.5969C12.9343 16.453 12.7391 16.3721 12.5355 16.3721H4.34947C4.14593 16.3721 3.95073 16.453 3.80681 16.5969C3.66289 16.7408 3.58203 16.936 3.58203 17.1395C3.58203 17.3431 3.66289 17.5383 3.80681 17.6822C3.95073 17.8261 4.14593 17.907 4.34947 17.907Z" fill="#05C882"/>
</svg>
