<svg width="21" height="21" viewBox="0 0 21 21" fill="none" xmlns="http://www.w3.org/2000/svg">
<path d="M18.2623 6.01943C19.2511 6.78604 19.82 7.98455 19.82 9.24784V16.061C19.82 18.296 18.0337 20.11 15.8327 20.11H4.98729C2.7863 20.11 1 18.296 1 16.061V9.24784C1 7.98455 1.57949 6.79684 2.56833 6.03023L7.99105 1.83005C9.42115 0.723317 11.3988 0.723317 12.829 1.83005L15.8327 4.15688V1.48453" stroke="white" stroke-width="1.2" stroke-miterlimit="10" stroke-linecap="round" stroke-linejoin="round"/>
<path d="M8.81003 9.54477C8.25712 9.54477 7.81055 9.99826 7.81055 10.5597C7.81055 11.1212 8.25712 11.5747 8.81003 11.5747C9.36293 11.5747 9.80951 11.1212 9.80951 10.5597C9.80951 9.99826 9.36293 9.54477 8.81003 9.54477Z" fill="white"/>
<path d="M11.9995 9.54477C11.4466 9.54477 11 9.99826 11 10.5597C11 11.1212 11.4466 11.5747 11.9995 11.5747C12.5524 11.5747 12.999 11.1212 12.999 10.5597C12.999 9.99826 12.5524 9.54477 11.9995 9.54477Z" fill="white"/>
<path d="M8.81003 12.784C8.25712 12.784 7.81055 13.2375 7.81055 13.7989C7.81055 14.3604 8.25712 14.8139 8.81003 14.8139C9.36293 14.8139 9.80951 14.3604 9.80951 13.7989C9.80951 13.2375 9.36293 12.784 8.81003 12.784Z" fill="white"/>
<path d="M11.9995 12.784C11.4466 12.784 11 13.2375 11 13.7989C11 14.3604 11.4466 14.8139 11.9995 14.8139C12.5524 14.8139 12.999 14.3604 12.999 13.7989C12.999 13.2375 12.5524 12.784 11.9995 12.784Z" fill="white"/>
</svg>
