<svg width="16" height="16" viewBox="0 0 16 16" fill="none" xmlns="http://www.w3.org/2000/svg">
<path d="M10.8823 5.8766C10.7747 5.8766 10.6716 5.83388 10.5956 5.75784C10.5195 5.68181 10.4768 5.57868 10.4768 5.47114V3.24924C10.4768 3.1417 10.4341 3.03857 10.3581 2.96254C10.282 2.8865 10.1789 2.84378 10.0714 2.84378H8.63201C8.52448 2.84378 8.42135 2.80106 8.34532 2.72503C8.26928 2.64899 8.22656 2.54586 8.22656 2.43832C8.22656 2.33079 8.26928 2.22766 8.34532 2.15162C8.42135 2.07558 8.52448 2.03287 8.63201 2.03287H10.0714C10.394 2.03287 10.7033 2.16102 10.9315 2.38913C11.1596 2.61725 11.2877 2.92664 11.2877 3.24924V5.47114C11.2877 5.57868 11.245 5.68181 11.169 5.75784C11.0929 5.83388 10.9898 5.8766 10.8823 5.8766Z" fill="#05C882"/>
<path d="M7.2792 16H1.21635C0.893756 16 0.584372 15.8719 0.356261 15.6438C0.128151 15.4157 0 15.1063 0 14.7837V3.24924C0 2.92664 0.128151 2.61725 0.356261 2.38913C0.584372 2.16102 0.893756 2.03287 1.21635 2.03287H2.6557C2.76324 2.03287 2.86636 2.07558 2.9424 2.15162C3.01844 2.22766 3.06115 2.33079 3.06115 2.43832C3.06115 2.54586 3.01844 2.64899 2.9424 2.72503C2.86636 2.80106 2.76324 2.84378 2.6557 2.84378H1.21635C1.10882 2.84378 1.00569 2.8865 0.929655 2.96254C0.853619 3.03858 0.810902 3.1417 0.810902 3.24924V14.7837C0.810902 14.8912 0.853619 14.9943 0.929655 15.0704C1.00569 15.1464 1.10882 15.1891 1.21635 15.1891H7.2792C7.38673 15.1891 7.48986 15.2319 7.56589 15.3079C7.64193 15.3839 7.68465 15.4871 7.68465 15.5946C7.68465 15.7021 7.64193 15.8053 7.56589 15.8813C7.48986 15.9573 7.38673 16 7.2792 16Z" fill="#05C882"/>
<path d="M2.76056 7.23913C2.70729 7.23912 2.65454 7.22861 2.60533 7.2082C2.55612 7.1878 2.51142 7.15789 2.47377 7.1202L1.70477 6.35118C1.66711 6.31354 1.63723 6.26884 1.61684 6.21965C1.59645 6.17046 1.58595 6.11773 1.58594 6.06448C1.58592 6.01123 1.5964 5.9585 1.61677 5.9093C1.63713 5.8601 1.66699 5.81539 1.70463 5.77773C1.74228 5.74007 1.78697 5.71019 1.83616 5.6898C1.88535 5.66941 1.93808 5.65891 1.99133 5.6589C2.04458 5.65888 2.09731 5.66936 2.14651 5.68973C2.19571 5.71009 2.24042 5.73995 2.27808 5.77759L2.76056 6.26036L3.90988 5.10967C3.98598 5.0335 4.08922 4.99068 4.19689 4.99063C4.30455 4.99058 4.40783 5.0333 4.484 5.1094C4.56017 5.1855 4.60299 5.28874 4.60304 5.39641C4.60309 5.50408 4.56037 5.60736 4.48427 5.68353L3.04708 7.12047C2.97107 7.19643 2.86802 7.23911 2.76056 7.23913Z" fill="#05C882"/>
<path d="M2.75945 10.5972C2.7062 10.5972 2.65346 10.5867 2.60425 10.5664C2.55505 10.546 2.51033 10.5162 2.47266 10.4785L1.70366 9.70924C1.6298 9.63277 1.58894 9.53035 1.58986 9.42404C1.59078 9.31773 1.63342 9.21604 1.7086 9.14086C1.78377 9.06569 1.88546 9.02304 1.99177 9.02212C2.09808 9.0212 2.2005 9.06206 2.27697 9.13592L2.75945 9.61842L3.90877 8.46773C3.98524 8.39387 4.08766 8.353 4.19397 8.35393C4.30027 8.35485 4.40197 8.39749 4.47714 8.47267C4.55231 8.54784 4.59495 8.64954 4.59588 8.75585C4.5968 8.86216 4.55593 8.96457 4.48208 9.04104L3.04489 10.4783C3.00748 10.5159 2.96302 10.5458 2.91403 10.5662C2.86505 10.5866 2.81252 10.5971 2.75945 10.5972Z" fill="#05C882"/>
<path d="M2.76091 13.9549C2.70766 13.9549 2.65492 13.9445 2.60571 13.9241C2.5565 13.9037 2.51179 13.8739 2.47412 13.8362L1.70512 13.0669C1.66405 13.0301 1.63093 12.9853 1.60777 12.9353C1.58462 12.8852 1.57192 12.8309 1.57046 12.7758C1.56899 12.7207 1.57879 12.6658 1.59925 12.6146C1.61972 12.5634 1.65042 12.5169 1.68947 12.4779C1.72853 12.439 1.77512 12.4084 1.82639 12.3881C1.87767 12.3678 1.93255 12.3581 1.98768 12.3598C2.04281 12.3614 2.09703 12.3742 2.14702 12.3975C2.19701 12.4208 2.24172 12.4541 2.27842 12.4953L2.76091 12.9777L3.91023 11.8262C3.9867 11.7524 4.08912 11.7115 4.19542 11.7124C4.30173 11.7134 4.40342 11.756 4.4786 11.8312C4.55377 11.9064 4.59641 12.0081 4.59734 12.1144C4.59826 12.2207 4.55739 12.3231 4.48354 12.3996L3.04635 13.8368C2.97052 13.9123 2.86792 13.9547 2.76091 13.9549Z" fill="#05C882"/>
<path d="M9.12097 5.80203H5.81951C5.71198 5.80203 5.60885 5.75932 5.53282 5.68328C5.45678 5.60724 5.41406 5.50411 5.41406 5.39658C5.41406 5.28904 5.45678 5.18591 5.53282 5.10987C5.60885 5.03384 5.71198 4.99112 5.81951 4.99112H9.12097C9.17421 4.99112 9.22693 5.00161 9.27612 5.02198C9.32532 5.04236 9.37001 5.07222 9.40766 5.10987C9.44531 5.14752 9.47518 5.19222 9.49555 5.24141C9.51593 5.29061 9.52642 5.34333 9.52642 5.39658C9.52642 5.44982 9.51593 5.50255 9.49555 5.55174C9.47518 5.60093 9.44531 5.64563 9.40766 5.68328C9.37001 5.72093 9.32532 5.75079 9.27612 5.77117C9.22693 5.79155 9.17421 5.80203 9.12097 5.80203Z" fill="#05C882"/>
<path d="M7.28049 7.48111H5.81951C5.71198 7.48111 5.60885 7.43839 5.53282 7.36235C5.45678 7.28632 5.41406 7.18319 5.41406 7.07565C5.41406 6.96812 5.45678 6.86499 5.53282 6.78895C5.60885 6.71291 5.71198 6.6702 5.81951 6.6702H7.28049C7.38802 6.6702 7.49115 6.71291 7.56718 6.78895C7.64322 6.86499 7.68594 6.96812 7.68594 7.07565C7.68594 7.18319 7.64322 7.28632 7.56718 7.36235C7.49115 7.43839 7.38802 7.48111 7.28049 7.48111Z" fill="#05C882"/>
<path d="M8.62909 3.75737H2.65545C2.54792 3.75737 2.44479 3.71465 2.36875 3.63861C2.29272 3.56257 2.25 3.45944 2.25 3.35191V1.52465C2.25 1.41712 2.29272 1.31399 2.36875 1.23795C2.44479 1.16191 2.54792 1.11919 2.65545 1.11919H4.17238C4.2612 0.797496 4.45309 0.513817 4.71863 0.31166C4.98416 0.109503 5.30868 3.05176e-05 5.64241 3.05176e-05C5.97614 3.05176e-05 6.30065 0.109503 6.56619 0.31166C6.83172 0.513817 7.02361 0.797496 7.11244 1.11919H8.62936C8.7369 1.11919 8.84002 1.16191 8.91606 1.23795C8.9921 1.31399 9.03482 1.41712 9.03482 1.52465V3.35191C9.03482 3.40518 9.02432 3.45792 9.00393 3.50713C8.98353 3.55634 8.95364 3.60105 8.91597 3.63871C8.87829 3.67636 8.83356 3.70622 8.78434 3.72658C8.73511 3.74694 8.68236 3.7574 8.62909 3.75737ZM3.0609 2.94645H8.22364V1.93011H6.76132C6.65378 1.93011 6.55066 1.88739 6.47462 1.81135C6.39858 1.73531 6.35587 1.63218 6.35587 1.52465C6.35223 1.33776 6.27543 1.15975 6.14198 1.02887C6.00853 0.897983 5.82906 0.824666 5.64214 0.824666C5.45521 0.824666 5.27575 0.897983 5.14229 1.02887C5.00884 1.15975 4.93205 1.33776 4.92841 1.52465C4.92841 1.63218 4.88569 1.73531 4.80965 1.81135C4.73362 1.88739 4.63049 1.93011 4.52296 1.93011H3.06063L3.0609 2.94645Z" fill="#05C882"/>
<path d="M11.3367 16C8.76454 16 6.67188 13.9073 6.67188 11.3351C6.67188 8.76289 8.76454 6.6702 11.3367 6.6702C13.9089 6.6702 16.0016 8.76289 16.0016 11.3351C16.0016 13.9073 13.9089 16 11.3367 16ZM11.3367 7.48111C9.21162 7.48111 7.48278 9.21106 7.48278 11.3351C7.48278 13.4592 9.2127 15.1891 11.3367 15.1891C13.4607 15.1891 15.1907 13.4592 15.1907 11.3351C15.1907 9.21106 13.4618 7.48111 11.3367 7.48111Z" fill="#05C882"/>
<path d="M12.1912 13.9925H10.4826C10.3751 13.9925 10.2719 13.9498 10.1959 13.8737C10.1199 13.7977 10.0771 13.6946 10.0771 13.587V12.5947H9.08514C8.97761 12.5947 8.87448 12.552 8.79844 12.476C8.7224 12.4 8.67969 12.2968 8.67969 12.1893V10.481C8.67969 10.3734 8.7224 10.2703 8.79844 10.1943C8.87448 10.1182 8.97761 10.0755 9.08514 10.0755H10.0771V9.08322C10.0771 8.97569 10.1199 8.87256 10.1959 8.79652C10.2719 8.72048 10.3751 8.67776 10.4826 8.67776H12.1912C12.2987 8.67776 12.4018 8.72048 12.4779 8.79652C12.5539 8.87256 12.5966 8.97569 12.5966 9.08322V10.0755H13.5889C13.6964 10.0755 13.7995 10.1182 13.8756 10.1943C13.9516 10.2703 13.9943 10.3734 13.9943 10.481V12.1893C13.9943 12.2968 13.9516 12.4 13.8756 12.476C13.7995 12.552 13.6964 12.5947 13.5889 12.5947H12.5966V13.587C12.5966 13.6946 12.5539 13.7977 12.4779 13.8737C12.4018 13.9498 12.2987 13.9925 12.1912 13.9925ZM10.888 13.1816H11.7857V12.1893C11.7857 12.0818 11.8284 11.9786 11.9045 11.9026C11.9805 11.8266 12.0836 11.7838 12.1912 11.7838H13.1834V10.8864H12.1912C12.0836 10.8864 11.9805 10.8437 11.9045 10.7677C11.8284 10.6916 11.7857 10.5885 11.7857 10.481V9.48868H10.888V10.481C10.888 10.5342 10.8776 10.5869 10.8572 10.6361C10.8368 10.6853 10.8069 10.73 10.7693 10.7677C10.7316 10.8053 10.6869 10.8352 10.6378 10.8556C10.5886 10.8759 10.5358 10.8864 10.4826 10.8864H9.49059V11.7838H10.4826C10.5358 11.7838 10.5886 11.7943 10.6378 11.8147C10.6869 11.8351 10.7316 11.8649 10.7693 11.9026C10.8069 11.9402 10.8368 11.9849 10.8572 12.0341C10.8776 12.0833 10.888 12.136 10.888 12.1893V13.1816Z" fill="#05C882"/>
</svg>
