<svg width="15" height="15" viewBox="0 0 15 15" fill="none" xmlns="http://www.w3.org/2000/svg">
<g id="import 1" clip-path="url(#clip0_3100_1986)">
<path id="Vector" d="M15 2.34375V12.6562C14.9993 13.2776 14.7521 13.8734 14.3128 14.3128C13.8734 14.7521 13.2776 14.9993 12.6562 15H2.34375C1.72236 14.9993 1.12663 14.7521 0.687239 14.3128C0.247852 13.8734 0.000697883 13.2776 0 12.6562L0 11.1914C0 11.0049 0.074079 10.8261 0.205941 10.6942C0.337802 10.5624 0.516645 10.4883 0.703125 10.4883C0.889605 10.4883 1.06845 10.5624 1.20031 10.6942C1.33217 10.8261 1.40625 11.0049 1.40625 11.1914V12.6562C1.40652 12.9048 1.50538 13.1431 1.68114 13.3189C1.85689 13.4946 2.09519 13.5935 2.34375 13.5938H12.6562C12.9048 13.5935 13.1431 13.4946 13.3189 13.3189C13.4946 13.1431 13.5935 12.9048 13.5938 12.6562V2.34375C13.5935 2.09519 13.4946 1.85689 13.3189 1.68114C13.1431 1.50538 12.9048 1.40652 12.6562 1.40625H2.34375C2.0952 1.40653 1.8569 1.50539 1.68115 1.68115C1.50539 1.8569 1.40653 2.0952 1.40625 2.34375V3.80859C1.40625 3.99507 1.33217 4.17392 1.20031 4.30578C1.06845 4.43764 0.889605 4.51172 0.703125 4.51172C0.516645 4.51172 0.337802 4.43764 0.205941 4.30578C0.074079 4.17392 0 3.99507 0 3.80859L0 2.34375C0.000705622 1.72237 0.247862 1.12663 0.687248 0.687248C1.12663 0.247862 1.72237 0.000705622 2.34375 0L12.6562 0C13.2776 0.000697883 13.8734 0.247852 14.3128 0.687239C14.7521 1.12663 14.9993 1.72236 15 2.34375ZM0 7.5C0 7.68648 0.074079 7.86532 0.205941 7.99718C0.337802 8.12905 0.516645 8.20312 0.703125 8.20312H6.70711L5.25984 9.65039C5.19455 9.71568 5.14276 9.79319 5.10742 9.8785C5.07208 9.96381 5.05389 10.0552 5.05389 10.1476C5.05389 10.3341 5.12797 10.5129 5.25983 10.6448C5.39169 10.7766 5.57053 10.8507 5.75702 10.8507C5.9435 10.8507 6.12234 10.7766 6.25421 10.6448L8.9018 7.9972C8.96709 7.93191 9.01889 7.85439 9.05422 7.76908C9.08956 7.68377 9.10775 7.59234 9.10775 7.5C9.10775 7.40766 9.08956 7.31623 9.05422 7.23092C9.01889 7.14561 8.96709 7.06809 8.9018 7.0028L6.25421 4.35522C6.12234 4.22335 5.9435 4.14927 5.75701 4.14927C5.57053 4.14927 5.39168 4.22335 5.25981 4.35522C5.12795 4.48708 5.05387 4.66593 5.05387 4.85241C5.05387 5.0389 5.12795 5.21774 5.25981 5.34961L6.70708 6.79688H0.703125C0.516645 6.79688 0.337802 6.87095 0.205941 7.00282C0.074079 7.13468 0 7.31352 0 7.5Z" fill="#9CB1C5"/>
</g>
<defs>
<clipPath id="clip0_3100_1986">
<rect width="15" height="15" fill="white"/>
</clipPath>
</defs>
</svg>
