<svg width="12" height="12" viewBox="0 0 12 12" fill="none" xmlns="http://www.w3.org/2000/svg">
<g clip-path="url(#clip0_789_141)">
<path d="M10.243 1.75729C7.89986 -0.585632 4.10073 -0.585893 1.75729 1.75729C-0.585893 4.10047 -0.585632 7.8996 1.75729 10.243C4.10047 12.5857 7.8996 12.586 10.243 10.243C12.586 7.8996 12.5857 4.10073 10.243 1.75729ZM6.78253 8.60892C6.78253 9.04119 6.43217 9.39154 5.9999 9.39154C5.56763 9.39154 5.21728 9.04119 5.21728 8.60892V5.47841C5.21728 5.04614 5.56763 4.69579 5.9999 4.69579C6.43217 4.69579 6.78253 5.04614 6.78253 5.47841V8.60892ZM5.98608 4.14064C5.53528 4.14064 5.23476 3.82133 5.24415 3.42715C5.23476 3.01392 5.53528 2.70427 5.99521 2.70427C6.45539 2.70427 6.74653 3.01418 6.75618 3.42715C6.75592 3.82133 6.45565 4.14064 5.98608 4.14064Z" fill="#5D35E9"/>
</g>
<defs>
<clipPath id="clip0_789_141">
<rect width="12" height="12" fill="white"/>
</clipPath>
</defs>
</svg>
