<svg width="14" height="22" viewBox="0 0 14 22" fill="none" xmlns="http://www.w3.org/2000/svg">
<path d="M5.62779 17.1395C6.05164 17.1395 6.39524 16.7959 6.39524 16.3721C6.39524 15.9483 6.05164 15.6047 5.62779 15.6047C5.20395 15.6047 4.86035 15.9483 4.86035 16.3721C4.86035 16.7959 5.20395 17.1395 5.62779 17.1395Z" fill="white"/>
<path d="M7.67462 19.4419C8.23975 19.4419 8.69788 18.9837 8.69788 18.4186C8.69788 17.8535 8.23975 17.3953 7.67462 17.3953C7.10949 17.3953 6.65137 17.8535 6.65137 18.4186C6.65137 18.9837 7.10949 19.4419 7.67462 19.4419Z" fill="white"/>
<path d="M7.93053 15.093C8.35437 15.093 8.69797 14.7494 8.69797 14.3256C8.69797 13.9017 8.35437 13.5581 7.93053 13.5581C7.50668 13.5581 7.16309 13.9017 7.16309 14.3256C7.16309 14.7494 7.50668 15.093 7.93053 15.093Z" fill="white"/>
<path fill-rule="evenodd" clip-rule="evenodd" d="M10.5068 11.3397C10.2599 11.1236 10.0621 10.8573 9.92658 10.5585C9.79104 10.2597 9.72093 9.93543 9.72093 9.60735V0.767442C9.72093 0.563904 9.64007 0.368702 9.49615 0.224779C9.35223 0.0808553 9.15703 0 8.95349 0H4.86047C4.65693 0 4.46173 0.0808553 4.3178 0.224779C4.17388 0.368702 4.09302 0.563904 4.09302 0.767442V9.60735C4.09303 9.93543 4.02291 10.2597 3.88738 10.5585C3.75184 10.8573 3.55402 11.1236 3.30716 11.3397L1.65972 12.7805C1.13834 13.2367 0.720513 13.7991 0.434262 14.43C0.148012 15.061 -5.11698e-05 15.7458 1.32654e-08 16.4386V18.1628C1.32654e-08 19.1805 0.404276 20.1565 1.12389 20.8761C1.84351 21.5957 2.81952 22 3.83721 22H9.97674C10.9944 22 11.9704 21.5957 12.6901 20.8761C13.4097 20.1565 13.814 19.1805 13.814 18.1628V16.4386C13.814 15.7458 13.6659 15.061 13.3797 14.43C13.0934 13.7991 12.6756 13.2367 12.1542 12.7805L10.5068 11.3397ZM9.49684 12.495L11.1433 13.9357C11.4999 14.2479 11.7858 14.6328 11.9817 15.0644C12.1775 15.4961 12.2789 15.9646 12.2791 16.4386V18.1628C12.2791 18.7734 12.0365 19.359 11.6047 19.7908C11.173 20.2226 10.5874 20.4651 9.97674 20.4651H3.83721C3.22659 20.4651 2.64099 20.2226 2.20922 19.7908C1.77745 19.359 1.53488 18.7734 1.53488 18.1628V16.4386C1.53488 15.4798 1.9493 14.5671 2.6707 13.9357L4.31712 12.495C4.72878 12.1349 5.0587 11.6909 5.28477 11.1929C5.51084 10.6949 5.62783 10.1543 5.62791 9.60735V1.53488H8.18605V9.60735C8.18612 10.1543 8.30311 10.6949 8.52918 11.1929C8.75525 11.6909 9.08518 12.1349 9.49684 12.495Z" fill="white"/>
<path fill-rule="evenodd" clip-rule="evenodd" d="M3.83678 1.53488H9.97631C10.1799 1.53488 10.3751 1.45403 10.519 1.31011C10.6629 1.16618 10.7438 0.97098 10.7438 0.767442C10.7438 0.563904 10.6629 0.368702 10.519 0.224779C10.3751 0.0808553 10.1799 0 9.97631 0H3.83678C3.63324 0 3.43804 0.0808553 3.29411 0.224779C3.15019 0.368702 3.06934 0.563904 3.06934 0.767442C3.06934 0.97098 3.15019 1.16618 3.29411 1.31011C3.43804 1.45403 3.63324 1.53488 3.83678 1.53488Z" fill="white"/>
</svg>
