<svg width="1440" height="845" viewBox="0 0 1440 845" fill="none" xmlns="http://www.w3.org/2000/svg">
<g clip-path="url(#clip0_1206_748)">
<rect width="1440" height="845" fill="#F5F5FD"/>
<circle cx="1018" cy="296" r="96" fill="#E9E7FF"/>
<circle cx="422" cy="1006" r="197" stroke="#E9E7FF" stroke-width="120"/>
<path d="M1180 823.314V845H1323.88C1324.17 818.543 1330.12 793.424 1340.52 770.834C1345.27 760.497 1351 750.666 1357.53 741.486C1380.37 709.318 1413.44 684.813 1451.99 672.705C1468.74 667.428 1486.54 664.501 1505 664.284V520C1451.88 520.325 1401.77 533.265 1357.53 555.926C1351.56 558.986 1345.7 562.215 1339.94 565.613C1295.13 592.142 1257.2 629.008 1229.46 672.886C1201.54 717.053 1183.95 768.304 1180 823.314Z" fill="#887DFF"/>
<circle cx="-27" cy="364" r="197" stroke="#E9E7FF" stroke-width="120"/>
</g>
<defs>
<clipPath id="clip0_1206_748">
<rect width="1440" height="845" fill="white"/>
</clipPath>
</defs>
</svg>
