<svg width="62" height="62" viewBox="0 0 62 62" fill="none" xmlns="http://www.w3.org/2000/svg">
<path d="M12.9167 28.4167H33.5833V33.5833H12.9167V41.3333L0 31L12.9167 20.6667V28.4167ZM10.3333 46.5H17.329C20.3119 49.1307 23.9906 50.8448 27.9236 51.4366C31.8566 52.0284 35.8767 51.4728 39.5018 49.8364C43.1268 48.2 46.2026 45.5524 48.3602 42.2112C50.5177 38.87 51.6654 34.9772 51.6654 31C51.6654 27.0228 50.5177 23.13 48.3602 19.7888C46.2026 16.4476 43.1268 13.8 39.5018 12.1636C35.8767 10.5272 31.8566 9.97159 27.9236 10.5634C23.9906 11.1552 20.3119 12.8693 17.329 15.5H10.3333C12.7375 12.2894 15.8574 9.68365 19.4449 7.88986C23.0325 6.09608 26.989 5.16365 31 5.16666C45.2677 5.16666 56.8333 16.7322 56.8333 31C56.8333 45.2677 45.2677 56.8333 31 56.8333C26.989 56.8363 23.0325 55.9039 19.4449 54.1101C15.8574 52.3163 12.7375 49.7106 10.3333 46.5Z" fill="#05C882"/>
</svg>
