<svg width="16" height="16" viewBox="0 0 16 16" fill="none" xmlns="http://www.w3.org/2000/svg">
<path d="M14.6553 0.544006H10.2393C9.79134 0.544006 9.43934 0.896006 9.43934 1.34401C9.43934 1.79201 9.79134 2.14401 10.2393 2.14401H12.7033L9.75934 5.08801C7.48734 3.39201 4.25534 3.55201 2.20734 5.60001C-0.0326563 7.84001 -0.0326563 11.52 2.20734 13.76C4.44734 16 8.12734 16 10.3673 13.76C12.4153 11.712 12.6073 8.44801 10.8793 6.20801L13.8233 3.26401V5.76001C13.8233 6.20801 14.1753 6.56001 14.6233 6.56001C15.0713 6.56001 15.4233 6.20801 15.4233 5.76001V1.34401C15.4553 0.896006 15.1033 0.544006 14.6553 0.544006ZM9.27934 12.64C7.64734 14.272 4.99134 14.272 3.35934 12.64C1.72734 11.008 1.72734 8.35201 3.35934 6.72001C4.99134 5.08801 7.64734 5.08801 9.27934 6.72001C10.9113 8.35201 10.9113 11.008 9.27934 12.64Z" fill="#05C882"/>
</svg>
