<svg width="10" height="9" viewBox="0 0 10 9" fill="none" xmlns="http://www.w3.org/2000/svg">
<path d="M7.91536 0.25H2.08203C1.3737 0.25 0.832031 0.791667 0.832031 1.5V7.75C0.832031 7.91667 0.915365 8.04167 1.04036 8.125C1.1237 8.16667 1.16536 8.16667 1.2487 8.16667C1.33203 8.16667 1.41536 8.16667 1.45703 8.125L3.33203 6.95833C3.41536 6.91667 3.4987 6.91667 3.58203 6.91667H7.91536C8.6237 6.91667 9.16536 6.375 9.16536 5.66667V1.5C9.16536 0.791667 8.6237 0.25 7.91536 0.25ZM3.33203 4C3.08203 4 2.91536 3.83333 2.91536 3.58333C2.91536 3.33333 3.08203 3.16667 3.33203 3.16667C3.58203 3.16667 3.7487 3.33333 3.7487 3.58333C3.7487 3.83333 3.58203 4 3.33203 4ZM4.9987 4C4.7487 4 4.58203 3.83333 4.58203 3.58333C4.58203 3.33333 4.7487 3.16667 4.9987 3.16667C5.2487 3.16667 5.41536 3.33333 5.41536 3.58333C5.41536 3.83333 5.2487 4 4.9987 4ZM6.66536 4C6.41536 4 6.2487 3.83333 6.2487 3.58333C6.2487 3.33333 6.41536 3.16667 6.66536 3.16667C6.91536 3.16667 7.08203 3.33333 7.08203 3.58333C7.08203 3.83333 6.91536 4 6.66536 4Z" fill="#EF0064"/>
</svg>
