<svg width="20" height="15" viewBox="0 0 20 15" fill="none" xmlns="http://www.w3.org/2000/svg">
<path fill-rule="evenodd" clip-rule="evenodd" d="M19.7083 2.52083C19.7083 1.85258 19.4425 1.21092 18.9704 0.737917C18.4972 0.265646 17.8561 0.000280697 17.1875 0H2.52083C1.85258 0 1.21092 0.265833 0.737917 0.737917C0.265646 1.21112 0.000280697 1.85228 0 2.52083V12.1458C0 12.8141 0.265833 13.4558 0.737917 13.9288C1.21112 14.401 1.85228 14.6664 2.52083 14.6667H17.1875C17.8558 14.6667 18.4974 14.4008 18.9704 13.9288C19.4427 13.4555 19.7081 12.8144 19.7083 12.1458V2.52083ZM18.3333 2.52083V12.1458C18.3328 12.4496 18.212 12.7407 17.9972 12.9555C17.7824 13.1703 17.4912 13.2912 17.1875 13.2917H2.52083C2.21709 13.2912 1.92592 13.1703 1.71114 12.9555C1.49636 12.7407 1.37548 12.4496 1.375 12.1458V2.52083C1.37548 2.21709 1.49636 1.92592 1.71114 1.71114C1.92592 1.49636 2.21709 1.37548 2.52083 1.375H17.1875C17.4912 1.37548 17.7824 1.49636 17.9972 1.71114C18.212 1.92592 18.3328 2.21709 18.3333 2.52083Z" fill="white"/>
<path fill-rule="evenodd" clip-rule="evenodd" d="M3.8458 5.14983L7.94696 7.96674C8.52421 8.36281 9.20855 8.57334 9.9086 8.57023C10.6087 8.56711 11.2911 8.35051 11.8648 7.94933L15.8679 5.14616C15.9451 5.09579 16.0114 5.0304 16.0628 4.95389C16.1142 4.87738 16.1497 4.79132 16.1672 4.70081C16.1847 4.61031 16.1838 4.51721 16.1646 4.42705C16.1453 4.3369 16.1082 4.25153 16.0553 4.17603C16.0024 4.10052 15.9349 4.03642 15.8568 3.98754C15.7786 3.93865 15.6914 3.90598 15.6004 3.89147C15.5094 3.87696 15.4163 3.88091 15.3269 3.90307C15.2374 3.92524 15.1533 3.96517 15.0795 4.02049L11.0755 6.82274C10.7314 7.06354 10.322 7.19353 9.90196 7.19533C9.48195 7.19713 9.0714 7.07066 8.72521 6.83283L4.62496 4.01683C4.55057 3.96567 4.46683 3.92966 4.37852 3.91086C4.29021 3.89207 4.19906 3.89085 4.11028 3.90727C4.0215 3.9237 3.93683 3.95746 3.86109 4.00661C3.78535 4.05576 3.72004 4.11935 3.66888 4.19374C3.61772 4.26814 3.58171 4.35188 3.56292 4.44019C3.54412 4.5285 3.5429 4.61965 3.55933 4.70843C3.57576 4.79721 3.60951 4.88188 3.65866 4.95762C3.70782 5.03335 3.7714 5.09867 3.8458 5.14983Z" fill="white"/>
</svg>
