<svg width="19" height="21" viewBox="0 0 19 21" fill="none" xmlns="http://www.w3.org/2000/svg">
<circle cx="7" cy="5" r="4.5" stroke="#05C882"/>
<path d="M13.5 16C13.5 17.1773 12.8328 18.2904 11.6591 19.1287C10.4865 19.9663 8.8408 20.5 7 20.5C5.1592 20.5 3.51354 19.9663 2.34087 19.1287C1.16724 18.2904 0.5 17.1773 0.5 16C0.5 14.8227 1.16724 13.7096 2.34087 12.8713C3.51354 12.0337 5.1592 11.5 7 11.5C8.8408 11.5 10.4865 12.0337 11.6591 12.8713C12.8328 13.7096 13.5 14.8227 13.5 16Z" stroke="#05C882"/>
<path fill-rule="evenodd" clip-rule="evenodd" d="M14 18.9447C16.8377 18.6273 19 16.982 19 15C19 13.018 16.8377 11.3727 14 11.0553V12.0623C15.0678 12.1974 15.9963 12.5425 16.6879 13.0036C17.5949 13.6083 18 14.3338 18 15C18 15.6662 17.5949 16.3917 16.6879 16.9964C15.9963 17.4575 15.0678 17.8026 14 17.9377V18.9447Z" fill="#05C882"/>
<path fill-rule="evenodd" clip-rule="evenodd" d="M14 9.87399C15.7252 9.42995 17 7.86385 17 6.00001C17 4.13617 15.7252 2.57007 14 2.12603V3.17072C15.1652 3.58255 16 4.69379 16 6.00001C16 7.30623 15.1652 8.41747 14 8.82931V9.87399Z" fill="#05C882"/>
</svg>
