<svg width="21" height="21" viewBox="0 0 21 21" fill="none" xmlns="http://www.w3.org/2000/svg">
<g id="notification 2">
<g id="01">
<path id="Vector" d="M19.9071 8.72406L19.9063 11.3491C19.9063 15.2127 17.864 17.2549 14 17.2549H13.5634C13.5295 17.2548 13.4962 17.2627 13.4659 17.2778C13.4356 17.293 13.4093 17.3149 13.3891 17.342L12.0757 19.0925C11.9023 19.351 11.6679 19.5628 11.3933 19.7093C11.1186 19.8558 10.8121 19.9324 10.5009 19.9324C10.1896 19.9324 9.88309 19.8558 9.60844 19.7093C9.33379 19.5628 9.09942 19.351 8.92602 19.0925L7.61352 17.3425C7.56214 17.2985 7.50038 17.2683 7.43409 17.2549H7C3.35388 17.2549 1.09375 16.2667 1.09375 11.3482L1.09462 6.9732C1.09462 3.10962 3.13688 1.06738 7.00088 1.06738H12.2509C12.4249 1.06738 12.5918 1.13652 12.7149 1.25959C12.838 1.38266 12.9071 1.54958 12.9071 1.72363C12.9071 1.89768 12.838 2.0646 12.7149 2.18767C12.5918 2.31074 12.4249 2.37988 12.2509 2.37988H7.00088C3.86663 2.37988 2.40713 3.83938 2.40713 6.9732L2.40625 11.3482C2.40625 15.3041 3.76062 15.9424 7 15.9424H7.43838C7.67471 15.9493 7.90669 16.0077 8.11817 16.1134C8.32964 16.2192 8.51552 16.3697 8.66286 16.5546L9.97536 18.3046C10.0283 18.3973 10.1048 18.4743 10.1971 18.5279C10.2893 18.5815 10.3942 18.6097 10.5009 18.6097C10.6076 18.6097 10.7124 18.5815 10.8047 18.5279C10.897 18.4743 10.9735 18.3973 11.0264 18.3046L12.3389 16.5546C12.4818 16.3649 12.6668 16.2109 12.8792 16.1047C13.0917 15.9985 13.3259 15.9429 13.5634 15.9424H14C17.1343 15.9424 18.5938 14.4829 18.5938 11.3491L18.5946 8.72366C18.5947 8.54961 18.6639 8.38271 18.787 8.25968C18.9101 8.13665 19.077 8.06757 19.2511 8.06762C19.4251 8.06768 19.592 8.13688 19.7151 8.25999C19.8381 8.3831 19.9072 8.55001 19.9071 8.72406ZM9.62331 9.59866C9.62328 9.71357 9.64589 9.82737 9.68985 9.93354C9.73382 10.0397 9.79827 10.1362 9.87953 10.2174C9.96078 10.2987 10.0573 10.3632 10.1634 10.4071C10.2696 10.4511 10.3834 10.4737 10.4983 10.4737H10.5034C10.6763 10.4726 10.8449 10.4205 10.9882 10.3237C11.1314 10.2269 11.2427 10.0899 11.3082 9.92997C11.3736 9.77 11.3902 9.59423 11.3559 9.42483C11.3215 9.25544 11.2378 9.10001 11.1152 8.97815C10.9926 8.85629 10.8367 8.77346 10.6671 8.74012C10.4975 8.70677 10.3219 8.72439 10.1623 8.79077C10.0027 8.85714 9.86635 8.96929 9.77043 9.11307C9.67451 9.25685 9.62331 9.42582 9.62331 9.59866ZM13.9983 10.4737H14.0034C14.236 10.473 14.4587 10.38 14.6228 10.2153C14.7868 10.0505 14.8788 9.82734 14.8784 9.59482C14.8781 9.3623 14.7855 9.13941 14.621 8.97511C14.4564 8.81082 14.2334 8.71854 14.0009 8.71854C13.7684 8.71854 13.5453 8.81082 13.3808 8.97511C13.2163 9.13941 13.1237 9.3623 13.1233 9.59482C13.123 9.82734 13.2149 10.0505 13.379 10.2153C13.543 10.38 13.7658 10.473 13.9983 10.4737ZM6.12331 9.59866C6.12328 9.71357 6.14589 9.82737 6.18985 9.93354C6.23382 10.0397 6.29827 10.1362 6.37952 10.2174C6.46078 10.2987 6.55725 10.3632 6.66343 10.4071C6.7696 10.4511 6.8834 10.4737 6.99831 10.4737H7.00344C7.17628 10.4726 7.34494 10.4205 7.48816 10.3237C7.63138 10.2269 7.74273 10.0899 7.80817 9.92997C7.87361 9.77 7.89021 9.59423 7.85587 9.42483C7.82153 9.25544 7.73779 9.10001 7.61522 8.97815C7.49265 8.85629 7.33673 8.77346 7.16714 8.74012C6.99755 8.70677 6.82188 8.72439 6.66229 8.79077C6.5027 8.85714 6.36635 8.96929 6.27043 9.11307C6.17451 9.25685 6.12331 9.42582 6.12331 9.59866ZM14.2196 3.91116C14.2196 3.34872 14.3864 2.79891 14.6989 2.33126C15.0114 1.8636 15.4555 1.49911 15.9751 1.28388C16.4947 1.06864 17.0665 1.01232 17.6182 1.12205C18.1698 1.23178 18.6765 1.50262 19.0742 1.90032C19.4719 2.29803 19.7428 2.80474 19.8525 3.35637C19.9622 3.908 19.9059 4.47979 19.6907 4.99942C19.4754 5.51904 19.1109 5.96318 18.6433 6.27565C18.1756 6.58813 17.6258 6.75491 17.0634 6.75491C16.3094 6.75404 15.5866 6.45415 15.0535 5.92103C14.5204 5.38791 14.2205 4.6651 14.2196 3.91116ZM15.5321 3.91116C15.5321 4.21401 15.6219 4.51006 15.7902 4.76188C15.9584 5.01369 16.1976 5.20995 16.4774 5.32585C16.7572 5.44175 17.0651 5.47207 17.3621 5.41299C17.6591 5.3539 17.932 5.20807 18.1461 4.99392C18.3603 4.77977 18.5061 4.50692 18.5652 4.20989C18.6243 3.91286 18.594 3.60497 18.4781 3.32518C18.3622 3.04538 18.1659 2.80623 17.9141 2.63797C17.6623 2.46972 17.3662 2.37991 17.0634 2.37991C16.6574 2.3804 16.2682 2.54189 15.9812 2.82894C15.6941 3.116 15.5326 3.5052 15.5321 3.91116Z" fill="#9CB1C5"/>
</g>
</g>
</svg>
