<svg width="25" height="26" viewBox="0 0 25 26" fill="none" xmlns="http://www.w3.org/2000/svg">
<path d="M16.4535 4.40582C12.9885 -1.24547 3.34663 -0.702818 1.71853 5.71425C0.547163 10.332 2.73715 19.9302 3.58149 22.4751C5.02805 26.8395 11.1211 26.4508 11.8848 20.9378C11.8848 20.9378 11.951 18.151 14.2823 15.9861C16.4708 13.9537 17.6941 12.2565 17.6941 9.12137C17.6941 8.98466 17.6912 8.84938 17.6868 8.71695" stroke="#2676FF" stroke-miterlimit="10" stroke-linecap="round" stroke-linejoin="round"/>
<path d="M5.19766 16.2092C5.61402 19.0909 8.17578 20.0597 9.75345 17.1808C10.4335 15.9415 11.164 14.7294 12.21 13.7578C13.7747 12.3054 14.6493 11.3223 14.6493 9.12134C14.6493 6.79236 13.6494 4.8937 11.4378 3.99837C9.72318 3.30313 7.41645 3.37082 5.9152 4.5396C5.27693 5.03624 4.85905 5.67822 4.66888 6.46268C4.51476 7.09608 4.55076 7.64452 4.79999 8.20585C5.26393 9.24946 6.22065 8.9731 7.13121 8.89536C7.75937 8.84209 8.39911 9.10118 8.80973 9.63814C9.44658 10.4744 9.28377 11.6677 8.44812 12.304" stroke="#2676FF" stroke-miterlimit="10" stroke-linecap="round" stroke-linejoin="round"/>
<path d="M23.6226 16.0566C18.4069 16.0566 14.1782 20.2814 14.1782 25.4922" stroke="#2676FF" stroke-miterlimit="10" stroke-linecap="round" stroke-linejoin="round"/>
<path d="M23.6216 18.741C19.8884 18.741 16.8643 21.7638 16.8643 25.492" stroke="#2676FF" stroke-miterlimit="10" stroke-linecap="round" stroke-linejoin="round"/>
<path d="M23.623 21.4258C21.3739 21.4258 19.5513 23.2466 19.5513 25.4922" stroke="#2676FF" stroke-miterlimit="10" stroke-linecap="round" stroke-linejoin="round"/>
<path d="M17.3488 6.47554L17.3472 6.47387" stroke="#2676FF" stroke-miterlimit="10" stroke-linecap="round" stroke-linejoin="round"/>
</svg>
