<svg width="153" height="159" viewBox="0 0 153 159" fill="none" xmlns="http://www.w3.org/2000/svg">
<path d="M150.5 144.125V144.035L150.494 143.945C148.663 118.473 140.519 94.738 127.59 74.286L127.59 74.286C114.747 53.9703 97.1874 36.9026 76.4376 24.62L76.4353 24.6187C73.7723 23.0461 71.0591 21.5517 68.2959 20.1355L68.2955 20.1353C47.8105 9.64128 24.6062 3.65063 0.0153085 3.50005L-2.5 3.48464V6V71.7046V74.1754L-0.0293726 74.2044C8.12894 74.3003 15.9934 75.5942 23.3899 77.9241L23.3918 77.9247C40.4148 83.2721 55.0249 94.0971 65.1173 108.309L65.1181 108.31C68.0026 112.367 70.5323 116.709 72.6283 121.27L72.6293 121.272C77.2245 131.247 79.8511 142.339 79.9792 154.027L80.0063 156.5H82.479H148H150.5V154V144.125Z" fill="#E9E7FF" stroke="#E9E7FF" stroke-width="5"/>
</svg>
