<svg width="22" height="22" viewBox="0 0 22 22" fill="none" xmlns="http://www.w3.org/2000/svg">
<g id="heartbeat 1">
<g id="Layer 51">
<path id="Vector" d="M4.91494 16.5008H2.79469C3.00022 15.1466 3.68961 13.9128 4.73513 13.0279C5.78065 12.1431 7.11146 11.6671 8.481 11.6883H14.1873C15.2432 11.6757 16.2821 11.9553 17.1892 12.4962C18.0962 13.0371 18.8361 13.8182 19.327 14.7532C19.4106 14.9153 19.5552 15.0375 19.7289 15.093C19.8149 15.1205 19.9055 15.1308 19.9955 15.1232C20.0855 15.1157 20.1731 15.0905 20.2534 15.0491C20.3337 15.0077 20.405 14.9509 20.4633 14.882C20.5216 14.813 20.5658 14.7332 20.5933 14.6472C20.6207 14.5612 20.631 14.4706 20.6235 14.3806C20.616 14.2906 20.5908 14.203 20.5494 14.1227C19.943 12.9629 19.0279 11.9933 17.905 11.321C16.7821 10.6487 15.4952 10.3 14.1866 10.3133H8.48031C6.62721 10.2855 4.83868 10.9936 3.50678 12.2823C2.17488 13.571 1.40828 15.3353 1.375 17.1883C1.375 17.3706 1.44743 17.5455 1.57636 17.6744C1.7053 17.8034 1.88016 17.8758 2.0625 17.8758H4.91494C5.09727 17.8758 5.27214 17.8034 5.40107 17.6744C5.53 17.5455 5.60244 17.3706 5.60244 17.1883C5.60244 17.006 5.53 16.8311 5.40107 16.7022C5.27214 16.5732 5.09727 16.5008 4.91494 16.5008Z" fill="black"/>
<path id="Vector_2" d="M19.9375 16.5004H17.5553L15.0116 12.6813C14.9448 12.581 14.8528 12.5001 14.7448 12.4466C14.6369 12.393 14.5168 12.3688 14.3965 12.3763C14.2763 12.3839 14.1601 12.4229 14.0597 12.4894C13.9592 12.556 13.878 12.6477 13.8242 12.7556L10.8845 18.6351L9.4875 16.7754C9.42346 16.69 9.34042 16.6207 9.24496 16.5729C9.1495 16.5252 9.04423 16.5004 8.9375 16.5004H7.5625C7.38016 16.5004 7.2053 16.5728 7.07636 16.7017C6.94743 16.8307 6.875 17.0055 6.875 17.1879C6.875 17.3702 6.94743 17.5451 7.07636 17.674C7.2053 17.8029 7.38016 17.8754 7.5625 17.8754H8.59375L10.45 20.3504C10.514 20.4358 10.5971 20.5051 10.6925 20.5528C10.788 20.6005 10.8933 20.6254 11 20.6254H11.0619C11.178 20.6143 11.2895 20.5739 11.3857 20.5078C11.4819 20.4418 11.5598 20.3523 11.6119 20.2479L14.5193 14.4324L16.6121 17.5722C16.6755 17.6663 16.7613 17.7432 16.8617 17.7961C16.9621 17.849 17.074 17.8763 17.1875 17.8754H19.9375C20.1198 17.8754 20.2947 17.8029 20.4236 17.674C20.5526 17.5451 20.625 17.3702 20.625 17.1879C20.625 17.0055 20.5526 16.8307 20.4236 16.7017C20.2947 16.5728 20.1198 16.5004 19.9375 16.5004Z" fill="black"/>
<path id="Vector_3" d="M11 9.625C11.8158 9.625 12.6134 9.38307 13.2917 8.92981C13.9701 8.47655 14.4988 7.83232 14.811 7.07857C15.1232 6.32483 15.2049 5.49543 15.0457 4.69525C14.8866 3.89508 14.4937 3.16008 13.9168 2.58319C13.3399 2.00629 12.6049 1.61343 11.8047 1.45426C11.0046 1.2951 10.1752 1.37679 9.42143 1.689C8.66769 2.00121 8.02345 2.52992 7.57019 3.20827C7.11693 3.88663 6.875 4.68415 6.875 5.5C6.87609 6.59368 7.31104 7.64226 8.08439 8.41561C8.85774 9.18896 9.90632 9.62391 11 9.625ZM11 2.75C11.5439 2.75 12.0756 2.91129 12.5278 3.21346C12.9801 3.51563 13.3325 3.94513 13.5407 4.44762C13.7488 4.95012 13.8033 5.50305 13.6972 6.0365C13.5911 6.56995 13.3291 7.05995 12.9445 7.44455C12.5599 7.82914 12.0699 8.09105 11.5365 8.19716C11.0031 8.30327 10.4501 8.24881 9.94762 8.04067C9.44512 7.83253 9.01563 7.48005 8.71346 7.02782C8.41128 6.57558 8.25 6.0439 8.25 5.5C8.25 4.77066 8.53973 4.07118 9.05546 3.55546C9.57118 3.03973 10.2707 2.75 11 2.75Z" fill="black"/>
</g>
</g>
</svg>
