<svg width="15" height="15" viewBox="0 0 15 15" fill="none" xmlns="http://www.w3.org/2000/svg">
<g id="edit 3" clip-path="url(#clip0_1840_6644)">
<g id="g2259">
<g id="g2261">
<g id="Clip path group">
<mask id="mask0_1840_6644" style="mask-type:luminance" maskUnits="userSpaceOnUse" x="0" y="0" width="15" height="15">
<g id="clipPath2267">
<path id="path2265" d="M0.28125 0.919922H14.0312V14.6699H0.28125V0.919922Z" fill="white"/>
</g>
</mask>
<g mask="url(#mask0_1840_6644)">
<g id="g2263">
<g id="g2269">
<path id="path2271" d="M5.81543 14.1328H3.50586C2.02266 14.1328 0.820312 12.9305 0.820312 11.4473V4.14258C0.820312 2.65938 2.02266 1.45703 3.50586 1.45703H10.8105C12.2937 1.45703 13.4961 2.65938 13.4961 4.14258V6.82813" stroke="#F7BA06" stroke-width="1.23488" stroke-miterlimit="10" stroke-linecap="round" stroke-linejoin="round"/>
</g>
<g id="g2273">
<path id="path2275" d="M6.00195 4.67969C6.00195 5.27298 5.52103 5.75391 4.92773 5.75391C4.33444 5.75391 3.85352 5.27298 3.85352 4.67969C3.85352 4.0864 4.33444 3.60547 4.92773 3.60547C5.52103 3.60547 6.00195 4.0864 6.00195 4.67969Z" stroke="#F7BA06" stroke-width="1.23488" stroke-miterlimit="10" stroke-linecap="round" stroke-linejoin="round"/>
</g>
<g id="g2277">
<path id="path2279" d="M8.01562 6.12891H11.3457" stroke="#F7BA06" stroke-width="1.23488" stroke-miterlimit="10" stroke-linecap="round" stroke-linejoin="round"/>
</g>
<g id="g2281">
<path id="path2283" d="M3.45312 9.89062H7.37402" stroke="#F7BA06" stroke-width="1.23488" stroke-miterlimit="10" stroke-linecap="round" stroke-linejoin="round"/>
</g>
<g id="g2285">
<path id="path2287" d="M3.45312 11.7715H5.22559" stroke="#F7BA06" stroke-width="1.23488" stroke-miterlimit="10" stroke-linecap="round" stroke-linejoin="round"/>
</g>
<g id="g2289">
<path id="path2291" d="M13.0782 9.01746C13.6341 9.57332 13.6341 10.4745 13.0782 11.0304L11.1954 12.9132C10.728 13.3806 10.1328 13.6991 9.48466 13.8286L7.96289 14.1328L8.26708 12.611C8.39661 11.9629 8.71514 11.3677 9.18253 10.9003L11.0653 9.01746C11.6212 8.46161 12.5224 8.46161 13.0782 9.01746Z" stroke="#F7BA06" stroke-width="1.23488" stroke-miterlimit="10" stroke-linecap="round" stroke-linejoin="round"/>
</g>
<g id="g2293">
<path id="path2295" d="M8.01562 4.25195H11.3457" stroke="#F7BA06" stroke-width="1.23488" stroke-miterlimit="10" stroke-linecap="round" stroke-linejoin="round"/>
</g>
<g id="g2297">
<path id="path2299" d="M6.35254 7.9043C6.02386 7.60513 5.58388 7.4209 5.09973 7.4209H4.75867C4.27449 7.4209 3.83454 7.60513 3.50586 7.9043" stroke="#F7BA06" stroke-width="1.23488" stroke-miterlimit="10" stroke-linecap="round" stroke-linejoin="round"/>
</g>
</g>
</g>
</g>
</g>
</g>
</g>
<defs>
<clipPath id="clip0_1840_6644">
<rect width="13.75" height="13.75" fill="white" transform="translate(0.283203 0.917969)"/>
</clipPath>
</defs>
</svg>
