<svg width="26" height="25" viewBox="0 0 26 25" fill="none" xmlns="http://www.w3.org/2000/svg">
<g id="percentage 1" clip-path="url(#clip0_3700_10457)">
<g id="Group">
<path id="Vector" d="M2.48665 13.3779H0.672852C0.838039 16.2227 1.97601 18.8103 3.7584 20.8128L5.03676 19.5345C3.52872 17.8083 2.64087 15.6649 2.48665 13.3779Z" fill="white"/>
<path id="Vector_2" d="M5.03676 5.78226L3.75835 4.50391C1.97601 6.50645 0.838039 9.09405 0.672852 11.9388H2.48665C2.64087 9.6519 3.52872 7.50839 5.03676 5.78226Z" fill="white"/>
<path id="Vector_3" d="M13.6494 23.1024V24.9162C16.4942 24.751 19.0818 23.613 21.0843 21.8307L19.806 20.5522C18.0798 22.0603 15.9364 22.9481 13.6494 23.1024Z" fill="white"/>
<path id="Vector_4" d="M12.2103 2.21468V0.400879C9.36553 0.566066 6.77794 1.70404 4.77539 3.48638L6.05375 4.76474C7.77988 3.25675 9.92338 2.3689 12.2103 2.21468Z" fill="white"/>
<path id="Vector_5" d="M4.77539 21.8307C6.77794 23.613 9.36553 24.751 12.2103 24.9162V23.1024C9.92338 22.9481 7.77993 22.0603 6.05379 20.5522L4.77539 21.8307Z" fill="white"/>
<path id="Vector_6" d="M20.8242 19.5345L22.1026 20.8129C23.885 18.8103 25.0229 16.2227 25.1881 13.3779H23.3743C23.2201 15.6648 22.3323 17.8083 20.8242 19.5345Z" fill="white"/>
<path id="Vector_7" d="M23.3743 11.9388H25.1881C25.0229 9.09405 23.885 6.50645 22.1026 4.50391L20.8242 5.78226C22.3323 7.50839 23.2201 9.65185 23.3743 11.9388Z" fill="white"/>
<path id="Vector_8" d="M21.0843 3.48638C19.0818 1.70404 16.4942 0.566066 13.6494 0.400879V2.21468C15.9363 2.3689 18.0798 3.25675 19.8059 4.76478L21.0843 3.48638Z" fill="white"/>
<path id="Vector_9" d="M21.9591 12.6588C21.9591 7.67992 17.9085 3.62939 12.9298 3.62939C7.95097 3.62939 3.90039 7.67992 3.90039 12.6588C3.90039 17.6376 7.95092 21.6881 12.9298 21.6881C17.9086 21.6881 21.9591 17.6375 21.9591 12.6588ZM7.33585 9.40912C7.33585 8.1165 8.38749 7.06485 9.68012 7.06485C10.9727 7.06485 12.0244 8.1165 12.0244 9.40912C12.0244 10.7017 10.9727 11.7534 9.68012 11.7534C8.38749 11.7534 7.33585 10.7018 7.33585 9.40912ZM10.1889 16.4171C9.90793 16.6981 9.45235 16.6981 9.17144 16.4171C8.89047 16.1362 8.89047 15.6806 9.17144 15.3997L15.6707 8.90044C15.9516 8.61943 16.4072 8.61943 16.6881 8.90044C16.9691 9.1814 16.9691 9.63693 16.6881 9.9179L10.1889 16.4171ZM16.1794 18.2527C14.8868 18.2527 13.8351 17.201 13.8351 15.9084C13.8351 14.6158 14.8868 13.5641 16.1794 13.5641C17.472 13.5641 18.5237 14.6158 18.5237 15.9084C18.5237 17.201 17.472 18.2527 16.1794 18.2527Z" fill="white"/>
<path id="Vector_10" d="M9.68071 10.3145C10.1807 10.3145 10.586 9.90922 10.586 9.40923C10.586 8.90923 10.1807 8.50391 9.68071 8.50391C9.18072 8.50391 8.77539 8.90923 8.77539 9.40923C8.77539 9.90922 9.18072 10.3145 9.68071 10.3145Z" fill="white"/>
<path id="Vector_11" d="M16.1797 16.8136C16.6797 16.8136 17.0851 16.4082 17.0851 15.9082C17.0851 15.4083 16.6797 15.0029 16.1797 15.0029C15.6797 15.0029 15.2744 15.4083 15.2744 15.9082C15.2744 16.4082 15.6797 16.8136 16.1797 16.8136Z" fill="white"/>
</g>
</g>
<defs>
<clipPath id="clip0_3700_10457">
<rect width="24.5147" height="24.5147" fill="white" transform="translate(0.672852 0.400879)"/>
</clipPath>
</defs>
</svg>
