<svg width="18" height="18" viewBox="0 0 18 18" fill="none" xmlns="http://www.w3.org/2000/svg">
<g id="placeholder 1" clip-path="url(#clip0_3154_1462)">
<g id="Group">
<path id="Vector" d="M9 18C8.83417 18 8.67762 17.9217 8.5777 17.7889L3.5113 10.9599C2.61728 9.76669 2.14453 8.34739 2.14453 6.85547C2.14453 3.07547 5.22 0 9 0C12.78 0 15.8555 3.07547 15.8555 6.85547C15.8555 8.34739 15.3827 9.76669 14.4887 10.9599L9.4223 17.7889C9.32238 17.9217 9.16583 18 9 18Z" fill="url(#paint0_linear_3154_1462)"/>
<path id="Vector_2" d="M9 9.49219C7.54569 9.49219 6.36328 8.30929 6.36328 6.85547C6.36328 5.40165 7.54569 4.21875 9 4.21875C10.4543 4.21875 11.6367 5.40165 11.6367 6.85547C11.6367 8.30929 10.4543 9.49219 9 9.49219Z" fill="url(#paint1_linear_3154_1462)"/>
</g>
</g>
<defs>
<linearGradient id="paint0_linear_3154_1462" x1="9" y1="18" x2="9" y2="0" gradientUnits="userSpaceOnUse">
<stop stop-color="#00B59C"/>
<stop offset="1" stop-color="#9CFFAC"/>
</linearGradient>
<linearGradient id="paint1_linear_3154_1462" x1="9" y1="9.49219" x2="9" y2="4.21875" gradientUnits="userSpaceOnUse">
<stop stop-color="#C3FFE8"/>
<stop offset="0.9973" stop-color="#F0FFF4"/>
</linearGradient>
<clipPath id="clip0_3154_1462">
<rect width="18" height="18" fill="white"/>
</clipPath>
</defs>
</svg>
