<svg width="24" height="24" viewBox="0 0 24 24" fill="none" xmlns="http://www.w3.org/2000/svg">
<mask id="mask0_2129_6696" style="mask-type:luminance" maskUnits="userSpaceOnUse" x="0" y="0" width="24" height="24">
<path d="M0 0H24V24H0V0Z" fill="white"/>
</mask>
<g mask="url(#mask0_2129_6696)">
<path d="M6.35156 13.3077C6.35156 12.4165 7.07409 11.6939 7.96542 11.6939C8.8567 11.6939 9.57923 12.4165 9.57923 13.3077" stroke="white" stroke-width="1.2" stroke-miterlimit="10"/>
<path d="M14.4219 13.3077C14.4219 12.4165 15.1444 11.6939 16.0357 11.6939C16.927 11.6939 17.6495 12.4165 17.6495 13.3077" stroke="white" stroke-width="1.2" stroke-miterlimit="10"/>
<path d="M9.21875 16.5364C9.78017 17.4878 10.8152 18.1265 11.9999 18.1265C13.1846 18.1265 14.2196 17.4878 14.781 16.5364" stroke="white" stroke-width="1.2" stroke-miterlimit="10"/>
<path d="M23.2969 13.0265C23.2969 14.3475 22.2389 15.4214 20.9236 15.4462C19.8605 19.3776 16.268 22.2703 12 22.2703C7.73203 22.2703 4.13953 19.3776 3.07641 15.4462C1.76109 15.4214 0.703125 14.3475 0.703125 13.0265C0.703125 12.3581 0.974062 11.7529 1.41187 11.3146C1.83984 10.8871 2.42672 10.619 3.07641 10.6068C4.13953 6.67542 7.73203 3.78276 12 3.78276C16.268 3.78276 19.8605 6.67542 20.9236 10.6068C21.5733 10.619 22.1602 10.8871 22.5881 11.3146C23.0259 11.7529 23.2969 12.3581 23.2969 13.0265Z" stroke="white" stroke-width="1.2" stroke-miterlimit="10"/>
<path d="M8.99309 6.78886C8.99309 8.45016 10.3398 9.79688 12.0011 9.79688C13.6624 9.79688 15.0092 8.45016 15.0092 6.78886C15.0092 5.12756 13.6624 3.78084 12.0011 3.78084H11.5297C10.0075 3.78084 8.77344 2.54681 8.77344 1.02455" stroke="white" stroke-width="1.2" stroke-miterlimit="10"/>
<path d="M12.0022 3.78271H8.30313C6.78086 3.78271 5.54688 2.54868 5.54688 1.02646" stroke="white" stroke-width="1.2" stroke-miterlimit="10"/>
</g>
</svg>
