<svg width="20" height="25" viewBox="0 0 20 25" fill="none" xmlns="http://www.w3.org/2000/svg">
<path d="M18.8092 2.02833C18.137 1.16296 17.123 0.666626 16.0272 0.666626H11.4188L7.11841 3.44365L7.10972 3.44931C6.25412 4.01975 5.74333 4.9742 5.74333 6.00247C5.74333 6.70949 5.98363 7.36129 6.38688 7.88077C5.73847 8.03917 5.11013 8.2791 4.52072 8.59567L4.29331 8.71781C1.89695 10.005 0.370842 12.4648 0.310577 15.1368C0.309255 15.1947 0.308594 15.2526 0.308594 15.3106C0.308594 17.5124 1.25554 19.6108 2.90666 21.0677L2.97193 21.1252C3.85195 21.9017 4.88929 22.4594 6.0021 22.7675V24.6666H7.41897V23.0194C7.62872 23.0368 7.83974 23.046 8.05165 23.046H9.55727V21.6291H8.05165C6.52512 21.6291 5.05403 21.0729 3.90929 20.0628L3.84402 20.0052C2.49766 18.8172 1.72546 17.1061 1.72546 15.3106C1.72546 15.2634 1.72598 15.2163 1.72707 15.169C1.73732 14.7154 1.80061 14.2694 1.91117 13.8379L13.8068 16.6495C14.0069 16.6969 14.2091 16.7202 14.4101 16.7202C14.8769 16.7202 15.3368 16.5941 15.7464 16.3486C16.1427 16.111 16.4622 15.7791 16.6819 15.3849L17.1792 16.3717C18.3686 18.7316 18.289 21.5066 16.9666 23.7945L18.1932 24.5036C19.7557 21.8005 19.8496 18.5222 18.4445 15.734L17.2968 13.4566L17.8507 11.2872L18.7824 7.76751L18.7514 7.75934L19.4404 5.06091C19.7115 3.99906 19.4815 2.89376 18.8092 2.02833ZM3.60745 10.9509L5.20681 11.2789L4.29756 12.9459L2.42866 12.5042C2.7338 11.931 3.13161 11.4059 3.60745 10.9509ZM15.5564 14.4172C15.3902 15.0451 14.7647 15.4201 14.1327 15.2706L5.72718 13.2839L6.65835 11.5767L13.9694 13.0764L15.7921 5.42108L14.4137 5.09288L12.9091 11.4125L5.21125 9.8335C6.14761 9.33476 7.20238 9.07099 8.26333 9.07099H9.55731V7.65411H8.81185C7.90113 7.65411 7.1602 6.91319 7.1602 6.00247C7.1602 5.45055 7.43361 4.93821 7.89178 4.63084L11.8365 2.0835H16.0272C16.6822 2.0835 17.2884 2.38019 17.6902 2.89749C18.0921 3.41484 18.2297 4.07557 18.0676 4.71028L16.4803 10.927L15.5564 14.4172Z" fill="white"/>
</svg>
