<svg width="27" height="27" viewBox="0 0 27 27" fill="none" xmlns="http://www.w3.org/2000/svg">
<g id="manage_accounts_FILL0_wght400_GRAD0_opsz48 1">
<path id="Vector" d="M11.25 13.3594C10.0125 13.3594 9 12.9656 8.2125 12.1781C7.425 11.3906 7.03125 10.3781 7.03125 9.14062C7.03125 7.90312 7.425 6.89062 8.2125 6.10312C9 5.31562 10.0125 4.92188 11.25 4.92188C12.4875 4.92188 13.5 5.31562 14.2875 6.10312C15.075 6.89062 15.4688 7.90312 15.4688 9.14062C15.4688 10.3781 15.075 11.3906 14.2875 12.1781C13.5 12.9656 12.4875 13.3594 11.25 13.3594ZM2.25 22.3875V19.7437C2.25 19.0875 2.41406 18.4969 2.74219 17.9719C3.07031 17.4469 3.54375 17.0437 4.1625 16.7625C5.5125 16.1625 6.76406 15.7312 7.91719 15.4688C9.07031 15.2063 10.1812 15.075 11.25 15.075H11.8969C11.7844 15.3375 11.7 15.5953 11.6438 15.8484C11.5875 16.1016 11.5406 16.4062 11.5031 16.7625H11.25C10.1625 16.7625 9.09844 16.8797 8.05781 17.1141C7.01719 17.3484 5.94375 17.7375 4.8375 18.2812C4.5375 18.4312 4.3125 18.6422 4.1625 18.9141C4.0125 19.1859 3.9375 19.4625 3.9375 19.7437V20.7H11.5031C11.5969 21.0375 11.7094 21.3422 11.8406 21.6141C11.9719 21.8859 12.1312 22.1437 12.3187 22.3875H2.25ZM18.7594 23.625L18.4781 21.7687C18.1594 21.675 17.8359 21.5391 17.5078 21.3609C17.1797 21.1828 16.9031 20.9812 16.6781 20.7562L15.1312 21.0938L14.4281 19.9125L15.75 18.675C15.7125 18.5062 15.6937 18.2719 15.6937 17.9719C15.6937 17.6719 15.7125 17.4375 15.75 17.2687L14.4281 16.0312L15.1312 14.85L16.6781 15.1875C16.9031 14.9625 17.1797 14.7609 17.5078 14.5828C17.8359 14.4047 18.1594 14.2688 18.4781 14.175L18.7594 12.3187H20.2781L20.5594 14.175C20.8781 14.2688 21.2016 14.4047 21.5297 14.5828C21.8578 14.7609 22.1344 14.9625 22.3594 15.1875L23.9062 14.85L24.6094 16.0312L23.2875 17.2687C23.325 17.4375 23.3438 17.6719 23.3438 17.9719C23.3438 18.2719 23.325 18.5062 23.2875 18.675L24.6094 19.9125L23.9062 21.0938L22.3594 20.7562C22.1344 20.9812 21.8578 21.1828 21.5297 21.3609C21.2016 21.5391 20.8781 21.675 20.5594 21.7687L20.2781 23.625H18.7594ZM19.5187 20.2219C20.1938 20.2219 20.7375 20.0156 21.15 19.6031C21.5625 19.1906 21.7687 18.6469 21.7687 17.9719C21.7687 17.2969 21.5625 16.7531 21.15 16.3406C20.7375 15.9281 20.1938 15.7219 19.5187 15.7219C18.8438 15.7219 18.3 15.9281 17.8875 16.3406C17.475 16.7531 17.2687 17.2969 17.2687 17.9719C17.2687 18.6469 17.475 19.1906 17.8875 19.6031C18.3 20.0156 18.8438 20.2219 19.5187 20.2219ZM11.25 11.6719C11.9812 11.6719 12.5859 11.4328 13.0641 10.9547C13.5422 10.4766 13.7812 9.87187 13.7812 9.14062C13.7812 8.40937 13.5422 7.80469 13.0641 7.32656C12.5859 6.84844 11.9812 6.60938 11.25 6.60938C10.5188 6.60938 9.91406 6.84844 9.43594 7.32656C8.95781 7.80469 8.71875 8.40937 8.71875 9.14062C8.71875 9.87187 8.95781 10.4766 9.43594 10.9547C9.91406 11.4328 10.5188 11.6719 11.25 11.6719Z" fill="#3E3E46"/>
</g>
</svg>
