<svg width="15" height="17" viewBox="0 0 15 17" fill="none" xmlns="http://www.w3.org/2000/svg">
<path d="M10.854 0.147C10.8076 0.100417 10.7524 0.0634553 10.6916 0.0382304C10.6309 0.0130056 10.5658 1.39347e-05 10.5 0H2.5C1.83696 0 1.20107 0.263392 0.732233 0.732233C0.263392 1.20107 0 1.83696 0 2.5V14.5C0 15.163 0.263392 15.7989 0.732233 16.2678C1.20107 16.7366 1.83696 17 2.5 17H12.5C13.163 17 13.7989 16.7366 14.2678 16.2678C14.7366 15.7989 15 15.163 15 14.5V4.5C15 4.43423 14.987 4.3691 14.9618 4.30835C14.9365 4.24761 14.8996 4.19244 14.853 4.146L10.854 0.147ZM11 1.707L13.293 4H12.5C12.1022 4 11.7206 3.84196 11.4393 3.56066C11.158 3.27936 11 2.89782 11 2.5V1.707ZM14 14.5C14 14.8978 13.842 15.2794 13.5607 15.5607C13.2794 15.842 12.8978 16 12.5 16H2.5C2.10218 16 1.72064 15.842 1.43934 15.5607C1.15804 15.2794 1 14.8978 1 14.5V2.5C1 2.10218 1.15804 1.72064 1.43934 1.43934C1.72064 1.15804 2.10218 1 2.5 1H10V2.5C10 3.16304 10.2634 3.79893 10.7322 4.26777C11.2011 4.73661 11.837 5 12.5 5H14V14.5ZM3 7C3.13261 7 3.25979 6.94732 3.35355 6.85355C3.44732 6.75979 3.5 6.63261 3.5 6.5C3.5 6.23478 3.60536 5.98043 3.79289 5.79289C3.98043 5.60536 4.23478 5.5 4.5 5.5C4.76522 5.5 5.01957 5.60536 5.20711 5.79289C5.39464 5.98043 5.5 6.23478 5.5 6.5C5.5 6.63261 5.55268 6.75979 5.64645 6.85355C5.74021 6.94732 5.86739 7 6 7C6.13261 7 6.25979 6.94732 6.35355 6.85355C6.44732 6.75979 6.5 6.63261 6.5 6.5C6.49897 6.20428 6.43201 5.91252 6.304 5.64595C6.17598 5.37937 5.99014 5.14469 5.76 4.959C5.99829 4.71177 6.15859 4.3999 6.22092 4.06223C6.28326 3.72456 6.24488 3.37601 6.11056 3.06C5.97624 2.74399 5.75192 2.47447 5.46554 2.28502C5.17916 2.09556 4.84337 1.99455 4.5 1.99455C4.15663 1.99455 3.82084 2.09556 3.53446 2.28502C3.24808 2.47447 3.02376 2.74399 2.88944 3.06C2.75512 3.37601 2.71674 3.72456 2.77908 4.06223C2.84141 4.3999 3.00171 4.71177 3.24 4.959C3.00986 5.14469 2.82402 5.37937 2.696 5.64595C2.56799 5.91252 2.50103 6.20428 2.5 6.5C2.5 6.63261 2.55268 6.75979 2.64645 6.85355C2.74021 6.94732 2.86739 7 3 7ZM4.5 3C4.64834 3 4.79334 3.04399 4.91668 3.1264C5.04001 3.20881 5.13614 3.32594 5.19291 3.46299C5.24967 3.60003 5.26453 3.75083 5.23559 3.89632C5.20665 4.0418 5.13522 4.17544 5.03033 4.28033C4.92544 4.38522 4.7918 4.45665 4.64632 4.48559C4.50083 4.51453 4.35003 4.49967 4.21299 4.44291C4.07594 4.38614 3.95881 4.29001 3.8764 4.16668C3.79399 4.04334 3.75 3.89834 3.75 3.75C3.75 3.55109 3.82902 3.36032 3.96967 3.21967C4.11032 3.07902 4.30109 3 4.5 3ZM12.5 6.5C12.5 6.63261 12.4473 6.75979 12.3536 6.85355C12.2598 6.94732 12.1326 7 12 7H8.5C8.36739 7 8.24021 6.94732 8.14645 6.85355C8.05268 6.75979 8 6.63261 8 6.5C8 6.36739 8.05268 6.24021 8.14645 6.14645C8.24021 6.05268 8.36739 6 8.5 6H12C12.1326 6 12.2598 6.05268 12.3536 6.14645C12.4473 6.24021 12.5 6.36739 12.5 6.5ZM12.5 9C12.5 9.13261 12.4473 9.25979 12.3536 9.35355C12.2598 9.44732 12.1326 9.5 12 9.5H3C2.86739 9.5 2.74021 9.44732 2.64645 9.35355C2.55268 9.25979 2.5 9.13261 2.5 9C2.5 8.86739 2.55268 8.74021 2.64645 8.64645C2.74021 8.55268 2.86739 8.5 3 8.5H12C12.1326 8.5 12.2598 8.55268 12.3536 8.64645C12.4473 8.74021 12.5 8.86739 12.5 9ZM12.5 11.5C12.5 11.6326 12.4473 11.7598 12.3536 11.8536C12.2598 11.9473 12.1326 12 12 12H3C2.86739 12 2.74021 11.9473 2.64645 11.8536C2.55268 11.7598 2.5 11.6326 2.5 11.5C2.5 11.3674 2.55268 11.2402 2.64645 11.1464C2.74021 11.0527 2.86739 11 3 11H12C12.1326 11 12.2598 11.0527 12.3536 11.1464C12.4473 11.2402 12.5 11.3674 12.5 11.5ZM12.5 14C12.5 14.1326 12.4473 14.2598 12.3536 14.3536C12.2598 14.4473 12.1326 14.5 12 14.5H3C2.86739 14.5 2.74021 14.4473 2.64645 14.3536C2.55268 14.2598 2.5 14.1326 2.5 14C2.5 13.8674 2.55268 13.7402 2.64645 13.6464C2.74021 13.5527 2.86739 13.5 3 13.5H12C12.1326 13.5 12.2598 13.5527 12.3536 13.6464C12.4473 13.7402 12.5 13.8674 12.5 14Z" fill="white"/>
</svg>
