<svg width="18" height="24" viewBox="0 0 18 24" fill="none" xmlns="http://www.w3.org/2000/svg">
<path d="M8.00006 9.00002H9.50006C9.56574 9.00006 9.63078 8.98715 9.69146 8.96204C9.75215 8.93693 9.80728 8.9001 9.85372 8.85366C9.90016 8.80722 9.93699 8.75208 9.96211 8.6914C9.98722 8.63071 10.0001 8.56567 10.0001 8.5V6.49998C10.0001 6.43431 9.98722 6.36927 9.96211 6.30859C9.93699 6.2479 9.90016 6.19276 9.85372 6.14632C9.80728 6.09988 9.75215 6.06306 9.69146 6.03794C9.63078 6.01283 9.56574 5.99993 9.50006 5.99997H8.00006V4.50002C8.00011 4.43434 7.9872 4.3693 7.96209 4.30862C7.93698 4.24793 7.90015 4.19279 7.85371 4.14636C7.80727 4.09992 7.75213 4.06309 7.69145 4.03797C7.63076 4.01286 7.56572 3.99996 7.50005 4H5.50003C5.43436 3.99996 5.36932 4.01286 5.30863 4.03797C5.24795 4.06309 5.19281 4.09992 5.14637 4.14636C5.09993 4.19279 5.0631 4.24793 5.03799 4.30862C5.01288 4.3693 4.99997 4.43434 5.00002 4.50002V6.00002H3.50002C3.43434 5.99997 3.3693 6.01288 3.30862 6.03799C3.24793 6.0631 3.19279 6.09993 3.14636 6.14637C3.09992 6.19281 3.06309 6.24795 3.03797 6.30863C3.01286 6.36932 2.99996 6.43436 3 6.50003V8.50005C2.99996 8.56572 3.01286 8.63076 3.03797 8.69145C3.06309 8.75213 3.09992 8.80727 3.14636 8.85371C3.19279 8.90015 3.24793 8.93698 3.30862 8.96209C3.3693 8.9872 3.43434 9.00011 3.50002 9.00006H5.00002V10.5001C4.99997 10.5657 5.01288 10.6308 5.03799 10.6915C5.0631 10.7521 5.09993 10.8073 5.14637 10.8537C5.19281 10.9002 5.24795 10.937 5.30863 10.9621C5.36932 10.9872 5.43436 11.0001 5.50003 11.0001H7.50005C7.56572 11.0001 7.63076 10.9872 7.69145 10.9621C7.75213 10.937 7.80727 10.9002 7.85371 10.8537C7.90015 10.8073 7.93698 10.7521 7.96209 10.6915C7.9872 10.6308 8.00011 10.5657 8.00006 10.5001V9.00002ZM7.50005 8.00003C7.43437 7.99999 7.36933 8.01289 7.30865 8.038C7.24796 8.06312 7.19283 8.09995 7.14639 8.14639C7.09995 8.19283 7.06312 8.24796 7.038 8.30865C7.01289 8.36933 6.99999 8.43437 7.00003 8.50005V10H6.00005V8.50005C6.00009 8.43437 5.98719 8.36933 5.96207 8.30865C5.93696 8.24796 5.90013 8.19283 5.85369 8.14639C5.80725 8.09995 5.75211 8.06312 5.69143 8.038C5.63075 8.01289 5.56571 7.99999 5.50003 8.00003H4.00003V7.00005H5.50003C5.56571 7.00009 5.63075 6.98719 5.69143 6.96207C5.75211 6.93696 5.80725 6.90013 5.85369 6.85369C5.90013 6.80725 5.93696 6.75211 5.96207 6.69143C5.98719 6.63075 6.00009 6.56571 6.00005 6.50003V5.00003H7.00003V6.50003C6.99999 6.56571 7.01289 6.63075 7.038 6.69143C7.06312 6.75211 7.09995 6.80725 7.14639 6.85369C7.19283 6.90013 7.24796 6.93696 7.30865 6.96207C7.36933 6.98719 7.43437 7.00009 7.50005 7.00005H9.00005V8.00003H7.50005Z" fill="#05C882"/>
<path d="M17.8535 5.1465L12.8535 0.146484C12.7598 0.0527344 12.6328 0 12.5 0H1.99997C0.897469 0 0 0.896953 0 2.00002V22C0 23.103 0.897469 24 2.00002 24H16C17.1025 24 18 23.103 18 22V5.49998C18 5.36719 17.9473 5.24025 17.8535 5.1465ZM13 1.70705L16.293 5.00002H14C13.4482 5.00002 13 4.55128 13 4.00003V1.70705ZM17 22C17 22.5512 16.5518 23 16 23H2.00002C1.44825 23 1.00003 22.5512 1.00003 22V2.00002C1.00003 1.44877 1.4483 1.00003 2.00002 1.00003H12V4.00003C12 5.10305 12.8975 6 14 6H17V22Z" fill="#05C882"/>
<path d="M4.5 13C3.67284 13 3 13.6728 3 14.5C3 15.3272 3.67284 16 4.5 16C5.32716 16 6 15.3272 6 14.5C6 13.6729 5.32716 13 4.5 13ZM4.5 15C4.22461 15 3.99998 14.7759 3.99998 14.5C3.99998 14.2241 4.22461 14 4.5 14C4.77539 14 5.00002 14.2241 5.00002 14.5C5.00002 14.7759 4.77539 15 4.5 15ZM4.5 18C3.67284 18 3 18.6729 3 19.5C3 20.3272 3.67284 21 4.5 21C5.32716 21 6 20.3272 6 19.5C6 18.6729 5.32716 18 4.5 18ZM4.5 20C4.22461 20 3.99998 19.7759 3.99998 19.5C3.99998 19.2242 4.22461 19 4.5 19C4.77539 19 5.00002 19.2241 5.00002 19.5C5.00002 19.7759 4.77539 20 4.5 20ZM8.00002 14.5C7.99997 14.5657 8.01288 14.6307 8.03799 14.6914C8.0631 14.7521 8.09993 14.8072 8.14637 14.8537C8.19281 14.9001 8.24795 14.9369 8.30863 14.962C8.36932 14.9872 8.43436 15.0001 8.50003 15H14.5C14.5657 15.0001 14.6307 14.9872 14.6914 14.962C14.7521 14.9369 14.8073 14.9001 14.8537 14.8537C14.9001 14.8072 14.937 14.7521 14.9621 14.6914C14.9872 14.6307 15.0001 14.5657 15 14.5C15.0001 14.4343 14.9872 14.3693 14.9621 14.3086C14.937 14.2479 14.9001 14.1928 14.8537 14.1463C14.8073 14.0999 14.7521 14.0631 14.6914 14.038C14.6307 14.0128 14.5657 13.9999 14.5 14H8.50003C8.43436 14 8.36933 14.0129 8.30865 14.038C8.24797 14.0631 8.19283 14.0999 8.1464 14.1464C8.09996 14.1928 8.06313 14.2479 8.03801 14.3086C8.0129 14.3693 7.99999 14.4343 8.00002 14.5ZM14.5 19H8.49998C8.43431 19 8.36927 19.0129 8.30859 19.038C8.2479 19.0631 8.19276 19.0999 8.14632 19.1464C8.09988 19.1928 8.06306 19.2479 8.03794 19.3086C8.01283 19.3693 7.99993 19.4343 7.99997 19.5C7.99993 19.5657 8.01283 19.6307 8.03794 19.6914C8.06306 19.7521 8.09988 19.8072 8.14632 19.8537C8.19276 19.9001 8.2479 19.9369 8.30859 19.9621C8.36927 19.9872 8.43431 20.0001 8.49998 20H14.5C14.5657 20.0001 14.6307 19.9872 14.6914 19.9621C14.7521 19.9369 14.8072 19.9001 14.8536 19.8537C14.9001 19.8072 14.9369 19.7521 14.962 19.6914C14.9871 19.6307 15 19.5657 15 19.5C15 19.4343 14.9871 19.3693 14.962 19.3086C14.9369 19.2479 14.9001 19.1928 14.8536 19.1464C14.8072 19.0999 14.7521 19.0631 14.6914 19.038C14.6307 19.0129 14.5657 19 14.5 19Z" fill="#05C882"/>
</svg>
