<svg width="14" height="14" viewBox="0 0 14 14" fill="none" xmlns="http://www.w3.org/2000/svg">
<g id="right-arrow 3" clip-path="url(#clip0_1840_6613)">
<g id="Group">
<g id="Group_2">
<path id="Vector" d="M6.38504 10.7787L0.217506 4.61103C0.0747429 4.46838 -0.00390625 4.27795 -0.00390625 4.07491C-0.00390625 3.87186 0.0747429 3.68144 0.217506 3.53879L0.671598 3.08458C0.96749 2.78903 1.4484 2.78903 1.74384 3.08458L6.92297 8.26371L12.1078 3.07883C12.2506 2.93618 12.4409 2.85742 12.6439 2.85742C12.847 2.85742 13.0373 2.93618 13.1802 3.07883L13.6342 3.53304C13.7769 3.6758 13.8556 3.86611 13.8556 4.06916C13.8556 4.27221 13.7769 4.46263 13.6342 4.60528L7.461 10.7787C7.31779 10.9217 7.12658 11.0002 6.92331 10.9998C6.71925 11.0002 6.52814 10.9217 6.38504 10.7787Z" fill="black"/>
</g>
</g>
</g>
<defs>
<clipPath id="clip0_1840_6613">
<rect width="13.8595" height="13.8595" fill="white" transform="matrix(0 1 1 0 0 0)"/>
</clipPath>
</defs>
</svg>
