<svg width="19" height="19" viewBox="0 0 19 19" fill="none" xmlns="http://www.w3.org/2000/svg">
<g clip-path="url(#clip0_3935_10789)">
<path d="M9.5 0C4.25348 0 0 4.25348 0 9.5C0 14.7465 4.25348 19 9.5 19C14.7465 19 19 14.7465 19 9.5C19 4.25348 14.7465 0 9.5 0ZM15.2991 15.2991C14.5383 16.0641 13.634 16.6715 12.6381 17.0864C11.6422 17.5014 10.5742 17.7157 9.4953 17.7172C8.4164 17.7187 7.3478 17.5073 6.35074 17.0951C5.35368 16.6829 4.44774 16.0781 3.68484 15.3152C2.92194 14.5523 2.31707 13.6463 1.90488 12.6493C1.49269 11.6522 1.28129 10.5836 1.28278 9.5047C1.28428 8.4258 1.49864 7.35779 1.91359 6.36188C2.32853 5.36596 2.93591 4.4617 3.70092 3.70092C4.4617 2.93591 5.36596 2.32853 6.36188 1.91359C7.35779 1.49864 8.4258 1.28428 9.5047 1.28278C10.5836 1.28129 11.6522 1.49269 12.6493 1.90488C13.6463 2.31707 14.5523 2.92194 15.3152 3.68484C16.0781 4.44774 16.6829 5.35368 17.0951 6.35074C17.5073 7.3478 17.7187 8.4164 17.7172 9.4953C17.7157 10.5742 17.5014 11.6422 17.0864 12.6381C16.6715 13.634 16.0641 14.5383 15.2991 15.2991Z" fill="white"/>
<path d="M12.075 12.3176L11.0753 13.3081C10.969 13.4138 10.8253 13.4731 10.6754 13.4731C10.5256 13.4731 10.3818 13.4138 10.2756 13.3081C10.2228 13.2553 10.181 13.1926 10.1525 13.1236C10.1241 13.0546 10.1095 12.9806 10.1097 12.906C10.1098 12.8314 10.1248 12.7575 10.1535 12.6886C10.1823 12.6197 10.2244 12.5572 10.2774 12.5047L11.2727 11.5183L10.2793 10.5305C10.2263 10.4779 10.1842 10.4155 10.1554 10.3466C10.1266 10.2778 10.1117 10.2039 10.1116 10.1293C10.1114 10.0547 10.126 9.98079 10.1544 9.91182C10.1829 9.84285 10.2247 9.78018 10.2774 9.72741C10.3834 9.6214 10.527 9.56169 10.6769 9.56134C10.8268 9.561 10.9707 9.62004 11.0771 9.72555L12.0769 10.716L13.0625 9.72852C13.1688 9.62231 13.3129 9.56265 13.4631 9.56265C13.6133 9.56265 13.7574 9.62231 13.8637 9.72852C13.9164 9.78109 13.9582 9.84353 13.9867 9.91227C14.0152 9.98101 14.0299 10.0547 14.0299 10.1291C14.0299 10.2035 14.0152 10.2772 13.9867 10.346C13.9582 10.4147 13.9164 10.4771 13.8637 10.5297L12.877 11.5168L13.8637 12.5058C13.9164 12.5584 13.9582 12.6208 13.9867 12.6895C14.0152 12.7583 14.0299 12.832 14.0299 12.9064C14.0299 12.9808 14.0152 13.0545 13.9867 13.1232C13.9582 13.192 13.9164 13.2544 13.8637 13.307C13.8111 13.3597 13.7487 13.4015 13.6799 13.43C13.6112 13.4585 13.5375 13.4732 13.4631 13.4732C13.3887 13.4732 13.315 13.4585 13.2462 13.43C13.1775 13.4015 13.1151 13.3597 13.0625 13.307L12.075 12.3176ZM4.37891 11.5205V11.5131C4.3791 11.363 4.43889 11.219 4.54514 11.1129C4.65139 11.0068 4.79541 10.9472 4.94557 10.9472H8.70363C8.77805 10.9472 8.85173 10.9619 8.92048 10.9903C8.98923 11.0188 9.0517 11.0605 9.10432 11.1132C9.15694 11.1658 9.19868 11.2283 9.22716 11.297C9.25564 11.3658 9.27029 11.4394 9.27029 11.5139V11.5213C9.27029 11.5957 9.25564 11.6694 9.22716 11.7381C9.19868 11.8069 9.15694 11.8693 9.10432 11.922C9.0517 11.9746 8.98923 12.0163 8.92048 12.0448C8.85173 12.0733 8.77805 12.0879 8.70363 12.0879H4.94557C4.87109 12.0879 4.79734 12.0733 4.72854 12.0447C4.65974 12.0162 4.59724 11.9744 4.54461 11.9217C4.49199 11.869 4.45026 11.8065 4.42183 11.7376C4.39339 11.6688 4.37881 11.595 4.37891 11.5205ZM10.2745 6.74048C10.3808 6.63424 10.525 6.57457 10.6753 6.57457C10.8256 6.57457 10.9697 6.63424 11.076 6.74048L11.8379 7.50233L13.647 5.69325C13.7 5.64025 13.763 5.59829 13.8324 5.56981C13.9017 5.54134 13.976 5.52691 14.051 5.52735C14.126 5.5278 14.2001 5.54312 14.2691 5.57243C14.3381 5.60173 14.4006 5.64444 14.453 5.69807L14.4597 5.70512C14.5638 5.81159 14.6218 5.95479 14.6211 6.1037C14.6204 6.25261 14.5611 6.39526 14.456 6.50075L12.1032 8.86425C12.0701 8.89748 12.0307 8.92385 11.9873 8.94184C11.9439 8.95983 11.8975 8.96909 11.8505 8.96909C11.8036 8.96909 11.7571 8.95983 11.7137 8.94184C11.6703 8.92385 11.631 8.89748 11.5978 8.86425L10.2745 7.54093C10.1685 7.43469 10.109 7.29076 10.109 7.1407C10.109 6.99064 10.1685 6.84671 10.2745 6.74048ZM4.37891 7.52014V7.51235C4.37891 7.36206 4.43861 7.21793 4.54488 7.11166C4.65115 7.00539 4.79528 6.94569 4.94557 6.94569H8.70363C8.77805 6.94569 8.85173 6.96035 8.92048 6.98883C8.98923 7.0173 9.0517 7.05904 9.10432 7.11166C9.15694 7.16428 9.19868 7.22675 9.22716 7.2955C9.25564 7.36425 9.27029 7.43794 9.27029 7.51235V7.52014C9.27019 7.67037 9.21045 7.8144 9.10419 7.92059C8.99793 8.02678 8.85386 8.08643 8.70363 8.08643H4.94557C4.79534 8.08643 4.65127 8.02678 4.54501 7.92059C4.43875 7.8144 4.37901 7.67037 4.37891 7.52014Z" fill="white"/>
</g>
<defs>
<clipPath id="clip0_3935_10789">
<rect width="19" height="19" fill="white"/>
</clipPath>
</defs>
</svg>
