<svg width="24" height="24" viewBox="0 0 24 24" fill="none" xmlns="http://www.w3.org/2000/svg">
<g clip-path="url(#clip0_1_5117)">
<path d="M13.9999 23.7343C12.8998 23.7343 11.9998 22.8344 11.9998 21.7344V17.5594L9.21863 14.7843C8.7561 14.322 8.49976 13.7031 8.49976 13.0468C8.49976 12.3968 8.76233 11.7656 9.21863 11.3031L12.7874 7.73438H10.9686L9.48102 9.22192C9.14978 9.55316 8.71234 9.73444 8.24359 9.73444C7.28101 9.73444 6.49365 8.9469 6.49365 7.98431C6.49365 7.51556 6.67474 7.07812 7.00598 6.74689L9.00604 4.74683C9.33728 4.41559 9.7749 4.23431 10.2437 4.23431H15.8749C16.3998 4.23431 16.9186 4.4469 17.2874 4.8219L18.906 6.44055C19.281 6.81555 19.4936 7.32806 19.4936 7.85321V11.2344H21.7436C22.706 11.2344 23.4935 12.0218 23.4935 12.9844C23.4935 13.947 22.706 14.7343 21.7436 14.7343H17.9936C16.8935 14.7343 15.9935 13.8344 15.9935 12.7344V11.4406L13.7686 13.6719L15.4124 15.3157C15.7874 15.6907 15.9998 16.197 15.9998 16.7281V21.7282C15.9998 22.8344 15.0998 23.7343 13.9999 23.7343ZM10.5623 6.73444H15.206L9.92487 12.0156C9.64984 12.2906 9.49988 12.6656 9.49988 13.053C9.49988 13.4344 9.65607 13.8094 9.92487 14.0843L12.9935 17.1531V21.7344C12.9935 22.2843 13.4436 22.7344 13.9937 22.7344C14.5435 22.7344 14.9936 22.2843 14.9936 21.7344V16.7344C14.9936 16.4656 14.8874 16.2156 14.6999 16.0281L12.3561 13.6719L16.9999 9.0282V12.7344C16.9999 13.2843 17.4498 13.7344 17.9998 13.7344H21.7498C22.1624 13.7344 22.4998 13.3969 22.4998 12.9844C22.4998 12.5718 22.1624 12.2344 21.7498 12.2344H18.4999V7.85321C18.4999 7.59064 18.3935 7.33429 18.206 7.14679L16.5873 5.52814C16.3998 5.34064 16.1435 5.23444 15.8811 5.23444H10.2499C10.0497 5.23444 9.86224 5.31555 9.71851 5.45306L7.71863 7.45312C7.57489 7.59686 7.49982 7.78436 7.49982 7.98431C7.49982 8.39685 7.83728 8.73431 8.24982 8.73431C8.44977 8.73431 8.63727 8.6532 8.78101 8.51569L10.5623 6.73444Z" fill="#05C882"/>
<path d="M6.50006 19.7344C5.96869 19.7344 5.46259 19.5282 5.08759 19.1468L2.08759 16.1468C1.71259 15.7718 1.5 15.2657 1.5 14.7343C1.5 13.6344 2.39996 12.7344 3.50006 12.7344C4.03125 12.7344 4.53754 12.9406 4.91254 13.3218L6.50006 14.9094L7.43756 13.9719L8.1438 14.6781L6.50006 16.3218L4.2063 14.0281C4.0188 13.8406 3.76868 13.7344 3.50006 13.7344C2.95001 13.7344 2.49994 14.1844 2.49994 14.7343C2.49994 15.0031 2.60632 15.2531 2.79382 15.4406L5.79382 18.4406C6.17505 18.822 6.8313 18.822 7.2063 18.4406L9.4563 16.1906L10.1625 16.8968L7.91254 19.1468C7.53754 19.5282 7.03125 19.7344 6.50006 19.7344Z" fill="#05C882"/>
<path d="M21 6.23438C19.3438 6.23438 18 4.89056 18 3.23438C18 1.57819 19.3438 0.234375 21 0.234375C22.6562 0.234375 24 1.57819 24 3.23438C24 4.89056 22.6562 6.23438 21 6.23438ZM21 1.23431C19.9001 1.23431 18.9999 2.13446 18.9999 3.23438C18.9999 4.33429 19.9001 5.23444 21 5.23444C22.0999 5.23444 23.0001 4.33429 23.0001 3.23438C23.0001 2.13446 22.0999 1.23431 21 1.23431Z" fill="#05C882"/>
<path d="M0 7.73438H4.5V8.73431H0V7.73438Z" fill="#05C882"/>
<path d="M1.5 4.23431H6.50006V5.23444H1.5V4.23431Z" fill="#05C882"/>
</g>
<defs>
<clipPath id="clip0_1_5117">
<rect width="24" height="24" fill="white"/>
</clipPath>
</defs>
</svg>
