<svg width="14" height="14" viewBox="0 0 14 14" fill="none" xmlns="http://www.w3.org/2000/svg">
<g clip-path="url(#clip0_1840_6629)">
<path d="M2.52602 12.3966C2.36084 12.3966 2.2266 12.2624 2.2266 12.0974V2.88096C2.2266 2.716 2.36084 2.5818 2.52602 2.5818H8.93016C9.09533 2.5818 9.22961 2.71597 9.22961 2.88096V6.86584C9.51424 6.77104 9.81272 6.7081 10.1222 6.68146V2.88096C10.1222 2.2237 9.58747 1.68919 8.93016 1.68919H3.88886V1.21716C3.88886 1.05217 4.02308 0.918003 4.18826 0.918003H10.5924C10.7576 0.918003 10.8918 1.05217 10.8918 1.21716V6.68954C11.2021 6.724 11.5003 6.79765 11.7844 6.90073V1.21716C11.7844 0.559929 11.2497 0.0253906 10.5924 0.0253906H4.18826C3.53098 0.0253906 2.99625 0.559929 2.99625 1.21716V1.68919H2.52602C1.86874 1.68919 1.33398 2.22373 1.33398 2.88096V12.0974C1.33398 12.7547 1.86874 13.2892 2.52602 13.2892H7.66277C7.40567 13.0249 7.18553 12.725 7.01071 12.3966H2.52602Z" fill="#5D35E9"/>
<path d="M4.04383 5.16798H6.61967C6.86639 5.16798 7.06594 4.96813 7.06594 4.7217C7.06594 4.47521 6.86639 4.27539 6.61967 4.27539H4.04383C3.79724 4.27539 3.59766 4.47524 3.59766 4.7217C3.59766 4.96813 3.79721 5.16798 4.04383 5.16798Z" fill="#5D35E9"/>
<path d="M7.85871 6.70412C7.85871 6.45766 7.65916 6.25781 7.41241 6.25781H4.04383C3.79724 6.25781 3.59766 6.45766 3.59766 6.70412C3.59766 6.9506 3.79721 7.15042 4.04383 7.15042H7.41241C7.65916 7.15042 7.85871 6.9506 7.85871 6.70412Z" fill="#5D35E9"/>
<path d="M7.33447 8.23633H4.04383C3.79724 8.23633 3.59766 8.43615 3.59766 8.68261C3.59766 8.92906 3.79721 9.12891 4.04383 9.12891H6.8328C6.96044 8.80786 7.13047 8.50892 7.33447 8.23633Z" fill="#5D35E9"/>
<path d="M4.04383 10.2188C3.79724 10.2188 3.59766 10.4186 3.59766 10.6651C3.59766 10.9115 3.79721 11.1114 4.04383 11.1114H6.59615C6.57171 10.934 6.55433 10.7539 6.55433 10.5698C6.55433 10.4512 6.56171 10.3346 6.57222 10.2188H4.04383V10.2188Z" fill="#5D35E9"/>
<path d="M10.46 9.64648C9.69387 9.64648 9.0156 10.2813 8.74805 10.5685C9.0156 10.8555 9.69387 11.4901 10.46 11.4901C11.2293 11.4901 11.9056 10.8557 12.172 10.5688C11.9048 10.2818 11.2267 9.64648 10.46 9.64648ZM10.46 11.2379C10.0904 11.2379 9.79064 10.9381 9.79064 10.5685C9.79064 10.1985 10.0904 9.89908 10.46 9.89908C10.8296 9.89908 11.1294 10.1985 11.1294 10.5685C11.1294 10.9381 10.8296 11.2379 10.46 11.2379Z" fill="#5D35E9"/>
<path d="M10.4593 7.7793C8.91864 7.7793 7.66992 9.02799 7.66992 10.5686C7.66992 12.1089 8.91864 13.358 10.4593 13.358C11.9999 13.358 13.2486 12.1089 13.2486 10.5686C13.2486 9.02796 11.9999 7.7793 10.4593 7.7793ZM10.4593 11.9365C9.25554 11.9365 8.31495 10.7567 8.27534 10.7066C8.21217 10.6255 8.21217 10.5118 8.27534 10.4309C8.31497 10.3806 9.25557 9.20033 10.4593 9.20033C11.663 9.20033 12.6036 10.3806 12.6432 10.4309C12.7064 10.5118 12.7064 10.6255 12.6432 10.7066C12.6036 10.7567 11.663 11.9365 10.4593 11.9365Z" fill="#5D35E9"/>
</g>
<defs>
<clipPath id="clip0_1840_6629">
<rect width="13.3333" height="13.3333" fill="white" transform="translate(0.625 0.0234375)"/>
</clipPath>
</defs>
</svg>
