<svg width="25" height="24" viewBox="0 0 25 24" fill="none" xmlns="http://www.w3.org/2000/svg">
<path d="M12.9238 7.34113e-07C11.3478 -0.00055061 9.78713 0.309462 8.33098 0.912323C6.87482 1.51518 5.55173 2.39908 4.43732 3.51349C3.3229 4.6279 2.43901 5.95099 1.83615 7.40715C1.23329 8.8633 0.923278 10.424 0.923829 12C0.923278 13.576 1.23329 15.1367 1.83615 16.5929C2.43901 18.049 3.3229 19.3721 4.43732 20.4865C5.55173 21.6009 6.87482 22.4848 8.33098 23.0877C9.78713 23.6905 11.3478 24.0006 12.9238 24C14.4998 24.0006 16.0605 23.6905 17.5167 23.0877C18.9728 22.4848 20.2959 21.6009 21.4103 20.4865C22.5248 19.3721 23.4086 18.049 24.0115 16.5929C24.6144 15.1367 24.9244 13.576 24.9238 12C24.9244 10.424 24.6144 8.8633 24.0115 7.40715C23.4086 5.95099 22.5248 4.6279 21.4103 3.51349C20.2959 2.39908 18.9728 1.51518 17.5167 0.912323C16.0605 0.309462 14.4998 -0.00055061 12.9238 7.34113e-07ZM19.7168 5.56364L14.321 21.7552L10.8469 14.4294L19.7168 5.56364ZM10.4945 14.0979L3.16858 10.6028L19.3602 5.20699L10.4945 14.0979Z" fill="url(#paint0_linear_2127_6099)"/>
<defs>
<linearGradient id="paint0_linear_2127_6099" x1="0.923829" y1="12" x2="24.9238" y2="12" gradientUnits="userSpaceOnUse">
<stop stop-color="#5BB4F6"/>
<stop offset="0.61" stop-color="#2191E5"/>
<stop offset="1" stop-color="#007EDB"/>
</linearGradient>
</defs>
</svg>
