<svg width="19" height="19" viewBox="0 0 19 19" fill="none" xmlns="http://www.w3.org/2000/svg">
<g id="Layer 2">
<g id="rules">
<path id="Vector" d="M9.5 0C4.25348 0 0 4.25348 0 9.5C0 14.7465 4.25348 19 9.5 19C14.7465 19 19 14.7465 19 9.5C19 4.25348 14.7465 0 9.5 0ZM15.2991 15.2991C14.5383 16.0641 13.634 16.6715 12.6381 17.0864C11.6422 17.5014 10.5742 17.7157 9.4953 17.7172C8.4164 17.7187 7.3478 17.5073 6.35074 17.0951C5.35368 16.6829 4.44774 16.0781 3.68484 15.3152C2.92194 14.5523 2.31707 13.6463 1.90488 12.6493C1.49269 11.6522 1.28129 10.5836 1.28278 9.5047C1.28428 8.4258 1.49864 7.35779 1.91359 6.36188C2.32853 5.36596 2.93591 4.4617 3.70092 3.70092C4.4617 2.93591 5.36596 2.32853 6.36188 1.91359C7.35779 1.49864 8.4258 1.28428 9.5047 1.28278C10.5836 1.28129 11.6522 1.49269 12.6493 1.90488C13.6463 2.31707 14.5523 2.92194 15.3152 3.68484C16.0781 4.44774 16.6829 5.35368 17.0951 6.35074C17.5073 7.3478 17.7187 8.4164 17.7172 9.4953C17.7157 10.5742 17.5014 11.6422 17.0864 12.6381C16.6715 13.634 16.0641 14.5383 15.2991 15.2991Z" fill="white"/>
<path id="Vector_2" d="M12.075 12.3177L11.0753 13.3082C10.969 13.4138 10.8253 13.4731 10.6754 13.4731C10.5256 13.4731 10.3818 13.4138 10.2756 13.3082C10.2228 13.2554 10.181 13.1927 10.1525 13.1236C10.1241 13.0546 10.1095 12.9807 10.1097 12.9061C10.1098 12.8314 10.1248 12.7575 10.1535 12.6887C10.1823 12.6198 10.2244 12.5573 10.2774 12.5047L11.2727 11.5184L10.2793 10.5305C10.2263 10.478 10.1842 10.4155 10.1554 10.3467C10.1266 10.2778 10.1117 10.204 10.1116 10.1294C10.1114 10.0548 10.126 9.98085 10.1544 9.91188C10.1829 9.84291 10.2247 9.78024 10.2774 9.72747C10.3834 9.62147 10.527 9.56175 10.6769 9.56141C10.8268 9.56106 10.9707 9.6201 11.0771 9.72562L12.0769 10.7161L13.0625 9.72858C13.1688 9.62237 13.3129 9.56271 13.4631 9.56271C13.6133 9.56271 13.7574 9.62237 13.8637 9.72858C13.9164 9.78115 13.9582 9.84359 13.9867 9.91233C14.0152 9.98107 14.0299 10.0548 14.0299 10.1292C14.0299 10.2036 14.0152 10.2773 13.9867 10.346C13.9582 10.4148 13.9164 10.4772 13.8637 10.5298L12.877 11.5169L13.8637 12.5059C13.9164 12.5584 13.9582 12.6209 13.9867 12.6896C14.0152 12.7583 14.0299 12.832 14.0299 12.9064C14.0299 12.9809 14.0152 13.0546 13.9867 13.1233C13.9582 13.192 13.9164 13.2545 13.8637 13.307C13.8111 13.3597 13.7487 13.4015 13.6799 13.43C13.6112 13.4585 13.5375 13.4732 13.4631 13.4732C13.3887 13.4732 13.315 13.4585 13.2462 13.43C13.1775 13.4015 13.1151 13.3597 13.0625 13.307L12.075 12.3177ZM4.37891 11.5206V11.5132C4.3791 11.363 4.43889 11.2191 4.54514 11.113C4.65139 11.0069 4.79541 10.9473 4.94557 10.9473H8.70363C8.77805 10.9473 8.85173 10.9619 8.92048 10.9904C8.98923 11.0189 9.0517 11.0606 9.10432 11.1132C9.15694 11.1658 9.19868 11.2283 9.22716 11.2971C9.25564 11.3658 9.27029 11.4395 9.27029 11.5139V11.5213C9.27029 11.5958 9.25564 11.6694 9.22716 11.7382C9.19868 11.8069 9.15694 11.8694 9.10432 11.922C9.0517 11.9746 8.98923 12.0164 8.92048 12.0449C8.85173 12.0733 8.77805 12.088 8.70363 12.088H4.94557C4.87109 12.088 4.79734 12.0733 4.72854 12.0448C4.65974 12.0163 4.59724 11.9745 4.54461 11.9218C4.49199 11.8691 4.45026 11.8065 4.42183 11.7377C4.39339 11.6688 4.37881 11.5951 4.37891 11.5206ZM10.2745 6.74054C10.3808 6.6343 10.525 6.57463 10.6753 6.57463C10.8256 6.57463 10.9697 6.6343 11.076 6.74054L11.8379 7.50239L13.647 5.69331C13.7 5.64031 13.763 5.59835 13.8324 5.56988C13.9017 5.5414 13.976 5.52697 14.051 5.52741C14.126 5.52786 14.2001 5.54318 14.2691 5.57249C14.3381 5.60179 14.4006 5.6445 14.453 5.69813L14.4597 5.70519C14.5638 5.81165 14.6218 5.95485 14.6211 6.10376C14.6204 6.25267 14.5611 6.39532 14.456 6.50081L12.1032 8.86431C12.0701 8.89754 12.0307 8.92391 11.9873 8.9419C11.9439 8.95989 11.8975 8.96915 11.8505 8.96915C11.8036 8.96915 11.7571 8.95989 11.7137 8.9419C11.6703 8.92391 11.631 8.89754 11.5978 8.86431L10.2745 7.54099C10.1685 7.43476 10.109 7.29082 10.109 7.14076C10.109 6.9907 10.1685 6.84677 10.2745 6.74054ZM4.37891 7.5202V7.51241C4.37891 7.36212 4.43861 7.21799 4.54488 7.11172C4.65115 7.00545 4.79528 6.94575 4.94557 6.94575H8.70363C8.77805 6.94575 8.85173 6.96041 8.92048 6.98889C8.98923 7.01736 9.0517 7.0591 9.10432 7.11172C9.15694 7.16434 9.19868 7.22681 9.22716 7.29556C9.25564 7.36431 9.27029 7.438 9.27029 7.51241V7.5202C9.27019 7.67043 9.21045 7.81447 9.10419 7.92065C8.99793 8.02684 8.85386 8.08649 8.70363 8.08649H4.94557C4.79534 8.08649 4.65127 8.02684 4.54501 7.92065C4.43875 7.81447 4.37901 7.67043 4.37891 7.5202Z" fill="white"/>
</g>
</g>
</svg>
