<svg xmlns="http://www.w3.org/2000/svg" width="30" height="30" viewBox="0 0 30 30" version="1.1"><path d="M 11 3 C 9.900 4.100, 8.425 5, 7.723 5 C 7.020 5, 5.477 5.678, 4.294 6.506 C 2.391 7.840, 2.171 8.831, 2.382 15.131 C 2.628 22.472, 4.055 25, 7.951 25 C 8.813 25, 10.081 25.900, 10.768 27 C 12.376 29.575, 16.425 29.575, 19 27 C 20.100 25.900, 21.575 25, 22.277 25 C 22.980 25, 24.523 24.322, 25.706 23.494 C 27.609 22.160, 27.829 21.169, 27.618 14.869 C 27.372 7.528, 25.945 5, 22.049 5 C 21.187 5, 19.919 4.100, 19.232 3 C 18.526 1.869, 16.900 1, 15.492 1 C 14.121 1, 12.100 1.900, 11 3 M 12.500 6 C 11.505 7.100, 10.171 8, 9.536 8 C 8.902 8, 7.564 8.598, 6.565 9.329 C 5.080 10.415, 4.953 11.044, 5.874 12.764 C 6.649 14.212, 6.692 15.679, 6.014 17.462 C 5.139 19.765, 5.335 20.186, 7.764 21.219 C 9.269 21.858, 11.512 23.274, 12.750 24.365 C 14.998 26.347, 15.002 26.347, 17.314 24.174 C 18.587 22.978, 20.076 22, 20.623 22 C 21.170 22, 22.436 21.402, 23.435 20.671 C 24.920 19.585, 25.047 18.956, 24.126 17.236 C 23.347 15.780, 23.306 14.324, 23.995 12.513 C 24.906 10.118, 24.707 9.775, 21.666 8.505 C 19.837 7.741, 17.759 6.415, 17.048 5.558 C 15.361 3.525, 14.679 3.592, 12.500 6 M 11.200 11.200 C 9.653 12.747, 9.653 17.253, 11.200 18.800 C 12.747 20.347, 17.253 20.347, 18.800 18.800 C 20.347 17.253, 20.347 12.747, 18.800 11.200 C 18.140 10.540, 16.430 10, 15 10 C 13.570 10, 11.860 10.540, 11.200 11.200 M 13.446 14.087 C 12.416 15.755, 14.733 17.667, 16.113 16.287 C 17.267 15.133, 16.545 13, 15 13 C 14.515 13, 13.816 13.489, 13.446 14.087" stroke="none" fill="#05c882" fill-rule="evenodd"/><path d="" stroke="none" fill="#05c882" fill-rule="evenodd"/></svg>