<svg width="147" height="24" viewBox="0 0 147 24" fill="none" xmlns="http://www.w3.org/2000/svg">
<path fill-rule="evenodd" clip-rule="evenodd" d="M11.8777 0.45L8.97775 6.34999C8.67774 6.94999 7.77775 7.64999 7.07775 7.74999L0.677742 8.65001C-0.022258 8.75001 -0.222252 9.24999 0.277748 9.74999L4.97775 14.35C5.47775 14.85 5.77774 15.85 5.67774 16.55L4.57775 23.05C4.47775 23.75 4.87775 24.05 5.47775 23.75L11.2777 20.75C11.8777 20.45 12.9778 20.45 13.5778 20.75L19.3777 23.75C19.9777 24.05 20.4777 23.75 20.2777 23.05L19.1777 16.55C19.0777 15.85 19.3777 14.85 19.8777 14.35L24.5778 9.74999C25.0778 9.24999 24.9777 8.75001 24.2777 8.65001L17.7777 7.74999C17.0777 7.64999 16.1777 7.04999 15.8777 6.34999L12.9777 0.45C12.6777 -0.15 12.1777 -0.15 11.8777 0.45ZM42.5778 0.550006L39.6778 6.45C39.3778 7.05 38.4777 7.74999 37.7777 7.84999L31.2777 8.74999C30.5777 8.84999 30.3777 9.34999 30.8777 9.84999L35.5778 14.45C36.0778 14.95 36.3777 15.95 36.2777 16.65L35.1778 23.15C35.0778 23.85 35.4778 24.15 36.0778 23.85L41.8777 20.85C42.4777 20.55 43.5778 20.55 44.1778 20.85L49.9777 23.85C50.5777 24.15 51.0777 23.85 50.8777 23.15L49.7777 16.65C49.6777 15.95 49.9777 14.95 50.4777 14.45L55.1778 9.84999C55.6778 9.34999 55.5777 8.84999 54.7777 8.74999L48.2777 7.84999C47.5777 7.74999 46.7777 7.15 46.3777 6.45L43.4777 0.550006C43.4777 -0.0499939 42.9778 -0.0499939 42.5778 0.550006ZM73.1778 0.550006L70.2777 6.45C69.9777 7.05 69.0777 7.74999 68.3777 7.84999L61.9777 8.74999C61.2777 8.84999 61.0778 9.34999 61.5778 9.84999L66.2777 14.45C66.7777 14.95 67.0777 15.95 66.9777 16.65L65.8777 23.15C65.7777 23.85 66.1777 24.15 66.7777 23.85L72.5778 20.85C73.1777 20.55 74.2777 20.55 74.8777 20.85L80.6778 23.85C81.2778 24.15 81.6777 23.85 81.5778 23.15L80.4777 16.65C80.3777 15.95 80.6778 14.95 81.1778 14.45L85.8777 9.84999C86.3777 9.34999 86.2777 8.84999 85.4777 8.74999L78.9777 7.84999C78.2777 7.74999 77.3778 7.15 77.0778 6.45L74.1778 0.550006C73.9778 -0.0499939 73.4778 -0.0499939 73.1778 0.550006ZM103.678 0.550006L100.778 6.45C100.478 7.05 99.5777 7.74999 98.8777 7.84999L92.4777 8.74999C91.7777 8.84999 91.5778 9.34999 92.0778 9.84999L96.7777 14.45C97.2777 14.95 97.5777 15.95 97.4777 16.65L96.3777 23.15C96.2777 23.85 96.6777 24.15 97.2777 23.85L103.078 20.85C103.678 20.55 104.778 20.55 105.378 20.85L111.178 23.85C111.778 24.15 112.278 23.85 112.078 23.15L110.978 16.65C110.878 15.95 111.178 14.95 111.678 14.45L116.378 9.84999C116.878 9.34999 116.778 8.84999 115.978 8.74999L109.578 7.84999C108.878 7.74999 107.978 7.15 107.678 6.45L104.778 0.550006C104.478 -0.0499939 103.978 -0.0499939 103.678 0.550006ZM133.978 0.45L131.078 6.34999C130.778 6.94999 129.878 7.64999 129.178 7.74999L122.778 8.65001C122.078 8.75001 121.878 9.24999 122.378 9.74999L127.078 14.35C127.578 14.85 127.878 15.85 127.778 16.55L126.678 23.05C126.578 23.75 126.978 24.05 127.578 23.75L133.378 20.75C133.978 20.45 135.078 20.45 135.678 20.75L141.478 23.75C142.078 24.05 142.578 23.75 142.378 23.05L141.278 16.55C141.178 15.85 141.478 14.85 141.978 14.35L146.678 9.74999C147.178 9.24999 146.978 8.75001 146.278 8.65001L139.878 7.74999C139.178 7.64999 138.278 7.04999 137.978 6.34999L135.078 0.45C134.778 -0.15 134.278 -0.15 133.978 0.45Z" fill="#F5C107"/>
</svg>
