<svg width="99" height="16" viewBox="0 0 99 16" fill="none" xmlns="http://www.w3.org/2000/svg">
<path fill-rule="evenodd" clip-rule="evenodd" d="M7.92978 0.300428L5.9937 4.23936C5.79341 4.63993 5.19256 5.10726 4.72523 5.17402L0.452472 5.7749C-0.0148598 5.84166 -0.148379 6.17545 0.185429 6.50926L3.32323 9.5803C3.65704 9.91411 3.85732 10.5817 3.79056 11.0491L3.05618 15.3886C2.98942 15.8559 3.25647 16.0562 3.65704 15.8559L7.52922 13.853C7.92979 13.6528 8.66417 13.6528 9.06474 13.853L12.9369 15.8559C13.3375 16.0562 13.6713 15.8559 13.5378 15.3886L12.8034 11.0491C12.7366 10.5817 12.9369 9.91411 13.2707 9.5803L16.4085 6.50926C16.7423 6.17545 16.6756 5.84166 16.2082 5.7749L11.8687 5.17402C11.4014 5.10726 10.8005 4.7067 10.6002 4.23936L8.66416 0.300428C8.46388 -0.100143 8.13007 -0.100143 7.92978 0.300428ZM28.4256 0.367193L26.4895 4.30613C26.2893 4.7067 25.6884 5.17403 25.2211 5.24079L20.8816 5.84164C20.4142 5.9084 20.2807 6.24222 20.6145 6.57602L23.7523 9.64707C24.0861 9.98087 24.2864 10.6485 24.2196 11.1158L23.4853 15.4553C23.4185 15.9227 23.6856 16.1229 24.0861 15.9227L27.9583 13.9198C28.3589 13.7195 29.0933 13.7195 29.4938 13.9198L33.366 15.9227C33.7666 16.1229 34.1004 15.9227 33.9668 15.4553L33.2325 11.1158C33.1657 10.6485 33.366 9.98087 33.6998 9.64707L36.8376 6.57602C37.1714 6.24222 37.1046 5.9084 36.5705 5.84164L32.231 5.24079C31.7637 5.17403 31.2296 4.77346 30.9626 4.30613L29.0265 0.367193C29.0265 -0.0333768 28.6927 -0.0333768 28.4256 0.367193ZM48.8547 0.367193L46.9186 4.30613C46.7183 4.7067 46.1175 5.17403 45.6501 5.24079L41.3774 5.84164C40.9101 5.9084 40.7765 6.24222 41.1104 6.57602L44.2481 9.64707C44.582 9.98087 44.7822 10.6485 44.7155 11.1158L43.9811 15.4553C43.9143 15.9227 44.1814 16.1229 44.582 15.9227L48.4541 13.9198C48.8547 13.7195 49.5891 13.7195 49.9897 13.9198L53.8618 15.9227C54.2624 16.1229 54.5295 15.9227 54.4627 15.4553L53.7283 11.1158C53.6616 10.6485 53.8618 9.98087 54.1957 9.64707L57.3334 6.57602C57.6672 6.24222 57.6005 5.9084 57.0664 5.84164L52.7269 5.24079C52.2596 5.17403 51.6587 4.77346 51.4584 4.30613L49.5223 0.367193C49.3888 -0.0333768 49.055 -0.0333768 48.8547 0.367193ZM69.217 0.367193L67.2809 4.30613C67.0806 4.7067 66.4798 5.17403 66.0125 5.24079L61.7397 5.84164C61.2724 5.9084 61.1389 6.24222 61.4727 6.57602L64.6105 9.64707C64.9443 9.98087 65.1446 10.6485 65.0778 11.1158L64.3434 15.4553C64.2767 15.9227 64.5437 16.1229 64.9443 15.9227L68.8165 13.9198C69.217 13.7195 69.9514 13.7195 70.352 13.9198L74.2242 15.9227C74.6247 16.1229 74.9585 15.9227 74.825 15.4553L74.0906 11.1158C74.0239 10.6485 74.2242 9.98087 74.558 9.64707L77.6958 6.57602C78.0296 6.24222 77.9628 5.9084 77.4287 5.84164L73.156 5.24079C72.6886 5.17403 72.0878 4.77346 71.8875 4.30613L69.9514 0.367193C69.7511 -0.0333768 69.4173 -0.0333768 69.217 0.367193ZM89.4458 0.300428L87.5097 4.23936C87.3094 4.63993 86.7086 5.10726 86.2413 5.17402L81.9685 5.7749C81.5012 5.84166 81.3677 6.17545 81.7015 6.50926L84.8393 9.5803C85.1731 9.91411 85.3734 10.5817 85.3066 11.0491L84.5722 15.3886C84.5055 15.8559 84.7725 16.0562 85.1731 15.8559L89.0452 13.853C89.4458 13.6528 90.1802 13.6528 90.5808 13.853L94.4529 15.8559C94.8535 16.0562 95.1873 15.8559 95.0538 15.3886L94.3194 11.0491C94.2527 10.5817 94.4529 9.91411 94.7868 9.5803L97.9246 6.50926C98.2584 6.17545 98.1248 5.84166 97.6575 5.7749L93.3848 5.17402C92.9174 5.10726 92.3166 4.7067 92.1163 4.23936L90.1802 0.300428C89.9799 -0.100143 89.6461 -0.100143 89.4458 0.300428Z" fill="#F5C107"/>
</svg>
