<svg width="18" height="18" viewBox="0 0 18 18" fill="none" xmlns="http://www.w3.org/2000/svg">
<g clip-path="url(#clip0_1487_3184)">
<path d="M13.4623 6.16745C13.193 5.8835 12.744 5.87099 12.4596 6.14097L7.93169 10.4351L5.772 8.2177C5.49847 7.93706 5.04998 7.93091 4.7691 8.20447C4.48846 8.47777 4.48255 8.92673 4.75585 9.20737L7.40376 11.926C7.54253 12.0685 7.72695 12.1404 7.91184 12.1404C8.08727 12.1404 8.2627 12.0756 8.40007 11.9458L13.4358 7.17014C13.72 6.90061 13.732 6.45164 13.4623 6.16745Z" fill="#05C882"/>
<path d="M9.09523 0.296875C4.27176 0.296875 0.347656 4.22098 0.347656 9.04445C0.347656 13.8679 4.27176 17.792 9.09523 17.792C13.9187 17.792 17.8428 13.8679 17.8428 9.04445C17.8428 4.22098 13.9187 0.296875 9.09523 0.296875ZM9.09523 16.3735C5.05409 16.3735 1.76616 13.0859 1.76616 9.04445C1.76616 5.00331 5.05406 1.71538 9.09523 1.71538C13.1366 1.71538 16.4243 5.00328 16.4243 9.04445C16.4243 13.0858 13.1366 16.3735 9.09523 16.3735Z" fill="#05C882"/>
</g>
<defs>
<clipPath id="clip0_1487_3184">
<rect width="17.4952" height="17.4952" fill="white" transform="translate(0.347656 0.295898)"/>
</clipPath>
</defs>
</svg>
