<svg width="13" height="12" viewBox="0 0 13 12" fill="none" xmlns="http://www.w3.org/2000/svg">
<g clip-path="url(#clip0_2129_6364)">
<path d="M10.9498 5.45312H9.87339C9.77823 5.45312 9.68697 5.49093 9.61969 5.55821C9.5524 5.6255 9.5146 5.71676 9.5146 5.81192C9.5146 5.90708 9.5524 5.99834 9.61969 6.06563C9.68697 6.13291 9.77823 6.17072 9.87339 6.17072H10.9498V10.1175H2.33868V6.17072H3.41507C3.51023 6.17072 3.60149 6.13291 3.66878 6.06563C3.73607 5.99834 3.77387 5.90708 3.77387 5.81192C3.77387 5.71676 3.73607 5.6255 3.66878 5.55821C3.60149 5.49093 3.51023 5.45312 3.41507 5.45312H2.33868C2.14843 5.45334 1.96604 5.52902 1.83151 5.66354C1.69699 5.79807 1.62131 5.98047 1.62109 6.17072V10.1175C1.62131 10.3077 1.69699 10.4901 1.83151 10.6246C1.96604 10.7592 2.14843 10.8348 2.33868 10.8351H10.9498C11.14 10.8348 11.3224 10.7592 11.457 10.6246C11.5915 10.4901 11.6672 10.3077 11.6674 10.1175V6.17072C11.6672 5.98047 11.5915 5.79807 11.457 5.66354C11.3224 5.52902 11.14 5.45334 10.9498 5.45312Z" fill="white"/>
<path d="M4.74688 3.55713L6.28719 2.01686V9.04419C6.28719 9.13935 6.32499 9.23061 6.39228 9.2979C6.45957 9.36518 6.55083 9.40299 6.64599 9.40299C6.74115 9.40299 6.83241 9.36518 6.89969 9.2979C6.96698 9.23061 7.00478 9.13935 7.00478 9.04419V2.01686L8.54509 3.55713C8.61276 3.62249 8.70339 3.65865 8.79747 3.65783C8.89154 3.65702 8.98153 3.61928 9.04806 3.55276C9.11458 3.48623 9.15232 3.39624 9.15313 3.30217C9.15395 3.20809 9.11779 3.11746 9.05243 3.04979C8.97654 2.97387 6.96711 0.962427 6.88889 0.889842C6.82139 0.826391 6.73186 0.791667 6.63923 0.793006C6.54659 0.794345 6.4581 0.831642 6.39246 0.897018L4.23969 3.04979C4.17507 3.11759 4.13953 3.20796 4.14065 3.30161C4.14177 3.39526 4.17946 3.48476 4.24568 3.551C4.31189 3.61723 4.40138 3.65495 4.49503 3.65609C4.58868 3.65724 4.67907 3.62172 4.74688 3.55713Z" fill="white"/>
</g>
<defs>
<clipPath id="clip0_2129_6364">
<rect width="11.4815" height="11.4815" fill="white" transform="translate(0.902344 0.0703125)"/>
</clipPath>
</defs>
</svg>
