<svg width="20" height="18" viewBox="0 0 20 18" fill="none" xmlns="http://www.w3.org/2000/svg">
<path d="M5.20291 18C4.17385 18.0003 3.16781 17.6953 2.31211 17.1237C1.45641 16.5521 0.789506 15.7395 0.395775 14.7887C0.00204384 13.8379 -0.100814 12.7917 0.100216 11.7825C0.301247 10.7733 0.797131 9.84632 1.52512 9.11899L9.20189 1.44132C9.32919 1.31402 9.50183 1.24251 9.68186 1.24251C9.86188 1.24251 10.0345 1.31402 10.1618 1.44132C10.2891 1.56861 10.3606 1.74126 10.3606 1.92129C10.3606 2.10131 10.2891 2.27396 10.1618 2.40125L2.48415 10.078C2.11245 10.4317 1.81531 10.8563 1.61023 11.3266C1.40514 11.797 1.29627 12.3036 1.29002 12.8167C1.28377 13.3297 1.38027 13.8389 1.57384 14.3141C1.7674 14.7893 2.05412 15.2209 2.41709 15.5836C2.78006 15.9462 3.21195 16.2326 3.68731 16.4258C4.16266 16.6189 4.67187 16.715 5.18494 16.7083C5.698 16.7017 6.20454 16.5924 6.67471 16.3869C7.14488 16.1814 7.56917 15.8839 7.92258 15.5119L17.8386 5.59591C18.293 5.12668 18.5447 4.49763 18.5395 3.84446C18.5342 3.19129 18.2724 2.56636 17.8106 2.10448C17.3487 1.64261 16.7238 1.38081 16.0706 1.37556C15.4174 1.37032 14.7884 1.62205 14.3191 2.07645L6.32299 10.078C6.21796 10.1831 6.13464 10.3077 6.0778 10.445C6.02096 10.5822 5.9917 10.7293 5.9917 10.8778C5.9917 11.0264 6.02096 11.1734 6.0778 11.3107C6.13464 11.4479 6.21796 11.5726 6.32299 11.6776C6.42802 11.7826 6.55271 11.866 6.68994 11.9228C6.82717 11.9796 6.97425 12.0089 7.12278 12.0089C7.27132 12.0089 7.4184 11.9796 7.55563 11.9228C7.69286 11.866 7.81755 11.7826 7.92258 11.6776L13.0389 6.56037C13.1015 6.49553 13.1763 6.44381 13.2591 6.4082C13.3419 6.3726 13.4309 6.35384 13.521 6.35302C13.6111 6.35219 13.7005 6.36932 13.7839 6.4034C13.8673 6.43748 13.9431 6.48783 14.0068 6.55151C14.0705 6.61519 14.121 6.69093 14.1551 6.7743C14.1893 6.85768 14.2065 6.94702 14.2058 7.03712C14.205 7.12722 14.1863 7.21627 14.1508 7.29907C14.1153 7.38188 14.0636 7.45678 13.9989 7.5194L8.88161 12.6376C8.65058 12.8686 8.37629 13.052 8.07441 13.1771C7.77253 13.3021 7.44897 13.3665 7.1222 13.3666C6.79543 13.3666 6.47185 13.3023 6.16994 13.1773C5.86803 13.0523 5.59369 12.869 5.3626 12.638C5.13151 12.407 4.94819 12.1327 4.8231 11.8308C4.69801 11.5289 4.63361 11.2054 4.63356 10.8786C4.63348 10.2186 4.89556 9.5857 5.36215 9.11899L13.3601 1.12647C14.0812 0.405287 15.0592 8.48497e-05 16.079 1.33242e-08C17.0988 -8.48231e-05 18.0769 0.404955 18.7981 1.12602C19.5193 1.84708 19.9245 2.82509 19.9245 3.84491C19.9246 4.86473 19.5196 5.84281 18.7985 6.56399L8.88251 16.4764C8.40035 16.961 7.82688 17.3451 7.19529 17.6067C6.56369 17.8682 5.88651 18.0019 5.20291 18Z" fill="#8D8FA9"/>
</svg>
