<svg width="17" height="17" viewBox="0 0 17 17" fill="none" xmlns="http://www.w3.org/2000/svg">
<g clip-path="url(#clip0_588_893)">
<path d="M8.90555 0.268066C6.81468 0.268066 5.12207 1.96068 5.12207 4.05155C5.12207 6.14242 6.81468 7.83503 8.90555 7.83503C10.9964 7.83503 12.689 6.14242 12.689 4.05155C12.689 1.96068 10.9964 0.268066 8.90555 0.268066Z" fill="#D8D8F1"/>
<path d="M10.3793 8.27246H7.43219C4.46514 8.27246 2.05566 10.6819 2.05566 13.649V15.8394C2.05566 16.1779 2.31453 16.4368 2.65306 16.4368H15.1585C15.497 16.4368 15.7559 16.1779 15.7559 15.8394V13.649C15.7559 10.6819 13.3464 8.27246 10.3793 8.27246Z" fill="#D8D8F1"/>
</g>
<defs>
<clipPath id="clip0_588_893">
<rect width="16.1694" height="16.1694" fill="white" transform="translate(0.820312 0.268555)"/>
</clipPath>
</defs>
</svg>
