<svg width="15" height="10" viewBox="0 0 15 10" fill="none" xmlns="http://www.w3.org/2000/svg">
<path d="M8.93939 2.72731H7.12121C7.00066 2.72731 6.88504 2.67942 6.7998 2.59418C6.71456 2.50893 6.66667 2.39332 6.66667 2.27276C6.66667 2.15221 6.71456 2.0366 6.7998 1.95135C6.88504 1.86611 7.00066 1.81822 7.12121 1.81822H8.93939C9.05995 1.81822 9.17556 1.86611 9.26081 1.95135C9.34605 2.0366 9.39394 2.15221 9.39394 2.27276C9.39394 2.39332 9.34605 2.50893 9.26081 2.59418C9.17556 2.67942 9.05995 2.72731 8.93939 2.72731ZM0.454545 8.78792C0.333993 8.78792 0.218377 8.74003 0.133133 8.65478C0.0478894 8.56954 0 8.45392 0 8.33337V1.6667C0 1.54615 0.0478894 1.43054 0.133133 1.34529C0.218377 1.26005 0.333993 1.21216 0.454545 1.21216C0.575098 1.21216 0.690714 1.26005 0.775958 1.34529C0.861202 1.43054 0.909091 1.54615 0.909091 1.6667V8.33337C0.909091 8.45392 0.861202 8.56954 0.775958 8.65478C0.690714 8.74003 0.575098 8.78792 0.454545 8.78792ZM10.7576 8.78792C10.637 8.78792 10.5214 8.74003 10.4362 8.65478C10.3509 8.56954 10.303 8.45392 10.303 8.33337V1.6667C10.303 1.54615 10.3509 1.43054 10.4362 1.34529C10.5214 1.26005 10.637 1.21216 10.7576 1.21216C10.8781 1.21216 10.9937 1.26005 11.079 1.34529C11.1642 1.43054 11.2121 1.54615 11.2121 1.6667V8.33337C11.2121 8.45392 11.1642 8.56954 11.079 8.65478C10.9937 8.74003 10.8781 8.78792 10.7576 8.78792ZM9.54545 10H1.66667C1.60697 10 1.54787 9.98828 1.49272 9.96544C1.43757 9.94259 1.38746 9.90911 1.34525 9.8669C1.30305 9.8247 1.26956 9.77459 1.24672 9.71944C1.22388 9.66429 1.21212 9.60518 1.21212 9.54549C1.21212 9.4858 1.22388 9.42669 1.24672 9.37154C1.26956 9.3164 1.30305 9.26629 1.34525 9.22408C1.38746 9.18187 1.43757 9.14839 1.49272 9.12555C1.54787 9.1027 1.60697 9.09095 1.66667 9.09095H9.54545C9.60515 9.09095 9.66425 9.1027 9.7194 9.12555C9.77455 9.14839 9.82466 9.18187 9.86687 9.22408C9.90908 9.26629 9.94256 9.3164 9.9654 9.37154C9.98824 9.42669 10 9.4858 10 9.54549C10 9.60518 9.98824 9.66429 9.9654 9.71944C9.94256 9.77459 9.90908 9.8247 9.86687 9.8669C9.82466 9.90911 9.77455 9.94259 9.7194 9.96544C9.66425 9.98828 9.60515 10 9.54545 10Z" fill="#F8F9FD"/>
<path d="M9.54545 10C9.48576 10 9.42666 9.98824 9.37151 9.9654C9.31636 9.94256 9.26625 9.90908 9.22404 9.86687C9.18183 9.82466 9.14835 9.77455 9.12551 9.7194C9.10267 9.66425 9.09091 9.60515 9.09091 9.54545C9.09091 9.48576 9.10267 9.42666 9.12551 9.37151C9.14835 9.31636 9.18183 9.26625 9.22404 9.22404C9.26625 9.18183 9.31636 9.14835 9.37151 9.12551C9.42666 9.10267 9.48576 9.09091 9.54545 9.09091C9.96333 9.09091 10.303 8.75091 10.303 8.33333C10.303 8.21278 10.3509 8.09717 10.4362 8.01192C10.5214 7.92668 10.637 7.87879 10.7576 7.87879C10.8781 7.87879 10.9937 7.92668 11.079 8.01192C11.1642 8.09717 11.2121 8.21278 11.2121 8.33333C11.2121 9.25242 10.4642 10 9.54545 10ZM1.66667 10C1.22479 9.99952 0.801143 9.82377 0.488687 9.51131C0.176231 9.19886 0.000481264 8.77521 0 8.33333C0 8.21278 0.0478894 8.09717 0.133133 8.01192C0.218377 7.92668 0.333993 7.87879 0.454545 7.87879C0.575098 7.87879 0.690714 7.92668 0.775958 8.01192C0.861202 8.09717 0.909091 8.21278 0.909091 8.33333C0.909091 8.75091 1.24879 9.09091 1.66667 9.09091C1.72636 9.09091 1.78547 9.10267 1.84061 9.12551C1.89576 9.14835 1.94587 9.18183 1.98808 9.22404C2.03029 9.26625 2.06377 9.31636 2.08661 9.37151C2.10946 9.42666 2.12121 9.48576 2.12121 9.54545C2.12121 9.60515 2.10946 9.66425 2.08661 9.7194C2.06377 9.77455 2.03029 9.82466 1.98808 9.86687C1.94587 9.90908 1.89576 9.94256 1.84061 9.9654C1.78547 9.98824 1.72636 10 1.66667 10ZM9.54545 0.909091H1.66667C1.54611 0.909091 1.4305 0.861201 1.34525 0.775957C1.26001 0.690714 1.21212 0.575098 1.21212 0.454545C1.21212 0.333993 1.26001 0.218377 1.34525 0.133133C1.4305 0.0478894 1.54611 0 1.66667 0H9.54545C9.66601 0 9.78162 0.0478894 9.86687 0.133133C9.95211 0.218377 10 0.333993 10 0.454545C10 0.575098 9.95211 0.690714 9.86687 0.775957C9.78162 0.861201 9.66601 0.909091 9.54545 0.909091Z" fill="#F8F9FD"/>
<path d="M10.7576 2.12121C10.637 2.12121 10.5214 2.07332 10.4362 1.98808C10.3509 1.90283 10.303 1.78722 10.303 1.66667C10.303 1.24909 9.96333 0.909091 9.54545 0.909091C9.4249 0.909091 9.30929 0.861201 9.22404 0.775957C9.1388 0.690714 9.09091 0.575098 9.09091 0.454545C9.09091 0.333993 9.1388 0.218377 9.22404 0.133133C9.30929 0.0478894 9.4249 0 9.54545 0C10.4642 0 11.2121 0.747576 11.2121 1.66667C11.2121 1.78722 11.1642 1.90283 11.079 1.98808C10.9937 2.07332 10.8781 2.12121 10.7576 2.12121ZM0.454545 2.12121C0.333993 2.12121 0.218377 2.07332 0.133133 1.98808C0.0478894 1.90283 0 1.78722 0 1.66667C0 0.747576 0.747879 0 1.66667 0C1.78722 0 1.90284 0.0478894 1.98808 0.133133C2.07332 0.218377 2.12121 0.333993 2.12121 0.454545C2.12121 0.575098 2.07332 0.690714 1.98808 0.775957C1.90284 0.861201 1.78722 0.909091 1.66667 0.909091C1.46582 0.909332 1.27327 0.989225 1.13125 1.13125C0.989224 1.27327 0.909332 1.46582 0.909091 1.66667C0.909091 1.78722 0.861202 1.90283 0.775958 1.98808C0.690714 2.07332 0.575098 2.12121 0.454545 2.12121ZM13.7879 9.17061C13.6673 9.17061 13.5517 9.12272 13.4665 9.03747C13.3812 8.95223 13.3333 8.83661 13.3333 8.71606V1.28394C13.3333 1.16339 13.3812 1.04777 13.4665 0.962527C13.5517 0.877284 13.6673 0.829394 13.7879 0.829394C13.9084 0.829394 14.024 0.877284 14.1093 0.962527C14.1945 1.04777 14.2424 1.16339 14.2424 1.28394V8.71576C14.2425 8.77548 14.2307 8.83461 14.2079 8.8898C14.1851 8.94498 14.1516 8.99513 14.1094 9.03737C14.0672 9.07961 14.0171 9.11312 13.9619 9.13598C13.9067 9.15884 13.8476 9.17061 13.7879 9.17061Z" fill="#F8F9FD"/>
<path d="M13.7875 9.17062C13.695 9.17071 13.6046 9.14236 13.5287 9.08941L10.4984 6.98638C10.4494 6.95234 10.4075 6.90896 10.3752 6.85874C10.3429 6.80852 10.3209 6.75243 10.3103 6.69368C10.2997 6.63492 10.3007 6.57465 10.3134 6.51631C10.3261 6.45797 10.3501 6.4027 10.3842 6.35365C10.4182 6.30461 10.4616 6.26274 10.5118 6.23046C10.562 6.19817 10.6181 6.1761 10.6769 6.16549C10.7356 6.15488 10.7959 6.15595 10.8542 6.16863C10.9126 6.18132 10.9679 6.20537 11.0169 6.23941L14.0472 8.34244C14.1269 8.39764 14.1868 8.47687 14.2183 8.56856C14.2498 8.66025 14.2511 8.75959 14.2221 8.85208C14.1931 8.94457 14.1353 9.02537 14.0571 9.08268C13.9789 9.13999 13.8844 9.1708 13.7875 9.17062ZM10.7578 3.84183C10.6609 3.84195 10.5665 3.81109 10.4884 3.75376C10.4102 3.69643 10.3525 3.61563 10.3235 3.52315C10.2945 3.43067 10.2959 3.33136 10.3274 3.2397C10.3588 3.14804 10.4188 3.06884 10.4984 3.01365L13.5287 0.910623C13.5778 0.876579 13.633 0.852528 13.6914 0.839845C13.7497 0.827162 13.81 0.826094 13.8687 0.836702C13.9275 0.84731 13.9836 0.869388 14.0338 0.901673C14.084 0.933958 14.1274 0.975819 14.1615 1.02487C14.1955 1.07391 14.2195 1.12918 14.2322 1.18753C14.2449 1.24587 14.246 1.30614 14.2354 1.36489C14.2248 1.42364 14.2027 1.47973 14.1704 1.52996C14.1381 1.58018 14.0963 1.62355 14.0472 1.65759L11.0169 3.76062C10.9378 3.81547 10.8472 3.84183 10.7578 3.84183Z" fill="#F8F9FD"/>
</svg>
