<svg width="14" height="15" viewBox="0 0 14 15" fill="none" xmlns="http://www.w3.org/2000/svg">
<g clip-path="url(#clip0_5164_9290)">
<path d="M2.52602 13.2794C2.36084 13.2794 2.2266 13.1452 2.2266 12.9802V3.76377C2.2266 3.59881 2.36084 3.46462 2.52602 3.46462H8.93016C9.09533 3.46462 9.22961 3.59878 9.22961 3.76377V7.74865C9.51424 7.65385 9.81272 7.59091 10.1222 7.56427V3.76377C10.1222 3.10652 9.58747 2.572 8.93016 2.572H3.88886V2.09997C3.88886 1.93498 4.02308 1.80082 4.18826 1.80082H10.5924C10.7576 1.80082 10.8918 1.93498 10.8918 2.09997V7.57235C11.2021 7.60681 11.5003 7.68047 11.7844 7.78354V2.09997C11.7844 1.44274 11.2497 0.908203 10.5924 0.908203H4.18826C3.53098 0.908203 2.99625 1.44274 2.99625 2.09997V2.572H2.52602C1.86874 2.572 1.33398 3.10654 1.33398 3.76377V12.9802C1.33398 13.6375 1.86874 14.1721 2.52602 14.1721H7.66277C7.40567 13.9077 7.18553 13.6078 7.01071 13.2794H2.52602Z" fill="#5D35E9"/>
<path d="M4.04383 6.05079H6.61967C6.86639 6.05079 7.06594 5.85094 7.06594 5.60451C7.06594 5.35803 6.86639 5.1582 6.61967 5.1582H4.04383C3.79724 5.1582 3.59766 5.35805 3.59766 5.60451C3.59766 5.85094 3.79721 6.05079 4.04383 6.05079Z" fill="#5D35E9"/>
<path d="M7.85871 7.58693C7.85871 7.34047 7.65916 7.14062 7.41241 7.14062H4.04383C3.79724 7.14062 3.59766 7.34047 3.59766 7.58693C3.59766 7.83341 3.79721 8.03324 4.04383 8.03324H7.41241C7.65916 8.03324 7.85871 7.83341 7.85871 7.58693Z" fill="#5D35E9"/>
<path d="M7.33447 9.11914H4.04383C3.79724 9.11914 3.59766 9.31896 3.59766 9.56542C3.59766 9.81188 3.79721 10.0117 4.04383 10.0117H6.8328C6.96044 9.69067 7.13047 9.39173 7.33447 9.11914Z" fill="#5D35E9"/>
<path d="M4.04383 11.1016C3.79724 11.1016 3.59766 11.3014 3.59766 11.5479C3.59766 11.7943 3.79721 11.9942 4.04383 11.9942H6.59615C6.57171 11.8168 6.55433 11.6367 6.55433 11.4526C6.55433 11.334 6.56171 11.2174 6.57222 11.1016H4.04383V11.1016Z" fill="#5D35E9"/>
<path d="M10.46 10.5293C9.69387 10.5293 9.0156 11.1641 8.74805 11.4513C9.0156 11.7384 9.69387 12.3729 10.46 12.3729C11.2293 12.3729 11.9056 11.7385 12.172 11.4516C11.9048 11.1646 11.2267 10.5293 10.46 10.5293ZM10.46 12.1208C10.0904 12.1208 9.79064 11.821 9.79064 11.4513C9.79064 11.0813 10.0904 10.7819 10.46 10.7819C10.8296 10.7819 11.1294 11.0813 11.1294 11.4513C11.1294 11.821 10.8296 12.1208 10.46 12.1208Z" fill="#5D35E9"/>
<path d="M10.4593 8.66211C8.91864 8.66211 7.66992 9.9108 7.66992 11.4514C7.66992 12.9917 8.91864 14.2408 10.4593 14.2408C11.9999 14.2408 13.2486 12.9917 13.2486 11.4514C13.2486 9.91077 11.9999 8.66211 10.4593 8.66211ZM10.4593 12.8193C9.25554 12.8193 8.31495 11.6395 8.27534 11.5894C8.21217 11.5083 8.21217 11.3946 8.27534 11.3138C8.31497 11.2634 9.25557 10.0831 10.4593 10.0831C11.663 10.0831 12.6036 11.2634 12.6432 11.3138C12.7064 11.3946 12.7064 11.5084 12.6432 11.5894C12.6036 11.6395 11.663 12.8193 10.4593 12.8193Z" fill="#5D35E9"/>
</g>
<defs>
<clipPath id="clip0_5164_9290">
<rect width="13.3333" height="13.3333" fill="white" transform="translate(0.625 0.90625)"/>
</clipPath>
</defs>
</svg>
