<svg width="16" height="15" viewBox="0 0 16 15" fill="none" xmlns="http://www.w3.org/2000/svg">
<path d="M12.9421 2.22034C9.9815 -0.739948 5.18129 -0.740278 2.22034 2.22034C-0.740278 5.18096 -0.739948 9.98117 2.22034 12.9421C5.18096 15.9021 9.98117 15.9024 12.9421 12.9421C15.9024 9.98117 15.9021 5.18129 12.9421 2.22034ZM8.56975 10.8774C8.56975 11.4236 8.12707 11.8662 7.5809 11.8662C7.03472 11.8662 6.59205 11.4236 6.59205 10.8774V6.92199C6.59205 6.37582 7.03472 5.93314 7.5809 5.93314C8.12707 5.93314 8.56975 6.37582 8.56975 6.92199V10.8774ZM7.56343 5.23172C6.99385 5.23172 6.61413 4.82827 6.626 4.33022C6.61413 3.8081 6.99385 3.41685 7.57497 3.41685C8.15641 3.41685 8.52426 3.80843 8.53646 4.33022C8.53613 4.82827 8.15674 5.23172 7.56343 5.23172Z" fill="#5D35E9"/>
</svg>
