<svg width="22" height="22" viewBox="0 0 22 22" fill="none" xmlns="http://www.w3.org/2000/svg">
<path d="M22 11C22 17.0751 17.0751 22 11 22C4.92487 22 0 17.0751 0 11C0 4.92487 4.92487 0 11 0C17.0751 0 22 4.92487 22 11Z" fill="white"/>
<path d="M16.9534 13.7342L11.9401 5.41994C11.7426 5.0924 11.3823 4.88892 10.9998 4.88892C10.6173 4.88892 10.257 5.0924 10.0594 5.41996L5.04612 13.7342C4.84199 14.0728 4.83595 14.4969 5.03034 14.8411C5.22477 15.1854 5.5911 15.3992 5.98642 15.3992H16.0131C16.4084 15.3992 16.7748 15.1854 16.9692 14.8411C17.1636 14.4969 17.1576 14.0727 16.9534 13.7342ZM16.2763 14.4498C16.25 14.4964 16.2117 14.5352 16.1655 14.5622C16.1192 14.5892 16.0667 14.6034 16.0131 14.6035H5.98642C5.93288 14.6034 5.88032 14.5892 5.83408 14.5622C5.78785 14.5352 5.7496 14.4964 5.72323 14.4498C5.69695 14.4032 5.6835 14.3504 5.68426 14.2969C5.68502 14.2434 5.69996 14.191 5.72755 14.1451L10.7409 5.83086C10.768 5.78637 10.8059 5.74956 10.8513 5.72396C10.8966 5.69836 10.9477 5.68483 10.9998 5.68467C11.1051 5.68467 11.2043 5.7407 11.2586 5.83086L16.272 14.1451C16.2996 14.191 16.3145 14.2434 16.3153 14.2969C16.3161 14.3504 16.3026 14.4032 16.2763 14.4498Z" fill="#FF4850"/>
<path d="M11.0025 8.16284C10.6998 8.16284 10.4635 8.32526 10.4635 8.6132C10.4635 9.49172 10.5669 10.7541 10.5669 11.6327C10.5669 11.8615 10.7663 11.9575 11.0025 11.9575C11.1797 11.9575 11.4307 11.8615 11.4307 11.6327C11.4307 10.7542 11.534 9.49175 11.534 8.6132C11.534 8.32529 11.2904 8.16284 11.0025 8.16284ZM11.0099 12.4669C10.6851 12.4669 10.4414 12.7253 10.4414 13.0354C10.4414 13.3381 10.685 13.6039 11.0099 13.6039C11.3126 13.6039 11.571 13.3381 11.571 13.0354C11.571 12.7253 11.3126 12.4669 11.0099 12.4669Z" fill="#FF4850"/>
</svg>
