<svg width="26" height="26" viewBox="0 0 26 26" fill="none" xmlns="http://www.w3.org/2000/svg">
<path d="M4.9726 13.4062C4.96247 13.3529 4.94192 13.3021 4.91214 13.2567C4.88236 13.2112 4.84393 13.1721 4.79903 13.1416C4.70837 13.0799 4.59691 13.0567 4.48916 13.0772C4.38142 13.0977 4.28622 13.1601 4.22451 13.2508C4.1628 13.3414 4.13963 13.4529 4.1601 13.5606C4.18057 13.6684 4.24301 13.7636 4.33367 13.8253C4.42433 13.887 4.5358 13.9102 4.64354 13.8897C4.75128 13.8692 4.84648 13.8068 4.90819 13.7161C4.9699 13.6255 4.99307 13.514 4.9726 13.4062Z" fill="#EF0064"/>
<path d="M14.5519 20.6253L14.3894 19.9672C14.3136 19.6559 14.1354 19.3791 13.8835 19.1811C13.6316 18.9832 13.3204 18.8756 13.0001 18.8756C12.6797 18.8756 12.3685 18.9832 12.1166 19.1811C11.8647 19.3791 11.6865 19.6559 11.6107 19.9672L10.8754 22.9775C10.805 23.2637 10.6395 23.5175 10.406 23.6973C10.1724 23.8771 9.88471 23.9722 9.59003 23.967C9.29534 23.9618 9.01117 23.8566 8.78411 23.6687C8.55705 23.4808 8.40058 23.2213 8.34037 22.9328C8.10068 21.7791 7.75537 20.0891 7.47912 18.7403C6.97536 16.3434 5.97193 15.6 5.50474 14.7794C5.45087 14.6856 5.36197 14.6171 5.25759 14.5889C5.15321 14.5608 5.04192 14.5752 4.94818 14.6291C4.85444 14.6829 4.78594 14.7718 4.75775 14.8762C4.72956 14.9806 4.74399 15.0919 4.79787 15.1856C5.3138 16.0834 6.21974 16.6969 6.68287 18.9069C6.95912 20.2597 7.31255 21.9375 7.54411 23.0953C7.64338 23.5638 7.89886 23.9846 8.26867 24.2888C8.63848 24.593 9.10067 24.7626 9.57948 24.7697C10.0583 24.7768 10.5253 24.621 10.904 24.3278C11.2826 24.0347 11.5504 23.6216 11.6635 23.1562L12.3988 20.1459C12.4307 20.0121 12.5081 19.8936 12.6178 19.8106C12.7275 19.7276 12.8626 19.6853 13.0001 19.6909C13.5932 19.6909 13.6216 20.2434 13.7638 20.8203C13.793 20.9212 13.86 21.0069 13.951 21.0594C14.042 21.1119 14.1497 21.1271 14.2517 21.1019C14.3536 21.0767 14.4418 21.0129 14.4978 20.9241C14.5538 20.8352 14.5732 20.7282 14.5519 20.6253Z" fill="#EF0064"/>
<path d="M21.7994 11.2328C22.1881 10.9324 22.6649 10.7682 23.1562 10.7656C23.264 10.7656 23.3673 10.7228 23.4435 10.6466C23.5197 10.5704 23.5625 10.4671 23.5625 10.3594C23.5625 10.2516 23.5197 10.1483 23.4435 10.0721C23.3673 9.99592 23.264 9.95312 23.1562 9.95312C22.8627 9.95366 22.5719 9.89623 22.3005 9.78413C22.0292 9.67203 21.7827 9.50747 21.5751 9.29988C21.3675 9.09229 21.2029 8.84577 21.0908 8.57444C20.9787 8.30311 20.9213 8.01232 20.9219 7.71875C20.9219 7.611 20.8791 7.50767 20.8029 7.43148C20.7267 7.3553 20.6233 7.3125 20.5156 7.3125C20.4079 7.3125 20.3045 7.3553 20.2283 7.43148C20.1522 7.50767 20.1094 7.611 20.1094 7.71875C20.1089 7.90772 20.0857 8.09595 20.0403 8.27937C19.1675 7.50543 18.0699 7.03134 16.9081 6.92656C14.4706 6.71531 13.9465 8.0925 11.379 7.20687C10.6032 6.94328 9.77862 6.85515 8.96464 6.94882C8.15066 7.0425 7.36762 7.31565 6.67198 7.74858C5.97634 8.18151 5.38546 8.76342 4.94193 9.45235C4.4984 10.1413 4.21329 10.92 4.10717 11.7325C4.0937 11.8402 4.12358 11.9489 4.19025 12.0346C4.25691 12.1203 4.35489 12.1761 4.46264 12.1895C4.57038 12.203 4.67906 12.1731 4.76477 12.1064C4.85048 12.0398 4.9062 11.9418 4.91967 11.8341C5.01 11.1413 5.25295 10.4773 5.631 9.88984C6.00905 9.30238 6.51277 8.80615 7.10582 8.43695C7.69888 8.06775 8.36649 7.83477 9.06049 7.75483C9.75449 7.67489 10.4576 7.74998 11.119 7.97468C12.3427 8.39909 13.6735 8.39909 14.8972 7.97468C15.7161 7.69373 16.5968 7.64523 17.4416 7.83455C18.2863 8.02388 19.0621 8.44362 19.6828 9.04718C19.4746 9.33041 19.2022 9.56021 18.8879 9.71769C18.5736 9.87518 18.2265 9.95586 17.875 9.95312C17.7672 9.95312 17.6639 9.99592 17.5877 10.0721C17.5115 10.1483 17.4687 10.2516 17.4687 10.3594C17.4687 10.4671 17.5115 10.5704 17.5877 10.6466C17.6639 10.7228 17.7672 10.7656 17.875 10.7656C18.4672 10.7667 19.0349 11.0024 19.4537 11.4212C19.8725 11.84 20.1083 12.4077 20.1094 13C20.1094 13.1077 20.1522 13.2111 20.2283 13.2873C20.3045 13.3634 20.4079 13.4062 20.5156 13.4062C20.6233 13.4062 20.7267 13.3634 20.8029 13.2873C20.8791 13.2111 20.9219 13.1077 20.9219 13C20.923 12.7012 20.9838 12.4056 21.1006 12.1306C21.1985 13.3277 20.8221 14.5154 20.0525 15.4375C19.2777 16.4047 18.7518 17.5471 18.5209 18.7647C17.5947 23.3066 17.6759 23.3187 17.2087 23.6966C17.0386 23.8352 16.8362 23.9285 16.6204 23.9678C16.4045 24.0071 16.1822 23.9912 15.9742 23.9214C15.7661 23.8517 15.5791 23.7304 15.4306 23.5689C15.2821 23.4074 15.1768 23.2109 15.1247 22.9978L14.9297 22.1853C14.9005 22.0844 14.8334 21.9987 14.7425 21.9462C14.6515 21.8937 14.5438 21.8785 14.4418 21.9037C14.3399 21.9289 14.2516 21.9927 14.1957 22.0815C14.1397 22.1704 14.1203 22.2775 14.1415 22.3803L14.3365 23.1928C14.4222 23.5382 14.5935 23.8565 14.8347 24.1181C15.0759 24.3798 15.3792 24.5764 15.7166 24.6898C16.0539 24.8032 16.4144 24.8297 16.7646 24.7669C17.1149 24.704 17.4437 24.5539 17.7206 24.3303C18.4884 23.7087 18.4194 23.3187 19.3172 18.9272C19.5209 17.8408 19.9882 16.8211 20.6781 15.9575C21.2165 15.3097 21.5979 14.5462 21.7924 13.7266C21.9869 12.907 21.9893 12.0535 21.7994 11.2328ZM20.5156 11.4806C20.2469 11.0148 19.8602 10.6281 19.3944 10.3594C19.6232 10.2208 19.8369 10.0588 20.0322 9.87593C20.8447 9.06343 20.1622 9.03093 21.0031 9.87593C21.844 10.7209 21.8156 10.0141 21.0031 10.8469C20.8122 11.0347 20.6482 11.248 20.5156 11.4806Z" fill="#EF0064"/>
<path d="M13.0001 10.4487C14.3914 10.4228 15.7543 10.05 16.9651 9.36406C17.0386 9.30229 17.0879 9.21646 17.1042 9.12178C17.1205 9.02711 17.1027 8.92973 17.054 8.84693C17.0053 8.76412 16.9288 8.70126 16.8382 8.6695C16.7475 8.63774 16.6485 8.63913 16.5588 8.67343C15.4677 9.27711 14.2467 9.60747 13.0001 9.63624C11.759 9.60486 10.5438 9.27459 9.45756 8.67343C9.36783 8.63913 9.26884 8.63774 9.17818 8.6695C9.08752 8.70126 9.01105 8.76412 8.96234 8.84693C8.91363 8.92973 8.89585 9.02711 8.91213 9.12178C8.92842 9.21646 8.97773 9.30229 9.05131 9.36406C10.2573 10.0474 11.6142 10.4201 13.0001 10.4487Z" fill="#EF0064"/>
<path d="M2.4375 12.5938H1.21875C1.11101 12.5938 1.00767 12.6366 0.931488 12.7127C0.855301 12.7889 0.8125 12.8923 0.8125 13C0.8125 13.1077 0.855301 13.2111 0.931488 13.2873C1.00767 13.3634 1.11101 13.4062 1.21875 13.4062H2.4375C2.54524 13.4062 2.64858 13.3634 2.72476 13.2873C2.80095 13.2111 2.84375 13.1077 2.84375 13C2.84375 12.8923 2.80095 12.7889 2.72476 12.7127C2.64858 12.6366 2.54524 12.5938 2.4375 12.5938Z" fill="#EF0064"/>
<path d="M24.7812 12.5938H23.5625C23.4548 12.5938 23.3514 12.6366 23.2752 12.7127C23.1991 12.7889 23.1562 12.8923 23.1562 13C23.1562 13.1077 23.1991 13.2111 23.2752 13.2873C23.3514 13.3634 23.4548 13.4062 23.5625 13.4062H24.7812C24.889 13.4062 24.9923 13.3634 25.0685 13.2873C25.1447 13.2111 25.1875 13.1077 25.1875 13C25.1875 12.8923 25.1447 12.7889 25.0685 12.7127C24.9923 12.6366 24.889 12.5938 24.7812 12.5938Z" fill="#EF0064"/>
<path d="M13.4062 2.4375V1.21875C13.4062 1.11101 13.3634 1.00767 13.2873 0.931488C13.2111 0.855301 13.1077 0.8125 13 0.8125C12.8923 0.8125 12.7889 0.855301 12.7127 0.931488C12.6366 1.00767 12.5938 1.11101 12.5938 1.21875V2.4375C12.5938 2.54524 12.6366 2.64858 12.7127 2.72476C12.7889 2.80095 12.8923 2.84375 13 2.84375C13.1077 2.84375 13.2111 2.80095 13.2873 2.72476C13.3634 2.64858 13.4062 2.54524 13.4062 2.4375Z" fill="#EF0064"/>
<path d="M3.65613 17.9278L2.60394 18.5372C2.5102 18.5911 2.4417 18.68 2.41352 18.7843C2.38533 18.8887 2.39975 19 2.45363 19.0937C2.5075 19.1875 2.5964 19.256 2.70078 19.2842C2.80515 19.3124 2.91645 19.2979 3.01019 19.2441L4.06238 18.6347C4.15611 18.5808 4.22461 18.4919 4.2528 18.3875C4.28099 18.2832 4.26656 18.1719 4.21269 18.0781C4.15882 17.9844 4.06991 17.9159 3.96554 17.8877C3.86116 17.8595 3.74986 17.8739 3.65613 17.9278Z" fill="#EF0064"/>
<path d="M22.1489 8.125C22.2952 8.125 22.2464 8.125 23.4042 7.46281C23.498 7.40894 23.5665 7.32003 23.5947 7.21566C23.6228 7.11128 23.6084 6.99998 23.5545 6.90625C23.5279 6.85983 23.4923 6.81913 23.4499 6.78645C23.4075 6.75378 23.3591 6.72978 23.3074 6.71582C23.203 6.68763 23.0917 6.70206 22.998 6.75593L21.9377 7.36531C21.8587 7.40997 21.797 7.47975 21.7623 7.56356C21.7276 7.64736 21.722 7.74036 21.7463 7.82774C21.7706 7.91512 21.8234 7.99186 21.8964 8.04573C21.9694 8.0996 22.0583 8.1275 22.1489 8.125Z" fill="#EF0064"/>
<path d="M7.36525 4.0625C7.41912 4.15624 7.50802 4.22473 7.6124 4.25292C7.71677 4.28111 7.82807 4.26668 7.92181 4.21281C8.01555 4.15894 8.08405 4.07004 8.11223 3.96566C8.14042 3.86128 8.126 3.74999 8.07212 3.65625L7.46275 2.60406C7.43607 2.55765 7.40052 2.51694 7.35811 2.48427C7.31571 2.4516 7.26728 2.42759 7.2156 2.41364C7.11122 2.38545 6.99992 2.39988 6.90619 2.45375C6.81245 2.50762 6.74395 2.59652 6.71576 2.7009C6.68757 2.80527 6.702 2.91657 6.75587 3.01031L7.36525 4.0625Z" fill="#EF0064"/>
<path d="M18.6346 4.0625L19.244 3.01031C19.2707 2.9639 19.2879 2.91268 19.2948 2.85959C19.3017 2.8065 19.2981 2.75258 19.2841 2.7009C19.2702 2.64922 19.2462 2.60079 19.2135 2.55838C19.1808 2.51598 19.1401 2.48042 19.0937 2.45375C19.0473 2.42707 18.9961 2.4098 18.943 2.40292C18.8899 2.39604 18.836 2.39968 18.7843 2.41364C18.7326 2.42759 18.6842 2.45159 18.6418 2.48427C18.5994 2.51694 18.5638 2.55765 18.5371 2.60406L17.9277 3.65625C17.9011 3.70266 17.8838 3.75388 17.8769 3.80696C17.87 3.86005 17.8737 3.91398 17.8876 3.96566C17.9016 4.01734 17.9256 4.06577 17.9583 4.10817C17.9909 4.15058 18.0316 4.18614 18.0781 4.21281C18.1245 4.23948 18.1757 4.25676 18.2288 4.26364C18.2819 4.27052 18.3358 4.26688 18.3875 4.25292C18.4392 4.23896 18.4876 4.21496 18.53 4.18229C18.5724 4.14962 18.6079 4.10891 18.6346 4.0625Z" fill="#EF0064"/>
<path d="M2.59613 7.46281C3.75394 8.125 3.70925 8.125 3.85144 8.125C3.94139 8.12563 4.02901 8.09638 4.10055 8.04185C4.17209 7.98732 4.22351 7.91059 4.24674 7.82369C4.26998 7.73679 4.26371 7.64464 4.22893 7.56168C4.19415 7.47872 4.13283 7.40966 4.05456 7.36531L3.00238 6.75593C2.90864 6.70206 2.79734 6.68763 2.69296 6.71582C2.58859 6.74401 2.49969 6.81251 2.44581 6.90625C2.39194 6.99998 2.37751 7.11128 2.4057 7.21566C2.43389 7.32003 2.50239 7.40894 2.59613 7.46281Z" fill="#EF0064"/>
<path d="M23.404 18.5372L22.3437 17.9278C22.2499 17.8739 22.1386 17.8595 22.0343 17.8877C21.9299 17.9159 21.841 17.9844 21.7871 18.0781C21.7333 18.1719 21.7188 18.2832 21.747 18.3875C21.7752 18.4919 21.8437 18.5808 21.9374 18.6347L22.9896 19.2441C23.0834 19.299 23.1951 19.3145 23.3002 19.287C23.4054 19.2596 23.4953 19.1915 23.5502 19.0978C23.6052 19.0041 23.6207 18.8923 23.5932 18.7872C23.5658 18.6821 23.4977 18.5921 23.404 18.5372Z" fill="#EF0064"/>
</svg>
